<svg xmlns:i="http://ns.adobe.com/AdobeIllustrator/10.0/" xmlns="http://www.w3.org/2000/svg" version="1.1" x="0" y="0" viewBox="0 0 92 148" enable-background="new 0 0 92 148" xml:space="preserve"><path fill="#37997D" d="M29.55 53.01c0.09 5.93 0.04 12.8-0.16 19.43 -0.17 5.55-5.87 7.49-6.09-0.05 -0.27-9.46-0.38-21.13-0.86-30.06 -0.4-7.4-7.06-6.28-7.25-0.73 -0.16 4.64 0.57 41.65 0.56 54.17 -0.01 6.81-5.91 4.11-6.62-1.91C7.64 81.29 7.89 69.97 7.54 62.63c-0.12-2.43-0.45-5.5-2.72-6.53 -2.27-1.03-4.39 1.72-4.45 4.22 -0.16 6.9-0.02 32.23 2.07 39.31 0.86 2.92 2.38 5.2 4.42 7.39 1.97 2.12 4.67 3.72 6.39 6.12 2.31 3.21 2.41 7.37 2.54 11.17 0.14 4.01-0.01 19.56 0.29 22.72 0.11 1.19 8.04 1.16 8.96 0.54 0.8-0.53 0.05-15.32 0.01-18.28 -0.1-7.29-0.74-29.22-0.74-31.67 0-2.31 0.32-6.06 1.13-7.16 1.15-1.57 3.69-2.39 5.15-3.9 5.17-5.33 5.15-8.05 5.46-15.02 0.08-1.89 0.3-14.99 0.04-18.6C35.65 46.82 29.46 46.99 29.55 53.01z"/><path fill="#03839E" d="M82.16 41.71c0.11 12.61-0.26 24.69-0.3 28.17 -0.08 6.92-4.39 8.5-6.36 7.05 -0.78-0.57-1.99 0.11-2.06-8.99 -0.06-7.87 0.29-54.34-0.15-59.7C72.42-2.4 63.57-2.08 63.38 9.1c-0.05 2.72-0.14 26.52-0.45 33.41 -0.26 6.02-5.63 5.21-5.89 2.02 -0.53-6.57-0.88-15.89-0.92-18.32 -0.15-8.84-6.86-7.81-6.85 0.17 0.01 3.68-0.38 11.98 0.11 20.32 0.58 9.88 9.53 12.37 11.53 14.08 1.28 1.1 1.72 3.57 2.02 8.26 0.23 3.69 0.31 12.41 0.31 19.67 -0.01 12.96-6.92 11.02-7.42 3.18 -0.48-7.47-0.62-11.19-0.73-16.74 -0.23-11.56-8.63-10.85-8.61-0.9 0.02 9.19-0.59 20.75 1.31 28.04 2.09 8.02 8.02 10.02 11.09 13.65 1 1.18 2.87 1.89 3.43 12.97 0.21 4.18-0.03 16.07 0.15 17.29 0.36 2.53 12.23 2.32 12.27-0.17 0.03-2.16-0.31-27.03 0.55-38.88 0.83-11.37 4.66-13.1 9.03-17.68 2.83-2.97 6.59-10.35 6.98-14.38 1.03-10.76 0.66-29.71 0.36-33.54C90.88 31.68 82.08 31.81 82.16 41.71z"/>
</svg>
