<svg xmlns:i="http://ns.adobe.com/AdobeIllustrator/10.0/" xmlns="http://www.w3.org/2000/svg" version="1.1" x="0" y="0" viewBox="0 0 91 43" enable-background="new 0 0 91 43" xml:space="preserve"><g>  <path fill="#293E83" d="M75.49 43c-1.33-0.36-2.61-1.01-3.71-1.69 -1.75-1.08-3.69-2.85-4.64-4.72 -0.43-0.85-1.7-5.03 0.49-4.99 0.87 0.02 1.46 1.33 1.78 1.96 0.8 1.57 1.31 2.84 1.93 3.9 1.27 2.15 3.43 4.63 5.11 5.16 -0.24-0.17-3.51-3.72-4.91-6.52 -1.88-3.77-2.88-8.18-2.2-11.28 0.58-2.65 2.66-2.86 3.17-1.88 0.65 1.24 0.4 3.65 0.29 4.97 -0.16 1.87-0.05 3.65 0.23 5.51 0.48 3.22 2.12 6.05 3.82 8.74 -0.17-0.25-2.27-5.44-2.19-9.43 0.09-4.3-0.43-7.83 1.8-12.16 0.31-0.59 1.55-2.29 2.06-1.41 0.51 0.88 0.75 1.49 0.99 2.25 0.7 2.24-1.03 2.88-1.97 6.41 -1.2 4.5-1.2 10.9-0.15 13.89 1.22-1.73 1.42-4.61 1.73-6.71 0.35-2.35 0.45-4.2 0.57-7.3 0.03-0.74 0.41-1.91 1.24-1.56 0.92 0.39 1.62 2.01 1.23 4.27 -0.43 2.54-2.01 9.51-4.38 11.44 0.2-0.17 2.63-0.18 4.89-7.22 0.97-3.02 0.85-5.58 0.55-8.87 -0.07-0.74 0.4-2.1 1.4-1.69 1.09 0.45 1.68 2.26 1.62 4.14 -0.28 8.8-5.12 12.99-8.03 14.24 0.25-0.02 0.5-0.03 0.75-0.06 2.45-0.29 4.5-2.1 6.12-3.86 0.78-0.85 1.26-1.46 1.79-2.47 0.48-0.92 1.64-0.96 1.88-0.7 0.4 0.42-0.23 1.82-1.89 4.2 -0.42 0.39-1.05 0.93-1.88 1.47 -1.51 0.97-3.39 1.62-5.22 1.98C79.22 43.1 77.09 43.05 75.49 43z"/>  <path fill="#6D4BBF" d="M47.35 43c-1.67-0.59-3.27-1.44-4.68-2.31 -2.8-1.73-5.9-4.57-7.43-7.56 -0.69-1.36-2.72-8.06 0.79-7.98 1.39 0.03 2.34 2.13 2.86 3.14 1.28 2.51 2.09 4.55 3.09 6.24 2.04 3.44 5.49 7.41 8.18 8.26 -0.38-0.28-5.62-5.95-7.86-10.45 -3.01-6.05-4.62-13.1-3.53-18.06 0.93-4.25 4.25-4.58 5.08-3 1.03 1.99 0.64 5.85 0.46 7.96 -0.25 2.99-0.08 5.84 0.37 8.82 0.77 5.16 3.39 9.68 6.12 13.99 -0.27-0.41-3.63-8.71-3.5-15.09 0.14-6.89-0.69-12.54 2.87-19.46 0.49-0.95 2.48-3.67 3.3-2.26s1.2 2.38 1.58 3.6c1.13 3.59-1.64 4.6-3.16 10.27 -1.93 7.2-1.93 17.46-0.25 22.23 1.95-2.76 2.28-7.38 2.78-10.74 0.56-3.76 0.73-6.73 0.92-11.69 0.05-1.19 0.65-3.06 1.98-2.5 1.47 0.62 2.59 3.21 1.97 6.84 -0.7 4.06-3.21 15.23-7.01 18.32 0.33-0.28 4.21-0.29 7.83-11.56 1.56-4.84 1.35-8.93 0.88-14.2 -0.11-1.18 0.63-3.37 2.24-2.71 1.74 0.72 2.69 3.63 2.59 6.63C65.35 33.8 57.6 40.52 52.94 42.51c0.4-0.02 0.8-0.05 1.2-0.1 3.93-0.46 7.21-3.36 9.8-6.18 1.25-1.36 2.03-2.34 2.87-3.95 0.77-1.48 2.62-1.54 3.01-1.13 0.64 0.67-0.37 2.91-3.03 6.72 -0.67 0.63-1.68 1.5-3.02 2.36 -1.94 1.25-4.27 2.16-6.64 2.77C53.56 43.06 50.91 43.06 47.35 43z"/>  <path fill="#026478" d="M40.55 30.07c-0.02-0.04-0.02-0.14-0.01-0.28 0.03-0.25 0.18-0.68 0.16-0.82 -0.02-0.14-0.26-0.05-0.32 0.02 -0.14 0.15-0.1 0.63-0.18 0.89 -0.18 0.61-0.5 0.96-0.83 1.2 -0.85 0.61-1.99 0.91-2.64 1.74 -0.64 0.81-1.16 1.73-1.55 2.72 -0.27 0.68-0.65 0.97-1.27 1.32 -0.29 0.17-0.81 0.31-1.1 0.5 -0.27 0.18-0.54 0.44-0.74 0.73 0.22-0.7 0.5-1.41 0.82-2.08 0.23-0.47 0.35-0.8 0.71-1.3 0.43-0.6 0.88-1.17 1.11-1.93 0.28-0.92 0.7-0.95 1.29-2.2 0.5-1.05 1.71-1.59 1.87-2.04 0 0-0.09-0.18-0.24-0.19 -0.22 0.23-0.38 0.56-0.66 0.78 -0.17 0.13-0.6 0.47-0.61 0.34 -0.01-0.11 0.27-0.91 0.2-1.65 -0.08-0.96 0.67-1.25 1.04-1.75 0.26-0.35 0.4-0.79 0.67-1.12 0.19-0.24 0.52-0.72 0.6-0.8 0.08-0.08-0.05-0.48-0.28-0.51 -0.21 0.38-0.08 0.63-0.57 1.25 -0.09 0.11-0.34 0.68-0.6 1.04 -0.41 0.55-0.88 1.03-1.05 0.9 -0.41-0.3-0.1-1.91 0.08-2.33 0.22-0.49 0.8-1.48 0.85-1.69 0.04-0.17-0.2-0.39-0.31-0.39 0 0 0 0.32-0.11 0.56 -0.26 0.55-0.59 1.07-0.75 1.5 -0.23 0.63-0.37 1.51-0.3 2.17 0.04 0.37 0.25 0.5 0.35 0.89 0.09 0.31 0.05 0.73 0 1.04 -0.11 0.77-0.19 1.46-0.75 2.3 -0.1 0.16-0.52 0.83-0.74 0.94 -0.3 0.15-0.46-1.39-0.49-1.68 -0.12-1.17-0.37-2.2 0.01-3.37 0.17-0.53 0.4-1.04 0.57-1.56 0.2-0.61 0.03-1.03-0.01-1.62 -0.09-0.08-0.26-0.18-0.36-0.23 -0.02 0.38 0.36 0.96-0.03 1.98 -0.18 0.48-0.35 0.99-0.51 1.48 -0.2 0.62-0.19 1.11-0.15 1.77 0.04 0.65 0.13 1.14 0.2 1.76 0.16 1.39 0.71 2.23-0.09 3.33 -0.61 0.84-1.07 1.74-1.52 2.68 -0.24 0.49-0.44 0.99-0.63 1.51 -0.17 0.46-0.31 1.57-0.49 1.47 -0.06-0.04-0.21-0.45-0.2-0.8 0.01-0.52 0.11-1.13 0.22-1.51 0.18-0.64 0.5-1.16 0.85-1.73 0.47-0.74 0.6-1.03 0.59-2.02 -0.01-0.68 0.2-1.36 0.28-2.06 0.08-0.64-0.05-1.43-0.1-1.92 -0.14-1.17 0.2-1.89 0.2-1.91 -0.01-0.09-0.21-0.33-0.27-0.21 -0.12 0.25-0.18 1.39-0.29 0.99 -0.13-0.49-0.76-1.32-0.69-2.09 0.1-1.02 0.71-2.4 0.91-3.43 0.08-0.44-0.13-0.8-0.19-0.67 -0.06 0.14-0.18 0.85-0.31 1.34 -0.23 0.9-0.59 1.95-0.69 2.87 -0.08 0.76 0.42 1.21 0.63 1.9 0.21 0.69 0.53 1.73 0.54 2.44 0.01 1.15-0.32 1.75-0.36 2.63 -0.01 0.33 0.04 0.92-0.21 1.36 -0.45 0.81-0.94 1.36-1.15 2.12 -0.25-0.68-0.19-1.55-0.01-2.34 0.19-0.82 0.58-1.72 0.65-2.57 0.05-0.59 0-1.15-0.07-1.72 -0.07-0.6 0.1-1.14-0.12-1.69 -0.35 0.28-0.27 0.68-0.2 1.08 0.12 0.76 0.18 1.5 0.11 2.28 -0.03 0.35-0.31 1.79-0.65 1.89 -0.14-0.07-0.26-0.77-0.49-1.58 -0.17-0.59-0.4-0.94-0.31-1.69 0.08-0.63-0.05-1.8 0.01-2.44 0.07-0.78 0.12-1.03 0.07-1.81 -0.04-0.74-0.45-1.22-0.65-1.87 -0.19-0.62-0.05-1.24 0.01-1.88 0.08-0.9 0.21-1.71 0.18-1.85 -0.04-0.26-0.37-0.68-0.38-0.45 0 0.27-0.02 0.93-0.03 1.51 -0.03 1.25-0.35 2.26-0.02 2.98 0.4 0.88 0.72 1.19 0.5 2.9 -0.17 1.35-0.08 2.48-0.15 2.56 -0.3 0.35-1.3-2.54-1.48-3.41 -0.18-0.84-0.38-1.43-0.29-2.53 0.08-1 0.07-1.78 0.26-2.76 0.21-1.1 0.5-1.58 0.52-1.7 0.01-0.09-0.31 0.05-0.36 0.13 -0.18 0.26-0.56 2.01-0.67 3.18 -0.07 0.77-0.11 0.96-0.71 0.74 -0.39-0.15-1.81-1.43-1.92-1.28 -0.07 0.1-0.05 0.34 0.02 0.4 0.66 0.2 1.12 0.87 1.41 0.99 1.12 0.48 1.05 1.23 1.41 2.89 0.17 0.75 0.45 1.62 0.67 2.23 0.54 1.5 1.21 2.06 1.52 3.22 0.19 0.72 0.55 1.74 0.57 2.37 0.02 0.53-0.05 0.77-0.02 1.3 0.03 0.5 0.29 1.32 0.22 1.81 -0.14 0.32-1.05-1.95-1.48-2.97 -0.38-0.91-0.97-1.06-1.35-1.67 -0.17-0.27-0.25-0.5-0.48-0.72 -0.26-0.25-0.63-0.37-0.93-0.6 -0.3-0.23-0.46-0.43-0.47-0.81 -0.02-0.59-0.03-1.56 0-2.44 0.04-1.07 0-2.06-0.18-2.36 -0.09-0.14-0.4-0.43-0.39-0.19 0 0.24 0.53 1.64 0.23 2.42 -0.53 0.15-1.08-0.83-1.29-1.21 -0.39-0.72-0.25-0.99-0.35-1.22 -0.09-0.22-0.4-0.55-0.41-0.38 -0.02 0.22 0.26 1.09 0.45 1.54 0.37 0.9 1.02 1.37 1.46 1.95 0.35 0.47 0.16 1.65 0.14 2.19 -0.09 0.18-0.67-0.27-1.08-0.51 -0.51-0.3-1.31-0.76-1.43-1.86 -0.1-0.89-0.18-1.69-0.49-2.22 -0.25-0.43-0.78-0.9-1.02-1.33 -0.09-0.15-0.28-0.64-0.34-0.7 -0.13-0.13-0.44-0.09-0.37 0.03 0 0 0.19 0.4 0.47 0.81 0.23 0.33 0.45 0.65 0.88 1.17 0.32 0.39 0.55 1.55 0.47 2.07 -0.11 0.69-0.55 0.34-0.92 0.07 -0.31-0.22-0.56-0.38-0.78-0.69 -0.29-0.39-0.17-0.63-0.28-1.07 -0.09-0.37-0.52-1.31-0.87-1.77 -0.17-0.22-0.55-0.21-0.43-0.07 0.34 0.38 0.65 0.82 0.82 1.26 0.11 0.28 0.43 0.95 0.1 1.21 -0.3 0.23-0.87-0.38-1.11-0.52 -0.34-0.21-0.62-0.24-0.83-0.6 -0.13-0.23-0.28-0.5-0.32-0.71 -0.02-0.12-0.38-0.2-0.38-0.1 0 0.08 0.14 0.65 0.62 1.15 0.14 0.14 0.64 0.4 0.8 0.5 0.43 0.26 0.51 0.44 0.93 0.71 0.45 0.29 0.75 0.29 1.51 0.95 0.29 0.26 0.71 0.45 1.03 0.67 0.35 0.23 0.52 0.37 0.8 0.65 0.28 0.27 0.73 0.58 1.09 0.79 0.93 0.57 2.12 0.98 2.8 1.86 0.24 0.31 0.41 0.68 0.7 0.93 0.27 0.24 0.69 0.55 1.05 1.49 0.14 0.35 0.27 0.71 0.42 1.09 0.34 0.83 0.75 1.57 0.95 2.44 0.06 0.26 0.35 1.07 0.18 1.31 -0.3 0.42-0.85-0.57-1-0.83 -0.27-0.48-0.56-1.52-0.75-2.04 -0.19-0.52-0.37-0.91-0.68-1.37 -0.2-0.3-0.68-0.76-1.09-1.03 -0.56-0.37-1.04-0.49-1.19-0.6 -1.01-0.72-2.12-1.76-3.46-2.12 -0.47-0.12-1.24-0.19-1.44-0.51 -0.14-0.23-0.16-0.54-0.22-0.66 -0.14-0.28-0.68-0.42-0.59-0.22 0.25 0.5 0.3 0.71 0.47 1.02 0.25 0.43 0.46 0.4 0.91 0.48 1.49 0.28 2.72 1.15 3.86 2.1 0.53 0.44 1.17 0.61 1.72 1.02 0.89 0.67 1.52 2.19 1.63 3.17 -0.22-0.19-0.36-0.44-0.75-0.72 -0.34-0.24-0.76-0.46-1.05-0.76 -0.39-0.4-0.76-0.66-1.24-0.86 -0.65-0.28-0.84-0.19-1.52-0.6 -0.38-0.23-1.04-0.79-1.37-1.1 -0.3-0.28-0.65-0.81-1.05-0.98 -0.26-0.11-0.66-0.34-1.03-0.39 -0.66-0.09-0.96-0.22-1.06-0.26 -0.17-0.07-0.06 0.34 0.1 0.42 0.16 0.08 0.59-0.01 0.96 0.12 0.14 0.05 0.54 0.14 0.92 0.38 0.38 0.24 0.67 0.59 0.56 0.75 -0.09 0.14-0.79 0.29-0.95 0.36 -0.53 0.22-1.32 0.74-1.33 0.84 -0.02 0.09 0.03 0.24 0.22 0.31 0.21-0.41 0.61-0.7 1.16-0.91 0.47-0.18 0.98-0.41 1.49-0.2 0.5 0.21 0.64 0.5 1.15 0.9 0.67 0.51 2.05 0.62 2.53 1.32 -0.31 0.04-0.75 0.1-1.04 0.24 -0.3 0.15-0.56 0.36-0.87 0.48 -0.89 0.35-2.03-0.14-2.14-0.14 -0.11-0.01-0.36 0.21-0.24 0.27 0.11 0.07 1.62 0.34 2.24 0.16 0.63-0.18 0.66-0.26 1.2-0.56 0.27-0.15 0.79-0.16 1.21-0.04 0.26 0.07 0.61 0.32 0.78 0.45 0.37 0.28 0.58 0.53 0.92 0.94 0.67 0.8 1.3 1.78 1.39 2.83 0.02 0.26-0.1 0.96-0.03 1.31 0.02 0.07 1.63 0.1 1.65 0 0.03-0.19-0.06-0.48-0.04-0.78 0.03-0.41 0.14-1.04 0.25-1.44 0.21-0.78 0.31-1.15 1.07-1.73 0.3-0.23 0.95-0.67 1.29-0.72 0.52-0.06 1.04 0.11 1.52-0.13 0.33-0.16 0.49-0.55 0.82-0.71 0.3-0.16 0.58-0.2 0.68-0.31 0.03-0.09 0.1-0.26 0.07-0.41 -0.34 0.16-0.72 0.31-0.94 0.44 -0.24 0.14-0.68 0.67-0.94 0.74 -0.34 0.08-0.94 0.02-1.31 0.06 -0.7 0.08-1.01 0.49-1.58 0.8 0.06-0.47 0.76-1.12 1.65-1.44 0.39-0.14 0.91-0.52 1.34-1.01 0.53-0.61 1.19-0.51 1.78-0.75 0.57-0.23 0.79-0.31 1.18-0.74 0.43-0.47 1.13-0.93 1.53-1.26 0.05-0.23 0-0.58-0.04-0.48 -0.17 0.39-1 0.94-1.57 1.5 -0.5 0.49-1.02 0.62-1.27 0.71 -0.51 0.18-0.71 0.16-0.88 0.01 -0.12-0.11-0.05-0.38 0.2-0.9 0.32-0.65 0.69-1.26 1.24-1.73 0.54-0.46 1.42-0.91 2.06-1.31 0.48-0.29 0.66-1 1.33-0.96 0.04-0.08 0.06-0.22 0.03-0.27C40.74 30.08 40.59 30.13 40.55 30.07z"/>  <path fill="#37997D" d="M82.08 42.55c0.17 0.17 0.33 0.31 0.47 0.45 1.3 0.03 0.42 0.06 2.38-0.01 -0.31-0.69-0.79-1.23-1.42-1.86 -1.68-1.68-1.68-4.4 0-6.08 1.19-1.19 1.85-2.78 1.85-4.47 0-1.69-0.66-3.27-1.85-4.47 -1.68-1.68-1.68-4.4 0-6.08 1.19-1.19 1.85-2.78 1.85-4.47s-0.71-3.22-1.85-4.47c-1.68-1.84-1.38-3.63-0.79-4.84 0.16-0.32 0.14-0.71-0.06-1.01 -0.19-0.31-0.53-0.49-0.89-0.49h0c-0.39 0-0.75 0.23-0.92 0.58 -1.12 2.35-0.71 5.25 1.23 7.19 0.81 0.81 1.26 1.89 1.26 3.04s-0.45 2.23-1.26 3.04c-2.46 2.46-2.46 6.47 0 8.93 0.81 0.81 1.26 1.89 1.26 3.04 0 1.15-0.45 2.23-1.26 3.04C79.62 36.09 79.62 40.09 82.08 42.55z"/>  <path fill="#2CA482" d="M89.33 35.18c0.55-0.55 0.98-1.17 1.29-1.85 0.3-0.66-0.2-1.41-0.93-1.41l0 0c-0.4 0-0.75 0.24-0.92 0.6 -0.21 0.46-0.5 0.88-0.87 1.24 -2.46 2.46-2.46 6.47 0 8.93 0.12 0.12 0.23 0.22 0.33 0.32 1.18 0.03 0.74 0.03 2.46 0 -0.31-0.63-0.77-1.15-1.36-1.74C87.66 39.58 87.66 36.86 89.33 35.18z"/>  <path fill="#55AA95" d="M79.54 30.58c0-1.69-0.66-3.27-1.85-4.47 -0.59-0.59-0.96-1.3-1.14-2.06 -0.1-0.44-0.48-0.76-0.93-0.76h-0.12c-0.61 0-1.06 0.56-0.93 1.16 0.25 1.14 0.82 2.21 1.7 3.09 0.81 0.81 1.26 1.89 1.26 3.04 0 1.15-0.45 2.23-1.26 3.04 -2.46 2.46-2.46 6.47 0 8.93 0.17 0.17 0.33 0.31 0.47 0.45 1.83 0.06 0.43 0 2.39 0 -0.31-0.69-0.79-1.24-1.43-1.88 -1.68-1.68-1.68-4.4 0-6.08C78.88 33.86 79.54 32.27 79.54 30.58z"/>  <path fill="#37997D" d="M16.05 31.62c0.28-0.96-0.28-1.98-1.24-2.26 -0.59-0.17-2.61-0.43-4.13-0.38 -0.11 0-0.19-0.06-0.27-0.13 -0.96-0.73-0.08-1.55 0.39-1.75 0.71-0.3 2.67-0.15 4.29-1.03 0.88-0.48 0.77-1.84 0.07-2.57 -0.69-0.73-1.84-0.76-2.57-0.07 -0.04 0.04-0.98 0.69-1.79 1.35 -0.18 0.15-0.43 0.18-0.65 0.08 -0.21-0.1-0.34-0.32-0.34-0.56l0.01-0.41c0.02-0.66 0.34-1.27 0.87-1.65 1.29-0.93 3.22-2.96 3.28-3.92 0.07-1.07-0.36-1.83-1.37-1.86 -1.01-0.02-1.67 0.51-2.13 1.67l-1.27 2.45c-0.1 0.2-0.3 0.34-0.52 0.38 -0.23 0.04-0.45-0.04-0.61-0.2 -0.86-0.87-1.82-1.67-2.21-1.91 -0.85-0.53-1.98-0.27-2.51 0.58 -0.53 0.85-0.27 1.98 0.58 2.51 0.36 0.22 1.33 0.66 2.38 1.03 0.65 0.23 1.08 0.85 1.06 1.54 -0.01 0.42-0.19 0.81-0.5 1.09 -0.31 0.28-0.72 0.42-1.13 0.39 -1.5-0.11-3.41 0.04-4 0.17 -0.98 0.23-1.59 1.21-1.36 2.19 0.23 0.98 1.21 1.59 2.19 1.36 0.5-0.12 1.89-0.66 3.09-1.3 0.34-0.18 0.76-0.17 1.09 0.03 0.33 0.2 0.54 0.57 0.53 0.96L7.19 43h2.43l0.02-10.33c0-0.39 0.21-0.75 0.55-0.95 0.34-0.2 0.76-0.2 1.1-0.01 1.03 0.57 2.09 1.05 2.52 1.17C14.76 33.14 15.77 32.59 16.05 31.62z"/>  <path fill="#026478" d="M12.89 35.06c-0.06-0.74-0.71-1.3-1.45-1.24 -0.46 0.04-1.93 0.38-2.97 0.82 -0.07 0.03-0.15 0.01-0.22-0.02 -0.86-0.25-0.46-1.06-0.19-1.32 0.42-0.39 1.81-0.8 2.71-1.84 0.49-0.56 0.05-1.48-0.62-1.81 -0.67-0.33-1.48-0.05-1.81 0.63 -0.02 0.04-0.5 0.74-0.89 1.41 -0.09 0.15-0.25 0.24-0.43 0.22 -0.17-0.02-0.32-0.13-0.38-0.3l-0.1-0.29c-0.16-0.46-0.09-0.97 0.17-1.38 0.65-0.98 1.46-2.9 1.25-3.58 -0.23-0.76-0.73-1.17-1.43-0.93s-1.03 0.79-1.04 1.72l-0.24 2.03c-0.02 0.17-0.12 0.32-0.27 0.4s-0.32 0.09-0.48 0.02c-0.83-0.38-1.7-0.68-2.04-0.75 -0.73-0.15-1.44 0.33-1.59 1.06 -0.15 0.73 0.33 1.44 1.06 1.59 0.31 0.06 1.1 0.11 1.92 0.09 0.51-0.01 0.97 0.31 1.14 0.79l0 0c0.1 0.29 0.08 0.61-0.06 0.88 -0.14 0.27-0.39 0.48-0.68 0.56 -1.07 0.32-2.36 0.92-2.73 1.17 -0.62 0.42-0.79 1.25-0.37 1.87 0.42 0.62 1.25 0.79 1.87 0.37 0.32-0.21 1.14-0.95 1.8-1.7 0.19-0.22 0.49-0.32 0.77-0.26 0.28 0.05 0.52 0.26 0.62 0.53L8.84 43h1.92l-2.05-5.54c-0.1-0.27-0.05-0.58 0.13-0.8 0.18-0.23 0.47-0.34 0.76-0.3 0.87 0.13 1.73 0.18 2.06 0.15C12.4 36.45 12.95 35.8 12.89 35.06z"/>  <path fill="#03839E" d="M9.28 39.29c-0.21-0.79 0.27-1.61 1.06-1.82 0.49-0.13 2.14-0.3 3.39-0.22 0.09 0.01 0.16-0.05 0.23-0.1 0.8-0.57 0.1-1.27-0.28-1.44 -0.58-0.26-2.17-0.17-3.48-0.93 -0.71-0.41-0.58-1.52-0.01-2.1 0.58-0.58 1.52-0.58 2.1-0.01 0.04 0.04 0.79 0.58 1.43 1.14 0.15 0.13 0.35 0.16 0.53 0.08 0.18-0.08 0.29-0.25 0.29-0.45v-0.33c0-0.54-0.25-1.04-0.68-1.37 -1.03-0.78-2.56-2.48-2.6-3.27 -0.04-0.88 0.33-1.49 1.16-1.49 0.82 0 1.35 0.45 1.7 1.41l0.99 2.03c0.08 0.17 0.24 0.29 0.42 0.32 0.18 0.03 0.37-0.02 0.51-0.15 0.72-0.69 1.52-1.32 1.85-1.52 0.71-0.42 1.62-0.18 2.04 0.53 0.42 0.71 0.18 1.62-0.53 2.04 -0.3 0.18-1.1 0.51-1.96 0.79 -0.53 0.18-0.9 0.67-0.9 1.24 0 0.34 0.14 0.67 0.39 0.9 0.25 0.24 0.58 0.36 0.92 0.34 1.23-0.06 2.79 0.1 3.26 0.23 0.8 0.21 1.27 1.02 1.06 1.82 -0.21 0.8-1.02 1.27-1.82 1.06 -0.4-0.1-1.51-0.57-2.47-1.1 -0.28-0.16-0.62-0.15-0.9 0.01 -0.28 0.16-0.45 0.46-0.45 0.78V43h-1.99v-2.76c0-0.32-0.16-0.61-0.44-0.77 -0.27-0.16-0.61-0.17-0.89-0.03 -0.86 0.46-1.76 0.83-2.12 0.92C10.3 40.56 9.49 40.08 9.28 39.29z"/></g>
</svg>
