<svg xmlns:i="http://ns.adobe.com/AdobeIllustrator/10.0/" xmlns="http://www.w3.org/2000/svg" version="1.1" x="0" y="0" viewBox="0 0 1871 159" enable-background="new 0 0 1871 159" xml:space="preserve"><g opacity="0.61">  <path fill="#F17F1E" d="M1303.59 137.68c-0.42 0-0.81-0.25-0.98-0.63 -0.17-0.39-0.1-0.84 0.19-1.15 3.73-4.1 15.23-15.07 34.58-18.96 0 0 9.29-3.22 33.83 17.5 0.34 0.29 0.47 0.76 0.32 1.18 -0.15 0.42-0.55 0.7-0.99 0.71 -3.08 0.03-8.22-0.35-12.41-2.78 0 0 4.78 3.37 7.59 9.27 0.35 0.73 0.28 1.59-0.17 2.26s-1.22 1.06-2.03 1.01c-4.75-0.28-13.67-1.77-22.07-8.52 0 0-8.56 8.45-16.22 10.13 -0.63 0.14-1.3 0-1.82-0.37 -0.53-0.38-0.87-0.96-0.94-1.6 -0.37-3.25-0.56-9.36 2.22-14.01C1324.67 131.71 1310.98 137.66 1303.59 137.68z"/>  <g opacity="0.12">    <path d="M1363.78 139.51c-0.09 0.01-0.18 0.03-0.27 0.02 -4.75-0.28-13.67-1.77-22.07-8.52 0 0-8.56 8.45-16.22 10.13 -0.63 0.14-1.3 0-1.82-0.37s-0.87-0.96-0.94-1.6c-0.01-0.08-0.01-0.17-0.02-0.25 -0.3 2.64-0.17 5.12 0.02 6.82 0.07 0.64 0.42 1.23 0.95 1.61 0.53 0.38 1.19 0.51 1.82 0.38 7.65-1.68 16.22-10.13 16.22-10.13 8.39 6.75 17.32 8.25 22.07 8.52 0.81 0.05 1.58-0.34 2.03-1.01 0.45-0.67 0.52-1.53 0.17-2.26C1365.12 141.6 1364.46 140.5 1363.78 139.51z"/>    <path d="M1324.67 125.15c0 0-8.85 3.85-16.16 5.37 -2.65 2.18-4.56 4.11-5.71 5.38 -0.28 0.31-0.36 0.77-0.18 1.15 0.17 0.39 0.56 0.64 0.98 0.63 5.53-0.02 14.59-3.35 18.8-5.03C1322.64 130.14 1323.29 127.46 1324.67 125.15z"/>    <path d="M1364.81 129.31c-2.22-0.39-4.58-1.09-6.7-2.32 0 0 4.62 3.26 7.45 9 1.88 0.28 3.62 0.36 4.96 0.34 0.45 0 0.84-0.29 1-0.71 0.15-0.42 0.03-0.89-0.32-1.18C1368.94 132.53 1366.82 130.83 1364.81 129.31z"/>  </g>  <circle fill="#C63A00" cx="1339.83" cy="119.17" r="1.39"/>  <circle fill="#C63A00" cx="1337.05" cy="125.15" r="1.21"/>  <circle fill="#C63A00" cx="1333.46" cy="131.01" r="1.2"/>  <circle fill="#C63A00" cx="1329.69" cy="136.33" r="0.82"/>  <circle fill="#C63A00" cx="1326.9" cy="140.77" r="0.57"/>  <circle fill="#C63A00" cx="1349.03" cy="121.12" r="1.21"/>  <circle fill="#C63A00" cx="1355.02" cy="124.49" r="1.2"/>  <circle fill="#C63A00" cx="1360.48" cy="128.06" r="0.82"/>  <circle fill="#C63A00" cx="1365.03" cy="130.68" r="0.57"/>  <circle fill="#C63A00" cx="1331.97" cy="121.14" r="1.21"/>  <circle fill="#C63A00" cx="1325.79" cy="124.15" r="1.2"/>  <circle fill="#C63A00" cx="1319.75" cy="126.6" r="0.82"/>  <circle fill="#C63A00" cx="1315.01" cy="128.85" r="0.57"/>  <circle fill="#C63A00" cx="1310.17" cy="131.41" r="0.57"/>  <circle fill="#C63A00" cx="1343.8" cy="124.35" r="1.21"/>  <circle fill="#C63A00" cx="1348.5" cy="129.37" r="1.2"/>  <circle fill="#C63A00" cx="1352.61" cy="134.43" r="0.82"/>  <circle fill="#C63A00" cx="1356.73" cy="138.3" r="0.57"/>  <circle fill="#C63A00" cx="1360.84" cy="141.35" r="0.57"/></g><path fill="#194A89" d="M1482.08 151.03c0 0 11.51 14.96 45.19 14.96s57.25-5.08 63.05-14.47c5.8-9.39 6.12-27.53 6.12-40.51s0.02-19.15-7.16-19.43c-7.18-0.28-8.55 3.27-8.55 6.03 0 2.76-0.55 23.72-0.55 23.72s0.39 7.02-4.4 7.02 -6.79-2.44-6.79-5.76c0-3.31 0-22.83 0-22.83s0.6-8.28-7.68-8.28 -7.32 9.01-7.32 9.01v21.35c0 0 0.7 6.11-5.9 6.11s-5.1-6.84-5.1-6.84V99.77c0 0 0.38-6.99-7.72-6.99 -8.1 0-8.28 6.62-8.28 6.62v24.67c0 0 1.34 5.34-3.45 5.34s-4.55-2.02-4.55-6.63 0-23.01 0-23.01 0.7-7.82-7.5-7.82c-8.2 0-7.5 7.82-7.5 7.82v24.3c0 0-0.66 4.61-5.26 4.61s-6.74-4.61-6.74-4.61v-22.09c0 0-0.53-8.46-8.27-8.46s-6.53 14.72-6.53 14.72S1475.45 142.66 1482.08 151.03z"/><path fill="#9E6CC4" d="M1877.9 35.44c-7.84 0-14.19 6.36-14.19 14.19v69.15c0 7.84-6.35 14.19-14.19 14.19s-14.19-6.35-14.19-14.19v-18.76c0-7.84-6.35-14.19-14.19-14.19 -7.03 0-12.86 5.12-13.98 11.84V78.31c0-7.84-6.35-14.19-14.19-14.19 -7.84 0-14.19 6.36-14.19 14.19V49.63c0-7.84-6.35-14.19-14.19-14.19 -7.84 0-14.19 6.36-14.19 14.19v69.15c0 7.84-6.35 14.19-14.19 14.19s-14.19-6.35-14.19-14.19v-18.76c0-7.84-6.35-14.19-14.19-14.19 -7.78 0-14.09 6.27-14.18 14.03V49.63c0-7.84-6.35-14.19-14.19-14.19 -7.84 0-14.19 6.36-14.19 14.19v69.15c0 7.84-6.35 14.19-14.19 14.19 -7.84 0-14.19-6.35-14.19-14.19v-18.76c0-7.84-6.35-14.19-14.19-14.19s-14.19 6.36-14.19 14.19v54.97c0 4.34 3.55 7.89 7.89 7.89h267.88c4.34 0 7.89-3.55 7.89-7.88V49.63C1892.09 41.8 1885.74 35.44 1877.9 35.44z"/><circle fill="#A979D3" cx="1792.95" cy="78.31" r="14.19"/><circle fill="#833EBA" cx="1792.95" cy="78.31" r="8.61"/><circle fill="#A979D3" cx="1764.56" cy="49.57" r="14.13"/><circle fill="#833EBA" cx="1764.56" cy="49.63" r="8.61"/><circle fill="#A979D3" cx="1707.79" cy="100.02" r="14.13"/><circle fill="#833EBA" cx="1707.79" cy="100.02" r="8.61"/><circle fill="#A979D3" cx="1679.41" cy="49.57" r="14.13"/><circle fill="#833EBA" cx="1679.41" cy="49.63" r="8.61"/><circle fill="#A979D3" cx="1622.63" cy="100.02" r="14.13"/><circle fill="#833EBA" cx="1622.63" cy="100.02" r="8.61"/><circle fill="#A979D3" cx="1877.9" cy="49.57" r="14.13"/><circle fill="#833EBA" cx="1877.9" cy="49.63" r="8.61"/><circle fill="#A979D3" cx="1821.13" cy="100.02" r="14.13"/><circle fill="#833EBA" cx="1821.13" cy="100.02" r="8.61"/><path fill="#37997D" d="M102.9 103.17c1.46-5.04-1.44-10.31-6.48-11.77 -3.11-0.9-13.63-2.27-21.57-1.99 -0.55 0.02-0.99-0.32-1.43-0.66 -4.99-3.8-0.42-8.11 2.02-9.12 3.72-1.54 13.9-0.76 22.36-5.36 4.61-2.5 3.99-9.61 0.38-13.43 -3.6-3.81-9.61-3.98-13.43-0.38 -0.22 0.21-5.14 3.6-9.33 7.04 -0.95 0.78-2.27 0.93-3.37 0.39 -1.1-0.54-1.79-1.67-1.76-2.9l0.06-2.12c0.09-3.43 1.78-6.61 4.56-8.61 6.71-4.84 16.78-15.43 17.11-20.45 0.37-5.6-1.88-9.55-7.12-9.69 -5.24-0.14-8.71 2.65-11.1 8.71l-6.63 12.77c-0.55 1.05-1.57 1.78-2.74 1.96 -1.17 0.18-2.36-0.21-3.2-1.06 -4.51-4.55-9.48-8.71-11.53-9.99 -4.45-2.78-10.31-1.42-13.09 3.04s-1.42 10.31 3.04 13.09c1.86 1.16 6.94 3.45 12.41 5.39 3.39 1.2 5.62 4.45 5.53 8.04 -0.06 2.17-1 4.22-2.61 5.68 -1.61 1.46-3.75 2.19-5.91 2.03 -7.81-0.58-17.8 0.19-20.85 0.91 -5.11 1.19-8.28 6.3-7.09 11.41 1.19 5.11 6.3 8.29 11.41 7.09 2.62-0.61 9.86-3.45 16.13-6.76 1.8-0.95 3.96-0.88 5.7 0.17 1.74 1.06 2.79 2.95 2.78 4.98l-0.48 73.29 12.68 0.33 0.09-56.59c0-2.05 1.09-3.94 2.85-4.98 1.77-1.04 3.95-1.07 5.74-0.07 5.37 2.99 10.9 5.45 13.12 6.1C96.17 111.1 101.44 108.2 102.9 103.17z"/><path fill="#026478" d="M86.44 121.09c-0.31-3.88-3.7-6.78-7.58-6.47 -2.39 0.19-10.05 2-15.49 4.27 -0.38 0.16-0.77 0.04-1.16-0.08 -4.46-1.33-2.42-5.52-0.99-6.86 2.18-2.04 9.44-4.17 14.11-9.58 2.54-2.94 0.25-7.72-3.25-9.42 -3.5-1.7-7.72-0.24-9.42 3.25 -0.1 0.21-2.62 3.84-4.63 7.33 -0.45 0.79-1.33 1.24-2.24 1.16 -0.91-0.08-1.68-0.69-1.98-1.55l-0.52-1.49c-0.84-2.4-0.5-5.05 0.9-7.17 3.39-5.11 7.6-15.1 6.51-18.68 -1.21-3.98-3.81-6.13-7.48-4.86 -3.67 1.28-5.35 4.12-5.42 8.96l-1.26 10.6c-0.1 0.88-0.62 1.65-1.39 2.08 -0.77 0.43-1.7 0.47-2.5 0.1 -4.32-1.98-8.86-3.56-10.62-3.91 -3.82-0.76-7.53 1.72-8.28 5.54 -0.76 3.82 1.72 7.53 5.54 8.29 1.6 0.32 5.72 0.57 10.03 0.49 2.67-0.05 5.07 1.62 5.94 4.13l0.01 0.02c0.53 1.52 0.41 3.18-0.32 4.61 -0.73 1.43-2.02 2.49-3.56 2.94 -5.57 1.64-12.32 4.8-14.25 6.1 -3.23 2.17-4.1 6.54-1.93 9.78 2.17 3.23 6.54 4.1 9.78 1.93 1.65-1.11 5.91-4.96 9.39-8.88 1-1.13 2.53-1.65 4.01-1.37s2.71 1.33 3.23 2.75l16.05 44L76.55 166l-11.97-32.4c-0.52-1.42-0.26-3.01 0.69-4.19 0.95-1.18 2.46-1.76 3.96-1.54 4.52 0.67 9.03 0.93 10.75 0.8C83.85 128.37 86.75 124.97 86.44 121.09z"/><path fill="#03839E" d="M67.58 143.13c-1.09-4.14 1.39-8.39 5.54-9.47 2.56-0.67 11.18-1.56 17.65-1.17 0.45 0.03 0.81-0.24 1.18-0.51 4.16-3 0.52-6.61-1.46-7.49 -3.01-1.34-11.33-0.92-18.15-4.85 -3.71-2.14-3.05-7.94-0.03-10.97 3.02-3.04 7.94-3.05 10.97-0.03 0.18 0.18 4.12 3.05 7.47 5.95 0.76 0.66 1.83 0.81 2.75 0.39 0.91-0.42 1.5-1.33 1.5-2.33v-1.74c0-2.8-1.31-5.44-3.54-7.13 -5.38-4.09-13.38-12.95-13.54-17.07 -0.18-4.58 1.74-7.76 6.02-7.76 4.29 0 7.06 2.35 8.88 7.35l5.15 10.57c0.43 0.87 1.24 1.49 2.2 1.66 0.96 0.17 1.93-0.12 2.64-0.8 3.78-3.62 7.93-6.91 9.63-7.91 3.69-2.17 8.45-0.94 10.62 2.76 2.17 3.69 0.94 8.45-2.76 10.62 -1.54 0.91-5.74 2.67-10.25 4.14 -2.79 0.91-4.68 3.51-4.68 6.45 0 1.77 0.73 3.47 2.01 4.69 1.28 1.22 3.01 1.87 4.79 1.78 6.39-0.31 14.53 0.54 17 1.18 4.15 1.08 6.63 5.32 5.55 9.47 -1.08 4.15-5.32 6.63-9.47 5.55 -2.1-0.55-7.85-2.97-12.86-5.77 -1.46-0.82-3.25-0.8-4.69 0.05 -1.44 0.85-2.33 2.4-2.33 4.08v36.7H95.01v-23.47c0-1.65-0.86-3.19-2.28-4.04 -1.41-0.86-3.17-0.91-4.64-0.14 -4.51 2.37-9.19 4.32-11.04 4.8C72.91 149.75 68.67 147.27 67.58 143.13z"/><path fill="#3A4FA5" d="M375.62 162.12c-13.65 1.62-28.11-4.87-39.42-11.86 -10.72-6.63-22.62-17.51-28.46-28.97 -2.66-5.2-10.43-30.88 3.02-30.59 5.33 0.12 8.97 8.15 10.94 12.02 4.89 9.61 8.01 17.44 11.83 23.91 7.8 13.19 21.04 28.39 31.32 31.65 -1.45-1.06-21.53-22.8-30.1-40.02 -11.53-23.16-17.69-50.18-13.51-69.2 3.57-16.27 16.3-17.56 19.44-11.51 3.96 7.62 2.46 22.4 1.77 30.49 -0.98 11.45-0.3 22.36 1.4 33.8 2.95 19.77 12.99 37.09 23.45 53.59 -1.02-1.56-13.92-33.35-13.42-57.82 0.54-26.38-2.64-48.04 11.02-74.57 1.87-3.63 9.52-14.06 12.63-8.66 3.11 5.4 4.61 9.13 6.06 13.78 4.32 13.76-6.3 17.64-12.11 39.35 -7.38 27.59-7.38 66.88-0.95 85.18 7.46-10.58 8.72-28.28 10.64-41.14 2.14-14.4 2.78-25.8 3.53-44.78 0.18-4.57 2.49-11.74 7.59-9.58 5.62 2.38 9.92 12.3 7.54 26.19 -2.67 15.55-12.3 58.33-26.85 70.17 1.25-1.07 16.13-1.12 30-44.28 5.95-18.53 5.18-34.22 3.36-54.41 -0.41-4.52 2.43-12.91 8.56-10.37 6.66 2.76 10.29 13.89 9.92 25.4 -1.73 53.96-31.39 79.71-49.26 87.32 1.53-0.1 3.06-0.2 4.58-0.38 15.05-1.78 27.62-12.89 37.54-23.67 4.78-5.2 7.76-8.97 10.98-15.14 2.96-5.67 10.05-5.89 11.55-4.32 2.44 2.56-1.42 11.14-11.59 25.74 -2.57 2.4-6.43 5.72-11.56 9.03C405.23 156.1 389.54 160.48 375.62 162.12z"/>
</svg>
