<svg xmlns:i="http://ns.adobe.com/AdobeIllustrator/10.0/" xmlns="http://www.w3.org/2000/svg" version="1.1" x="0" y="0" viewBox="0 0 60 27" enable-background="new 0 0 60 27" xml:space="preserve">
  <path fill="#5975C7" d="M49.42 9.08c0 0 0.22-3.97-1.4-7.17 -0.47-0.92-1.44-1.49-2.47-1.45 -3.07 0.12-10.1 1.04-15.59 6.52 -0.35 0.35-0.39 0.91-0.09 1.31 0.67 0.89 1.59 2.69 0.6 5.01L49.42 9.08z"/>
  <path d="M46.2 2.16c0 0 0.34 0.33 0.69 0.95 0.35 0.61 0.68 1.51 0.83 2.44 0.07 0.47 0.11 0.94 0.1 1.38 -0.01 0.44-0.04 0.85-0.11 1.19 -0.12 0.69-0.29 1.13-0.29 1.13s-0.02-0.12-0.03-0.32c-0.01-0.2-0.03-0.49-0.06-0.83 -0.02-0.34-0.06-0.73-0.1-1.15 -0.05-0.42-0.1-0.86-0.17-1.29 -0.14-0.88-0.34-1.74-0.52-2.39C46.36 2.6 46.2 2.16 46.2 2.16z"/>
  <path d="M44.51 2.16c0 0 0.34 0.33 0.69 0.95 0.35 0.61 0.68 1.51 0.83 2.44 0.07 0.47 0.11 0.94 0.1 1.38 -0.01 0.44-0.04 0.85-0.11 1.19 -0.12 0.69-0.29 1.13-0.29 1.13s-0.02-0.12-0.03-0.32c-0.01-0.2-0.03-0.49-0.06-0.83 -0.02-0.34-0.06-0.73-0.1-1.15 -0.05-0.42-0.1-0.86-0.17-1.29 -0.14-0.88-0.34-1.74-0.52-2.39C44.67 2.6 44.51 2.16 44.51 2.16z"/>
  <path d="M42.83 2.16c0 0 0.34 0.33 0.69 0.95 0.35 0.61 0.68 1.51 0.83 2.44 0.07 0.47 0.11 0.94 0.1 1.38 -0.01 0.44-0.04 0.85-0.11 1.19 -0.12 0.69-0.29 1.13-0.29 1.13s-0.02-0.12-0.03-0.32c-0.01-0.2-0.03-0.49-0.06-0.83 -0.02-0.34-0.06-0.73-0.1-1.15 -0.05-0.42-0.1-0.86-0.17-1.29 -0.14-0.88-0.34-1.74-0.52-2.39C42.99 2.6 42.83 2.16 42.83 2.16z"/>
  <path d="M41.14 2.44c0 0 0.34 0.33 0.69 0.95 0.35 0.61 0.68 1.51 0.83 2.44 0.07 0.47 0.11 0.94 0.1 1.38 -0.01 0.44-0.04 0.85-0.11 1.19 -0.12 0.69-0.29 1.13-0.29 1.13s-0.02-0.12-0.03-0.32c-0.01-0.2-0.03-0.49-0.06-0.83 -0.02-0.34-0.06-0.73-0.1-1.15 -0.05-0.42-0.1-0.86-0.17-1.29 -0.14-0.88-0.34-1.74-0.52-2.39C41.3 2.88 41.14 2.44 41.14 2.44z"/>
  <path d="M39.45 2.72c0 0 0.34 0.33 0.69 0.95 0.35 0.61 0.68 1.51 0.83 2.44 0.07 0.47 0.11 0.94 0.1 1.38 -0.01 0.44-0.04 0.85-0.11 1.19 -0.12 0.69-0.29 1.13-0.29 1.13s-0.02-0.12-0.03-0.32c-0.01-0.2-0.03-0.49-0.06-0.83 -0.02-0.34-0.06-0.73-0.1-1.15 -0.05-0.42-0.1-0.86-0.17-1.29 -0.14-0.88-0.34-1.74-0.52-2.39C39.61 3.16 39.45 2.72 39.45 2.72z"/>
  <path d="M38.04 3.28c0 0 0.34 0.33 0.69 0.95 0.35 0.61 0.68 1.51 0.83 2.44 0.07 0.47 0.11 0.94 0.1 1.38 -0.01 0.44-0.04 0.85-0.11 1.19 -0.12 0.69-0.29 1.13-0.29 1.13s-0.02-0.12-0.03-0.32c-0.01-0.2-0.03-0.49-0.06-0.83 -0.02-0.34-0.06-0.73-0.1-1.15 -0.05-0.42-0.1-0.86-0.17-1.29 -0.14-0.88-0.34-1.74-0.52-2.39C38.2 3.72 38.04 3.28 38.04 3.28z"/>
  <path d="M36.36 3.84c0 0 0.34 0.33 0.69 0.95 0.35 0.61 0.68 1.51 0.83 2.44 0.07 0.47 0.11 0.94 0.1 1.38 -0.01 0.44-0.04 0.85-0.11 1.19 -0.12 0.69-0.29 1.13-0.29 1.13s-0.02-0.12-0.03-0.32c-0.01-0.2-0.03-0.49-0.06-0.83 -0.02-0.34-0.06-0.73-0.1-1.15 -0.05-0.42-0.1-0.86-0.17-1.29 -0.14-0.88-0.34-1.74-0.52-2.39C36.52 4.28 36.36 3.84 36.36 3.84z"/>
  <path d="M34.67 4.69c0 0 0.34 0.33 0.69 0.95 0.35 0.61 0.68 1.51 0.83 2.44 0.07 0.47 0.11 0.94 0.1 1.38 -0.01 0.44-0.04 0.85-0.11 1.19 -0.12 0.69-0.29 1.13-0.29 1.13s-0.02-0.12-0.03-0.32c-0.01-0.2-0.03-0.49-0.06-0.83 -0.02-0.34-0.06-0.73-0.1-1.15 -0.05-0.42-0.1-0.86-0.17-1.29 -0.14-0.88-0.34-1.74-0.52-2.39C34.83 5.13 34.67 4.69 34.67 4.69z"/>
  <path d="M32.98 5.53c0 0 0.34 0.33 0.69 0.95 0.35 0.61 0.68 1.51 0.83 2.44 0.07 0.47 0.11 0.94 0.1 1.38 -0.01 0.44-0.04 0.85-0.11 1.19 -0.12 0.69-0.29 1.13-0.29 1.13s-0.02-0.12-0.03-0.32c-0.01-0.2-0.03-0.49-0.06-0.83 -0.02-0.34-0.06-0.73-0.1-1.15 -0.05-0.42-0.1-0.86-0.17-1.29 -0.14-0.88-0.34-1.74-0.52-2.39C33.14 5.97 32.98 5.53 32.98 5.53z"/>
  <path d="M31.29 6.66c0 0 0.34 0.33 0.69 0.95 0.35 0.61 0.68 1.51 0.83 2.44 0.07 0.47 0.11 0.94 0.1 1.38 -0.01 0.44-0.04 0.85-0.11 1.19 -0.12 0.69-0.29 1.13-0.29 1.13s-0.02-0.12-0.03-0.32c-0.01-0.2-0.03-0.49-0.06-0.83 -0.02-0.34-0.06-0.73-0.1-1.15 -0.05-0.42-0.1-0.86-0.17-1.29 -0.14-0.88-0.34-1.74-0.52-2.39C31.45 7.1 31.29 6.66 31.29 6.66z"/>
  <path fill="#5975C7" d="M21.24 13.32l5.83-1.41c-1.01-4.18-5.22-6.74-9.4-5.73 -1.03 0.25-1.97 0.7-2.77 1.29C17.9 7.94 20.47 10.17 21.24 13.32z"/>
  <path fill="#223482" d="M41.3 5.95c14 0 18.5 10.97 18.5 10.97s-1.29 0.99-3.34 2.25c0.83 0.67 1.31 1.11 1.31 1.11s-4.71 7.73-16.79 6.68C33.49 26.31 6.21 16.92 6.21 16.92S32.64 5.95 41.3 5.95z"/>
  <path fill="#3B5DA0" d="M59.8 16.92c0 0-1.29 0.99-3.34 2.25 0.83 0.67 1.31 1.11 1.31 1.11s-2.89 4.75-9.96 6.3c-1.19-2.19-1.88-4.79-1.88-7.59 0-4.54 1.82-8.57 4.63-11.12C57.37 11.01 59.8 16.92 59.8 16.92z"/>
  <g class="phin"><path fill="#2F46AD" d="M0.2 25.42l12.01-8.91L0.2 7.59C2.92 13.22 2.92 19.79 0.2 25.42z"/></g>
  <path fill="#5975C7" d="M26.02 18.42l5.77 1.65c-1.18 4.14-5.49 6.53-9.63 5.35 -1.02-0.29-1.94-0.78-2.72-1.4C22.47 23.66 25.13 21.54 26.02 18.42z"/>
  <circle fill="#BCDFED" cx="52.64" cy="14.38" r="2.05"/>
  <circle fill="#363B3D" cx="52.64" cy="14.38" r="0.98"/>
</svg>
