<svg xmlns:i="http://ns.adobe.com/AdobeIllustrator/10.0/" xmlns="http://www.w3.org/2000/svg" version="1.1" x="0" y="0" viewBox="0 0 119 53" enable-background="new 0 0 119 53" xml:space="preserve">
  <path fill="#599AC7" d="M20.74 17.16c0 0-0.44-7.91 2.8-14.29 0.94-1.84 2.87-2.97 4.93-2.89 6.12 0.24 20.13 2.07 31.08 12.99 0.71 0.7 0.79 1.82 0.19 2.62 -1.34 1.78-3.16 5.36-1.19 9.99L20.74 17.16z"/>
  <path d="M27.16 3.35c0 0-0.29 0.89-0.65 2.19 -0.17 0.65-0.37 1.41-0.54 2.22 -0.1 0.4-0.17 0.83-0.25 1.25 -0.09 0.43-0.15 0.87-0.23 1.3 -0.14 0.87-0.25 1.75-0.35 2.58 -0.03 0.42-0.07 0.82-0.11 1.2 -0.04 0.38-0.05 0.75-0.09 1.09 -0.02 0.34-0.07 0.65-0.08 0.93 -0.01 0.28-0.04 0.52-0.05 0.72 -0.04 0.4-0.07 0.64-0.07 0.64s-0.08-0.22-0.2-0.61c-0.12-0.39-0.3-0.95-0.4-1.64 -0.05-0.34-0.14-0.72-0.15-1.12 -0.03-0.4-0.07-0.82-0.07-1.26 0.01-0.44 0-0.89 0.04-1.35 0.05-0.46 0.09-0.93 0.16-1.39 0.09-0.46 0.16-0.93 0.29-1.37 0.11-0.45 0.25-0.88 0.4-1.3 0.28-0.83 0.64-1.58 0.99-2.19C26.46 4 27.16 3.35 27.16 3.35z"/>
  <path d="M30.52 3.35c0 0-0.29 0.89-0.65 2.19 -0.17 0.65-0.37 1.41-0.54 2.22 -0.1 0.4-0.17 0.83-0.25 1.25 -0.09 0.43-0.15 0.87-0.23 1.3 -0.14 0.87-0.25 1.75-0.35 2.58 -0.03 0.42-0.07 0.82-0.11 1.2 -0.04 0.38-0.05 0.75-0.09 1.09 -0.02 0.34-0.07 0.65-0.08 0.93 -0.01 0.28-0.04 0.52-0.05 0.72 -0.04 0.4-0.07 0.64-0.07 0.64s-0.08-0.22-0.2-0.61c-0.12-0.39-0.3-0.95-0.4-1.64 -0.05-0.34-0.14-0.72-0.15-1.12 -0.03-0.4-0.07-0.82-0.07-1.26 0.01-0.44 0-0.89 0.04-1.35 0.05-0.46 0.09-0.93 0.16-1.39 0.09-0.46 0.16-0.93 0.29-1.37 0.11-0.45 0.25-0.88 0.4-1.3 0.28-0.83 0.64-1.58 0.99-2.19C29.82 4 30.52 3.35 30.52 3.35z"/>
  <path d="M33.89 3.35c0 0-0.29 0.89-0.65 2.19 -0.17 0.65-0.37 1.41-0.54 2.22 -0.1 0.4-0.17 0.83-0.25 1.25 -0.09 0.43-0.15 0.87-0.23 1.3 -0.14 0.87-0.25 1.75-0.35 2.58 -0.03 0.42-0.07 0.82-0.11 1.2 -0.04 0.38-0.05 0.75-0.09 1.09 -0.02 0.34-0.07 0.65-0.08 0.93 -0.01 0.28-0.04 0.52-0.05 0.72 -0.04 0.4-0.07 0.64-0.07 0.64s-0.08-0.22-0.2-0.61c-0.12-0.39-0.3-0.95-0.4-1.64 -0.05-0.34-0.14-0.72-0.15-1.12 -0.03-0.4-0.07-0.82-0.07-1.26 0.01-0.44 0-0.89 0.04-1.35 0.05-0.46 0.09-0.93 0.16-1.39 0.09-0.46 0.16-0.93 0.29-1.37 0.11-0.45 0.25-0.88 0.4-1.3 0.28-0.83 0.64-1.58 0.99-2.19C33.19 4 33.89 3.35 33.89 3.35z"/>
  <path d="M37.25 3.91c0 0-0.29 0.89-0.65 2.19 -0.17 0.65-0.37 1.41-0.54 2.22 -0.1 0.4-0.17 0.83-0.25 1.25 -0.09 0.43-0.15 0.87-0.23 1.3 -0.14 0.87-0.25 1.75-0.35 2.58 -0.03 0.42-0.07 0.82-0.11 1.2 -0.04 0.38-0.05 0.75-0.09 1.09 -0.02 0.34-0.07 0.65-0.08 0.93 -0.01 0.28-0.04 0.52-0.05 0.72 -0.04 0.4-0.07 0.64-0.07 0.64s-0.08-0.22-0.2-0.61c-0.12-0.39-0.3-0.95-0.4-1.64 -0.05-0.34-0.14-0.72-0.15-1.12 -0.03-0.4-0.07-0.82-0.07-1.26 0.01-0.44 0-0.89 0.04-1.35 0.05-0.46 0.09-0.93 0.16-1.39 0.09-0.46 0.16-0.93 0.29-1.37 0.11-0.45 0.25-0.88 0.4-1.3 0.28-0.83 0.64-1.58 0.99-2.19C36.55 4.56 37.25 3.91 37.25 3.91z"/>
  <path d="M40.62 4.47c0 0-0.29 0.89-0.65 2.19 -0.17 0.65-0.37 1.41-0.54 2.22 -0.1 0.4-0.17 0.83-0.25 1.25 -0.09 0.43-0.15 0.87-0.23 1.3 -0.14 0.87-0.25 1.75-0.35 2.58 -0.03 0.42-0.07 0.82-0.11 1.2 -0.04 0.38-0.05 0.75-0.09 1.09 -0.02 0.34-0.07 0.65-0.08 0.93 -0.01 0.28-0.04 0.52-0.05 0.72 -0.04 0.4-0.07 0.64-0.07 0.64s-0.08-0.22-0.2-0.61c-0.12-0.39-0.3-0.95-0.4-1.64 -0.05-0.34-0.14-0.72-0.15-1.12 -0.03-0.4-0.07-0.82-0.07-1.26 0.01-0.44 0-0.89 0.04-1.35 0.05-0.46 0.09-0.93 0.16-1.39 0.09-0.46 0.16-0.93 0.29-1.37 0.11-0.45 0.25-0.88 0.4-1.3 0.28-0.83 0.64-1.58 0.99-2.19C39.92 5.12 40.62 4.47 40.62 4.47z"/>
  <path d="M43.42 5.6c0 0-0.29 0.89-0.65 2.19 -0.17 0.65-0.37 1.41-0.54 2.22 -0.1 0.4-0.17 0.83-0.25 1.25 -0.09 0.43-0.15 0.87-0.23 1.3 -0.14 0.87-0.25 1.75-0.35 2.58 -0.03 0.42-0.07 0.82-0.11 1.2 -0.04 0.38-0.05 0.75-0.09 1.09 -0.02 0.34-0.07 0.65-0.08 0.93 -0.01 0.28-0.04 0.52-0.05 0.72 -0.04 0.4-0.07 0.64-0.07 0.64s-0.08-0.22-0.2-0.61c-0.12-0.39-0.3-0.95-0.4-1.64 -0.05-0.34-0.14-0.72-0.15-1.12 -0.03-0.4-0.07-0.82-0.07-1.26 0.01-0.44 0-0.89 0.04-1.35 0.05-0.46 0.09-0.93 0.16-1.39 0.09-0.46 0.16-0.93 0.29-1.37 0.11-0.45 0.25-0.88 0.4-1.3 0.28-0.83 0.64-1.58 0.99-2.19C42.72 6.25 43.42 5.6 43.42 5.6z"/>
  <path d="M46.79 6.72c0 0-0.29 0.89-0.65 2.19 -0.17 0.65-0.37 1.41-0.54 2.22 -0.1 0.4-0.17 0.83-0.25 1.25 -0.09 0.43-0.15 0.87-0.23 1.3 -0.14 0.87-0.25 1.75-0.35 2.58 -0.03 0.42-0.07 0.82-0.11 1.2 -0.04 0.38-0.05 0.75-0.09 1.09 -0.02 0.34-0.07 0.65-0.08 0.93 -0.01 0.28-0.04 0.52-0.05 0.72 -0.04 0.4-0.07 0.64-0.07 0.64s-0.08-0.22-0.2-0.61c-0.12-0.39-0.3-0.95-0.4-1.64 -0.05-0.34-0.14-0.72-0.15-1.12 -0.03-0.4-0.07-0.82-0.07-1.26 0.01-0.44 0-0.89 0.04-1.35 0.05-0.46 0.09-0.93 0.16-1.39 0.09-0.46 0.16-0.93 0.29-1.37 0.11-0.45 0.25-0.88 0.4-1.3 0.28-0.83 0.64-1.58 0.99-2.19C46.09 7.37 46.79 6.72 46.79 6.72z"/>
  <path d="M50.15 8.4c0 0-0.29 0.89-0.65 2.19 -0.17 0.65-0.37 1.41-0.54 2.22 -0.1 0.4-0.17 0.83-0.25 1.25 -0.09 0.43-0.15 0.87-0.23 1.3 -0.14 0.87-0.25 1.75-0.35 2.58 -0.03 0.42-0.07 0.82-0.11 1.2 -0.04 0.38-0.05 0.75-0.09 1.09 -0.02 0.34-0.07 0.65-0.08 0.93 -0.01 0.28-0.04 0.52-0.05 0.72 -0.04 0.4-0.07 0.64-0.07 0.64s-0.08-0.22-0.2-0.61c-0.12-0.39-0.3-0.95-0.4-1.64 -0.05-0.34-0.14-0.72-0.15-1.12 -0.03-0.4-0.07-0.82-0.07-1.26 0.01-0.44 0-0.89 0.04-1.35 0.05-0.46 0.09-0.93 0.16-1.39 0.09-0.46 0.16-0.93 0.29-1.37 0.11-0.45 0.25-0.88 0.4-1.3 0.28-0.83 0.64-1.58 0.99-2.19C49.45 9.05 50.15 8.4 50.15 8.4z"/>
  <path d="M53.52 10.08c0 0-0.29 0.89-0.65 2.19 -0.17 0.65-0.37 1.41-0.54 2.22 -0.1 0.4-0.17 0.83-0.25 1.25 -0.09 0.43-0.15 0.87-0.23 1.3 -0.14 0.87-0.25 1.75-0.35 2.58 -0.03 0.42-0.07 0.82-0.11 1.2 -0.04 0.38-0.05 0.75-0.09 1.09 -0.02 0.34-0.07 0.65-0.08 0.93 -0.01 0.28-0.04 0.52-0.05 0.72 -0.04 0.4-0.07 0.64-0.07 0.64s-0.08-0.22-0.2-0.61c-0.12-0.39-0.3-0.95-0.4-1.64 -0.05-0.34-0.14-0.72-0.15-1.12 -0.03-0.4-0.07-0.82-0.07-1.26 0.01-0.44 0-0.89 0.04-1.35 0.05-0.46 0.09-0.93 0.16-1.39 0.09-0.46 0.16-0.93 0.29-1.37 0.11-0.45 0.25-0.88 0.4-1.3 0.28-0.83 0.64-1.58 0.99-2.19C52.82 10.73 53.52 10.08 53.52 10.08z"/>
  <path d="M56.88 12.33c0 0-0.29 0.89-0.65 2.19 -0.17 0.65-0.37 1.41-0.54 2.22 -0.1 0.4-0.17 0.83-0.25 1.25 -0.09 0.43-0.15 0.87-0.23 1.3 -0.14 0.87-0.25 1.75-0.35 2.58 -0.03 0.42-0.07 0.82-0.11 1.2 -0.04 0.38-0.05 0.75-0.09 1.09 -0.02 0.34-0.07 0.65-0.08 0.93 -0.01 0.28-0.04 0.52-0.05 0.72 -0.04 0.4-0.07 0.64-0.07 0.64s-0.08-0.22-0.2-0.61c-0.12-0.39-0.3-0.95-0.4-1.64 -0.05-0.34-0.14-0.72-0.15-1.12 -0.03-0.4-0.07-0.82-0.07-1.26 0.01-0.44 0-0.89 0.04-1.35 0.05-0.46 0.09-0.93 0.16-1.39 0.09-0.46 0.16-0.93 0.29-1.37 0.11-0.45 0.25-0.88 0.4-1.3 0.28-0.83 0.64-1.58 0.99-2.19C56.18 12.98 56.88 12.33 56.88 12.33z"/>
  <path fill="#599AC7" d="M76.93 25.6l-11.62-2.82c2.02-8.33 10.42-13.45 18.75-11.42 2.06 0.5 3.92 1.39 5.53 2.57C83.59 14.88 78.46 19.33 76.93 25.6z"/>
  <path fill="#114370" d="M36.93 10.91C9.02 10.91 0.05 32.78 0.05 32.78s2.58 1.97 6.67 4.49c-1.66 1.33-2.61 2.21-2.61 2.21s9.38 15.41 33.48 13.33c14.91-1.29 69.32-20.02 69.32-20.02S54.2 10.91 36.93 10.91z"/>
  <path fill="#3B7FA0" d="M0.05 32.78c0 0 2.58 1.97 6.67 4.49 -1.66 1.33-2.61 2.21-2.61 2.21s5.77 9.46 19.86 12.55c2.37-4.36 3.76-9.55 3.76-15.14 0-9.04-3.62-17.08-9.22-22.17C4.89 21 0.05 32.78 0.05 32.78z"/>
  <g class="phin"><path fill="#2F6AAD" d="M118.87 49.73l-23.94-17.77 23.94-17.77C113.44 25.41 113.44 38.5 118.87 49.73z"/></g>
  <path fill="#599AC7" d="M67.39 35.78l-11.5 3.29c2.36 8.24 10.95 13.01 19.2 10.66 2.04-0.58 3.86-1.55 5.42-2.79C74.48 46.23 69.17 41.99 67.39 35.78z"/>
  <circle fill="#BCEDEB" cx="14.33" cy="27.72" r="4.09"/>
  <circle fill="#363D3C" cx="14.33" cy="27.72" r="1.95"/>
</svg>
