<svg xmlns="http://www.w3.org/2000/svg" version="1.1" x="0" y="0" viewBox="0 0 1723 192" xml:space="preserve" enable-background="new 0 0 1723 192"><style>.s0{fill:#D8EEE6;opacity:0.5;}</style><g class="cloud1"><polygon points="1287.7 86.9 1272.7 86.9 1262.3 97.2 1281.7 116.7 1295 116.7 1305.7 127.5 1375.4 127.5 1392.1 110.8 1499.5 110.8 1514 96.2 1497.9 80.1 1480.8 80.1 1462.1 61.4 1452.8 61.4 1439 47.7 1384.8 47.7 1364.7 67.8 1306.4 67.8 " class="s0"/></g><g class="cloud1"><polygon points="1396.7 121.1 1384.8 133.1 1402.7 151 1460.5 151 1471.3 140.2 1450.9 121.1 " class="s0"/></g><g class="cloud2"><polygon points="9.8 63 0.8 72 14.3 85.6 58 85.6 66.2 77.4 50.8 63 " class="s0"/></g><g class="cloud1"><polygon points="219 162 207.1 174 225 191.9 282.9 191.9 293.6 181.1 273.3 162 " class="s0"/></g><g class="cloud2"><polygon points="78.7 25.1 42.4 25.1 28.6 38.8 38 48.2 94.8 48.2 100.9 54.2 144.6 54.2 158.7 40.2 128.3 9.8 91.2 9.8 " class="s0"/></g><g class="cloud1"><polygon points="1042.6 53.6 1033.6 62.7 1047.1 76.2 1090.9 76.2 1099 68.1 1083.6 53.6 " class="s0"/></g><g class="cloud2"><polygon points="597.7 42.4 588.7 51.4 602.3 64.9 646 64.9 654.1 56.8 638.7 42.4 " class="s0"/></g><g class="cloud1"><polygon points="1665.5 24.8 1656.4 33.8 1670 47.3 1713.7 47.3 1721.9 39.2 1706.5 24.8 " class="s0"/></g><g class="cloud2"><polygon points="1111.5 15.7 1075.2 15.7 1061.4 29.4 1070.8 38.8 1127.6 38.8 1133.7 44.9 1177.4 44.9 1191.5 30.8 1161.1 0.4 1124 0.4 " class="s0"/></g><g class="cloud1"><polygon points="424.3 109 412.3 120.9 430.2 138.8 488.1 138.8 498.9 128 478.5 109 " class="s0"/></g><g class="cloud2"><polygon points="439.3 51.5 427.5 38.3 362.5 38.3 314 86.9 336 109 412.9 109 420.4 101.4 533.8 101.4 547.2 88.1 529.9 70.8 498 70.8 478.6 51.5 " class="s0"/></g></svg>