<svg xmlns:i="http://ns.adobe.com/AdobeIllustrator/10.0/" xmlns="http://www.w3.org/2000/svg" version="1.1" x="0" y="0" viewBox="0 0 21 16.5" enable-background="new 0 0 21 16.5" xml:space="preserve">
  <g class="fishphin">
    <path fill="#E8A514" d="M20.88 11.73c-2.74 0-6.12-1.85-6.12-3.48s3.38-3.48 6.12-3.48C19.7 6.94 19.7 9.56 20.88 11.73z"/>
  </g>
  <path opacity="0.13" enable-background="new    " d="M20.88 11.73c-2.74 0-6.12-1.85-6.12-3.48s3.38-3.48 6.12-3.48C19.7 6.94 19.7 9.56 20.88 11.73z"/>
  <path fill="#E8A514" d="M17.82 0.09c-5.29 0-9.55 0.88-12.68 3.74 -1.2 1.1-2.29 2.29-3.91 2.2 0 0 0.66 0.04 0 0C0.86 6.01 0.53 6.21 0.38 6.54c-0.01 0.02-0.01 0.03-0.02 0.05C0.25 6.83 0.25 7.1 0.36 7.34s0.32 0.42 0.57 0.49C1.48 7.98 2.18 8.16 2.82 8.32 1.91 8.61 1.52 8.97 1.43 9.05c-0.27 0.27-0.27 0.71 0 0.98 0.13 0.13 0.31 0.21 0.49 0.21 0.17 0 0.34-0.07 0.48-0.2 0 0 0.03-0.03 0.09-0.07 0.56-0.36 1.31-0.2 1.68 0.35 2.08 3.16 8.38 6.09 13.66 6.09C15.05 11.32 15.05 5.17 17.82 0.09z"/>
  <g opacity="0.41">
    <path d="M9.33 1.31C8.42 1.64 7.57 2.06 6.78 2.57 6.26 5.91 6.17 9.3 6.5 12.65c0.74 0.55 1.59 1.06 2.5 1.52C8.39 9.9 8.49 5.55 9.33 1.31z"/>
    <path d="M13.86 0.29c-0.85 0.1-1.66 0.23-2.44 0.41 -0.96 4.75-1.06 9.63-0.29 14.41 0.81 0.3 1.64 0.56 2.48 0.76C12.62 10.72 12.7 5.41 13.86 0.29z"/>
  </g>
  <circle cx="6.6" cy="6.06" r="1.22"/>
  <circle fill="#FFFFFF" cx="6.31" cy="5.81" r="0.44"/>
  <g opacity="0.13">
    <path d="M0.37 7.35C0.48 7.58 0.68 7.75 0.92 7.82c0.27 0.08 0.57 0.16 0.88 0.24C1.28 7.84 0.8 7.61 0.37 7.35z"/>
    <path d="M20.01 7.81c-2.32 1.08-5.66 1.76-9.39 1.76 -3.03 0-5.8-0.45-7.98-1.2C1.86 8.65 1.51 8.97 1.43 9.05c-0.27 0.27-0.27 0.71 0 0.98 0.13 0.13 0.31 0.21 0.49 0.21 0.17 0 0.34-0.07 0.48-0.2 0 0 0.03-0.03 0.09-0.07 0.56-0.36 1.31-0.2 1.68 0.35 2.08 3.16 8.38 6.09 13.66 6.09 -1.1-2.03-1.77-4.23-1.99-6.46 1.22 1 3.27 1.78 5.05 1.78C20.22 10.51 19.93 9.15 20.01 7.81z"/>
  </g>
</svg>
