<?xml version="1.0" encoding="utf-8"?>
<!-- Generator: Adobe Illustrator 18.1.1, SVG Export Plug-In . SVG Version: 6.00 Build 0)  -->
<svg version="1.1" id="Layer_1" xmlns="http://www.w3.org/2000/svg" xmlns:xlink="http://www.w3.org/1999/xlink" x="0px" y="0px"
	 viewBox="0 0 310 144" enable-background="new 0 0 310 144" xml:space="preserve">
  <g>
    <g>
      <path fill="#F6BF6B" d="M308.677,144H-0.107c0,0,69.124-39.798,154.392-39.798S308.677,144,308.677,144z"/>
    </g>
    <path fill="#6B845D" d="M192.656,119H64c0,0,28.801-32.199,64.328-32.199S192.656,119,192.656,119z"/>
    <path fill="#6B845D" d="M187.75,86.801c0,0-12.286-28.901,7.399-46.281c0,0,2.602,4.357,1.726,5.167
		c0.96-0.995,2.166-3.305,0.078-5.499c0,0,2.573,2.669,0.567,8.053c0,0,3.247-0.475,2.549-7.642
		c-0.184-1.886-0.671-1.728-0.671-1.728s4.57,2.466,6.876,2.447c0,0-1.576-3.697-7.488-4.467c0,0,2.215-0.352,8.715-0.727
		c0,0-3.438-3.375-10.925-1.239c0,0-0.575-2.886,2.05-3.824c0,0-3.635-2.21-3.792,3.836c0,0-4.572-1.547-8.175,0.118
		c-3.603,1.665-4.078,2.377-4.078,2.377s8.526-2.587,11.904-0.026c0,0-5.452-0.867-7.422,1.008c0,0-1.04,0.956-1.938,3.625
		c0,0,1.972-1.896,9.676-2.498c0,0-19.051,11.623-9.788,48.017C185.013,87.519,185.427,86.705,187.75,86.801z"/>
    <path fill="#7A956A" d="M250.201,125H84c0,0,37.205-41.596,83.101-41.596S250.201,125,250.201,125z"/>
    <path fill="#6B845D" d="M194.983,108.899c0,0,1.211-63.028,33.027-91.117c0,0,1.416,6.789,0,8.099c0,0,3.706-2.411,2.915-8.634
		c0,0,4.158,4.313,0.916,13.015c0,0,5.247-0.768,4.119-12.351c-0.297-3.047-1.084-2.793-1.084-2.793s7.386,3.985,11.112,3.955
		c0,0-2.547-5.975-12.102-7.219c0,0,9.884-2.116,12.174-4.588c0,0-4.093-3.11-15.747,1.411c0,0,0.163-6.144,2.423-8.277
		c0,0-4.985-1.475-5.237,8.296c0,0-7.389-2.5-13.212,0.19s-6.591,3.842-6.591,3.842s13.779-4.181,19.239-0.043
		c0,0-9.583-2.539-15.157,3.323c0,0-2.676,2.127-4.126,6.441c0,0,7.344-6.957,19.794-7.929c0,0-27.24,18.49-37.843,83.543
		c0,0-1.284,6.827,0,9.292C189.603,107.356,191.229,108.745,194.983,108.899z"/>
  </g>
</svg>
