<svg xmlns="http://www.w3.org/2000/svg" xmlns:xlink="http://www.w3.org/1999/xlink" version="1.1" id="Layer_1" x="0" y="0" viewBox="0 0 600 1035" enable-background="new 0 0 600 1035" xml:space="preserve">
  <polygon fill="#51361C" points="487.75 0 584.22 47.44 584.22 0 "/>
  <path fill="#403829" d="M8 1035c0 0 116.78-49.87 193.51-51.1S334.51 1035 334.51 1035s58.3-53.99 89.68-53.37S503.05 1035 503.05 1035H8z"/>
  <path fill="#513A21" d="M111.94 0c-11.44 15.94 0 55.86 0 55.86S144.91 18.06 174.2 0C122.22 0 111.94 0 111.94 0z"/>
  <path fill="#47321B" d="M600 176.3C526.73 32.58 504.38 0 504.38 0s0 0-37.37 0C538.82 118.63 554.82 129.87 600 248.61V176.3z"/>
  <path fill="#61462B" d="M600 81.68C553.45-11.33 557.06 0 557.06 0s0 0-10.34 0C578.41 43.69 567.39 27.98 600 99.62V81.68z"/>
  <path fill="#61462B" d="M417.59 53.43l12.6-2.06C443.23 22.15 450.33 0 450.33 0H342.05c0 0 46.67 65.42 56.4 111.73 11.44-18.26 21.19-37.32 29.05-54.42L417.59 53.43z"/>
  <path fill="#61462B" d="M190.84 0c0 0-3.9 9.6-6.94 24.88l18.59 5.98h-19.68c-3.09 18.71-4.34 44.01 3.02 70.34C250.15 31.61 310.35 0 310.35 0H190.84z"/>
  <path fill="#1A1013" d="M538.15 58.46l-27.26 12.39c0.38 0.66 0.78 1.19 1.16 1.85l27.18-12.25C538.86 59.78 538.51 59.11 538.15 58.46z"/>
  <path fill="#1A1013" d="M543.58 68.44c-0.38-0.7-0.78-1.46-1.17-2.15l-20.38 22.36c0.39 0.69 0.85 1.3 1.24 1.99L543.58 68.44z"/>
  <path fill="#1A1013" d="M561.33 101.66l-28.61 4.37c0.38 0.7 0.89 1.4 1.27 2.11l28.48-4.3C562.1 103.12 561.7 102.35 561.33 101.66z"/>
  <path fill="#1A1013" d="M477.17 16.67c10.12-1.38 23.77-2.7 35.11-3.92 -0.43-0.75-1.27-2.1-1.67-2.78 -9.62 1.04-23.74 3.08-34.79 4.61C476.27 15.27 476.72 15.97 477.17 16.67z"/>
  <path fill="#1A1013" d="M520.7 27.2c-0.43-0.75-0.85-1.48-1.26-2.21L500.77 54.73c0.43 0.72 1.14 1.78 1.57 2.5L520.7 27.2z"/>
  <path fill="#1A1013" d="M571.84 165.64c5.38-7.62 9.67-13.74 13.12-18.68 -0.39-0.75-0.78-1.51-1.17-2.26 -4.35 6.26-9.29 13.26-13.79 19.64 -1.93 2.74-1.51 2.13-3.21 4.55 0.38 0.77 0.73 1.58 1.1 2.35C569.94 168.33 569.82 168.52 571.84 165.64z"/>
  <path fill="#1A1013" d="M600 205.17c0-0.94 0.02-1.55 0-2.36 -10.5 1.36-7.27 0.82-17.4 1.88 0.34 0.73 0.64 1.64 0.98 2.37C594.44 205.93 590.52 206.42 600 205.17z"/>
  <path fill="#362311" d="M484.37 1035c0 0-147.19-50.81-141.27-81.89 5.92-31.08 164.99 30.88 164.99 30.88S408.3 877.95 423.89 844.7c15.59-33.25 114.55 89.59 114.55 89.59s-68.05-251.73-53.27-271.36c14.78-19.64 88.8 182.77 85.24 181.78 -3.55-0.99 1.18-207.55 29.6-250.49 0 100.18 0 440.79 0 440.79H484.37z"/>
  <path fill="#141010" d="M599.18 1022.04c-43.05-49.75-120.13-123.99-176.48-161.84 0.16 0.82 0.34 1.64 0.55 2.49 56.67 38.43 133.66 112.86 175.94 162.04C599.18 1023.88 599.18 1022.99 599.18 1022.04z"/>
  <path fill="#141010" d="M467.55 981.31c-41.88-18.59-80.61-30.49-115.59-35.61 -1.35 0.34-2.55 0.78-3.62 1.3 72.18 9.91 153.51 48.73 215.09 88h3.27C543.19 1019.9 508.4 999.43 467.55 981.31z"/>
  <path fill="#141010" d="M525.27 1035c-33.23-22.64-108.59-70.21-178.16-87.33 -0.66 0.41-1.22 0.89-1.73 1.39 68.19 16.41 142.38 62.69 176.74 85.94H525.27z"/>
  <path fill="#141010" d="M591.4 612.53c-2.76 66.85 1.12 114.72 7.78 148.94 0-3.32 0-6.62 0-9.91 -5.72-34.31-8.71-81.06-5.77-144.66C592.73 608.67 592.05 610.55 591.4 612.53z"/>
  <path fill="#141010" d="M424.81 868.02c0.39 1.15 0.82 2.31 1.27 3.49 53.03 47.57 123.15 129.13 148.7 163.48h2.18C551.51 1000.55 478.7 915.8 424.81 868.02z"/>
  <path fill="#141010" d="M531.75 911.59c23.22 35.17 48.09 73.6 67.43 104.4 0-1.07 0-2.17 0-3.32 -19.92-31.66-45.35-70.89-68.8-106.32C530.86 908.17 531.32 909.92 531.75 911.59z"/>
  <path fill="#141010" d="M573.76 720.04c6.49 36.73 15.15 75.81 25.42 113.13 0-2.24 0-4.48 0-6.72 -10.11-37.58-18.56-76.69-24.8-113.2C574.17 715.52 573.96 717.78 573.76 720.04z"/>
  <path fill="#141010" d="M599.18 939.35c0-1.16 0-2.33 0-3.51 -54.22-86.22-91.86-160.83-112.67-223.27 0.52 3.23 1.08 6.56 1.68 9.99 10.07 28.55 23.47 59.53 40.17 92.86C552.51 863.63 579.12 907.71 599.18 939.35z"/>
  <path fill="#141010" d="M486.97 662.44c15.07 45.69 33.73 101.74 58 153.92 17.68 37.99 35.63 68.06 54.21 90.73 0-0.93 0-1.87 0-2.8 -18-22.34-35.42-51.74-52.61-88.67 -24.05-51.68-42.58-107.21-57.58-152.67C488.27 662.58 487.59 662.41 486.97 662.44z"/>
  <path fill="#141010" d="M599.18 957.08c0-0.85 0-1.7 0-2.56 -13.73-14.27-31.35-32.77-52.17-54.79 -8.6-9.09-17.07-18.07-25.12-26.61 0.3 1.19 0.59 2.36 0.89 3.53 7.49 7.95 15.1 16.01 22.54 23.88C563.33 919.57 583.11 940.39 599.18 957.08z"/>
</svg>
