<svg xmlns:i="http://ns.adobe.com/AdobeIllustrator/10.0/" xmlns="http://www.w3.org/2000/svg" version="1.1" x="0" y="0" viewBox="0 0 575 1124" enable-background="new 0 0 575 1124" xml:space="preserve">
  <g i:extraneous="self">
    <path fill="#513A21" d="M345.16 0.08c0 0 109.45 61.64 160.14 135.37 16.13-54.15 6.91-135.37 6.91-135.37H345.16z"/>
    <path fill="#432E16" d="M208.06 0.08c0 0-66.18 29.67-126.44 100.56L51.96 82.46l19.58 30.53c-29.04 36.96-55.69 83.94-71.52 142.28 0-109.44 0-255.18 0-255.18H208.06z"/>
    <path fill="#61462B" d="M367.83 92.08c1.76-29.25-1-60.34-9.99-92 -111.75 0-154.38 0-154.38 0s24.49 31.32 50.2 83.93l31.6 1.61 -25.91 10.11c20.52 43.63 39.82 98.17 44.13 154.93 28.46-29.05 56.96-86.54 64.85-146.02l-23.17 4.32L367.83 92.08z"/>
    <path fill="#47321B" d="M0.11 394.79c0 0 39.26-154.55 173.35-394.7 51.46 0 43.13 0 43.13 0S32.76 215.03 0.11 794.43C0.11 693.47 0.11 394.79 0.11 394.79z"/>
    <path fill="#383427" d="M0.11 662.89c0 0 51.45 28.35 79 46.55 7.69 38.89 11 49.4 11 49.4s20.65 4.13 50.23 11.57c1.32 0.33 3.45 2.64 3.99 1.01 0.22-0.67 7.77-1.32 8.46-1.15 24.63 6.32 48.1 16.4 77.16 26.49l0.1 9.95 6.92-7.47c8.78 3.14 18.21 6.69 28.83 11.13 -3.54 62.72-5.64 170.6-5.64 170.6l35.38 27.62 2.43 6.47 2.31 1.54 0.83 5.07 37.76 102.26H0.11V662.89z"/>
    <path fill="#474A3F" d="M265.82 810.32c-7.41-3.1-21.71-9.14-28.78-11.67l-7 8.06 -0.1-9.92c-33.54-11.64-60.63-23.28-89.06-30.57 -0.79-0.2-9.5 0.56-9.76 1.33 -0.63 1.88-3.09-0.79-4.61-1.17 -34.14-8.59-57.97-13.35-57.97-13.35l-26.42 12.09 84.2 4.43 -19.58 13.37c0 0 18.08-4.42 36.09-5.25 18.02-0.83 87.14 22.95 87.14 22.95v20.03"/>
    <path fill="#1A1013" d="M81.54 180.97l36.48 5.57c0.3-0.78 0.61-1.55 0.91-2.33l-36.33-5.55C82.25 179.43 81.89 180.21 81.54 180.97z"/>
    <path fill="#1A1013" d="M79.84 184.72l34.06 12.55c0.29-0.76 0.58-1.52 0.87-2.28l-33.91-12.49C80.51 183.24 80.17 183.98 79.84 184.72z"/>
    <path fill="#1A1013" d="M29.49 305.93c-0.31 0.83-0.61 1.64-0.91 2.46 11.7-0.32 32.64-0.11 48.47 0.13 0.24-0.81 0.47-1.63 0.7-2.43C62.28 305.84 41.68 305.63 29.49 305.93z"/>
    <path fill="#1A1013" d="M82.24 290.87c0.24-0.78 0.47-1.58 0.71-2.36l-43.91-7.53c-0.5 1.27-0.98 2.52-1.47 3.78l41.54 16.67c0.23-0.79 0.46-1.57 0.69-2.35l-37.52-15.06L82.24 290.87z"/>
    <path fill="#1A1013" d="M43.85 444.31L0.11 425.33c0 0.87 0 1.76 0 2.66L43.35 446.75C43.52 445.93 43.68 445.12 43.85 444.31z"/>
    <path fill="#1A1013" d="M6.67 372.2c-0.27 0.87-0.53 1.7-0.78 2.52l54.76-4.91c0.21-0.84 0.42-1.67 0.63-2.51L6.67 372.2z"/>
    <path fill="#1A1013" d="M62.92 360.76c-5.8-2.08-12.73-4.57-19.65-7.02 -13.9-4.92-22.32-7.83-27.49-9.48 -0.26 0.78-0.53 1.56-0.79 2.32 10.05 3.26 29.62 10.17 47.33 16.55C62.52 362.34 62.72 361.55 62.92 360.76z"/>
    <path fill="#1A1013" d="M147.84 47.05l25.65 19.61c0.4-0.72 0.8-1.45 1.2-2.16l-25.69-19.64C148.61 45.6 148.23 46.32 147.84 47.05z"/>
    <path fill="#1A1013" d="M161.36 21.98c-0.39 0.72-0.78 1.43-1.17 2.15l29.47 14.84c0.43-0.7 0.87-1.4 1.29-2.08L161.36 21.98z"/>
    <path fill="#1A1013" d="M133.09 75.15c-0.38 0.73-0.75 1.45-1.12 2.17l27.28 16.26c0.37-0.73 0.74-1.46 1.11-2.18L133.09 75.15z"/>
    <path fill="#1A1013" d="M182.42 0.08c-0.83 0-1.73 0-2.6 0l12.59 34.48c0.56-0.89 1.11-1.75 1.65-2.6L182.42 0.08z"/>
    <path fill="#1A1013" d="M100.35 140.81c-0.35 0.73-0.71 1.47-1.06 2.2l30.48 14.52c0.32-0.75 0.64-1.5 0.95-2.25L100.35 140.81z"/>
    <path fill="#1A1013" d="M91.94 158.52l32.79 11.19c0.31-0.76 0.62-1.51 0.92-2.26l-32.67-11.15C92.63 157.04 92.29 157.78 91.94 158.52z"/>
    <path fill="#1A1013" d="M121.03 98.77l27.38 16.98c0.35-0.74 0.7-1.48 1.06-2.22l-27.33-16.95C121.76 97.32 121.4 98.04 121.03 98.77z"/>
    <path fill="#402B1A" d="M0.32 1023.77c0 0 134.92-293.46 176.83-276.11 41.91 17.34-159.85 301.23-159.85 301.23s100.36-117.91 140.44-97.55c40.08 20.36-82.45 122.26-82.45 122.26s169.35-72.7 188.16-38.52c18.81 34.18-132.4 88.84-132.4 88.84H0.32V1023.77z"/>
    <path fill="#4A331E" d="M342.25 1123.91c0 0 157.9-42.85 171.45-45.8 13.55-2.95 61.78 45.8 61.78 45.8H342.25z"/>
    <path fill="#0D0A0A" d="M23.09 1042.29c-2.62 2.94-4.43 5.02-5.26 5.98 -7.35 15.47-11.05 24.97-17.51 39.84v5.47C8.26 1075.09 13.76 1061.7 23.09 1042.29z"/>
    <path fill="#0D0A0A" d="M12.05 996.53c-3.15 6.44-5.75 11.84-7.72 15.94 49.84-77.29 130.88-203.57 168.5-265.54 0.05-0.08-1.78 0.12-2.79 0.45C134.43 805.94 61.73 919.42 12.05 996.53z"/>
    <path fill="#0D0A0A" d="M177.56 747.85c-11.17 22.56-29.3 55.42-49.02 91.14 -32.77 59.38-74.37 134.74-108.23 205.93 1.18-1.66 3.78-5.36 7.52-10.72 32.74-67.62 71.61-138.05 102.59-194.18 22.29-40.38 38.83-70.52 48.97-90.99 0.03-0.05-1.02-0.86-1.65-1.12C177.69 747.89 177.62 747.87 177.56 747.85z"/>
    <path fill="#0D0A0A" d="M135.78 1120.8c36.64-33 83.79-68.73 129.13-77.71 0.1-0.75 0.13-1.49 0.11-2.22 -47.68 9.25-97.16 47.66-134.64 81.9C130.89 1122.58 132.79 1121.91 135.78 1120.8z"/>
    <path fill="#0D0A0A" d="M172.35 1038.48c-3.61 1.06-7.22 2.15-10.82 3.28 -41.86 23.21-74.7 53.8-99.2 81.06h2.93C91.4 1093.97 126.84 1061.65 172.35 1038.48z"/>
    <path fill="#0D0A0A" d="M217.22 1027.88c-1.74 0.28-3.5 0.57-5.29 0.9 -32.67 21.75-79.51 55.52-111.18 94.04h2.81C136.37 1083.48 184.96 1049.17 217.22 1027.88z"/>
    <path fill="#0D0A0A" d="M118.42 958.25c-1.99 1.09-4 2.27-6.02 3.51 -42.3 48.32-75.95 108.26-101.17 161.06h2.41C39.62 1068.55 74.47 1006.9 118.42 958.25z"/>
    <path fill="#0D0A0A" d="M154.01 949.89c-0.82-0.23-1.66-0.42-2.52-0.56 -51.32 50.49-111.58 116.74-132.46 173.49h2.31C42.43 1066.29 102.83 1000.15 154.01 949.89z"/>
  </g>
</svg>
