<?xml version="1.0" encoding="utf-8"?>
<!-- Generator: Adobe Illustrator 18.1.1, SVG Export Plug-In . SVG Version: 6.00 Build 0)  -->
<svg version="1.1" id="Layer_1" xmlns="http://www.w3.org/2000/svg" xmlns:xlink="http://www.w3.org/1999/xlink" x="0px" y="0px"
	 viewBox="0 0 431 123" enable-background="new 0 0 431 123" xml:space="preserve">
<g>
	<g>
		<g>
			<rect x="40.095" y="0.979" fill-rule="evenodd" clip-rule="evenodd" fill="#BE1E2D" width="0.671" height="17.294"/>
			<path fill-rule="evenodd" clip-rule="evenodd" fill="#EC303C" d="M47.222,19.489v-2.941c0-2.692-2.182-4.875-4.875-4.875h-3.834
				c-2.692,0-4.875,2.182-4.875,4.875v2.941H47.222z"/>
			<path fill-rule="evenodd" clip-rule="evenodd" fill="#E6E7E8" d="M47.192,16.032c-0.076-0.716-0.307-1.385-0.659-1.975H34.328
				c-0.352,0.59-0.582,1.259-0.659,1.975H47.192z"/>
			<path fill="#E6E7E8" d="M45.573,26.715c0-1.419,0.719-2.613,1.703-2.99v-3.094H33.585v2.98c1.225,0.116,2.192,1.46,2.192,3.105
				v4.674h-2.192v0.605h13.691v-0.605h-1.703V26.715z"/>
			<path fill="#231F20" d="M45.573,26.715v4.674h1.703v-7.664C46.293,24.102,45.573,25.297,45.573,26.715z"/>
			<path fill="#231F20" d="M35.777,26.715c0-1.645-0.967-2.989-2.192-3.105v7.778h2.192V26.715z"/>
			<polygon fill-rule="evenodd" clip-rule="evenodd" fill="#EC303C" points="53.364,91.267 27.496,91.267 30.506,34.698 
				50.656,34.698 			"/>
			<polygon fill-rule="evenodd" clip-rule="evenodd" fill="#E6E7E8" points="50.869,39.137 50.656,34.698 30.505,34.698 
				30.269,39.137 			"/>
			<polygon fill-rule="evenodd" clip-rule="evenodd" fill="#E6E7E8" points="27.801,85.54 27.496,91.267 53.364,91.267 53.09,85.54 
							"/>
			<polygon fill-rule="evenodd" clip-rule="evenodd" fill="#E6E7E8" points="52.088,64.616 51.765,57.866 29.273,57.866 
				28.914,64.616 			"/>
			<rect x="28.772" y="31.994" fill-rule="evenodd" clip-rule="evenodd" fill="#BE1E2D" width="23.316" height="2.704"/>
			<rect x="32.106" y="19.279" fill-rule="evenodd" clip-rule="evenodd" fill="#BE1E2D" width="16.648" height="1.352"/>
			<path fill-rule="evenodd" clip-rule="evenodd" fill="#FFFFFF" d="M43.615,86.322c0-2.32-1.426-4.2-3.184-4.2
				c-1.759,0-3.184,1.88-3.184,4.2v6.3h6.368V86.322z"/>
			<path fill-rule="evenodd" clip-rule="evenodd" fill="#231F20" d="M42.793,86.593c0-1.721-1.058-3.116-2.362-3.116
				c-1.305,0-2.362,1.395-2.362,3.116v4.674h4.725V86.593z"/>
			<path fill-rule="evenodd" clip-rule="evenodd" fill="#231F20" d="M42.793,26.715c0-1.721-1.058-3.116-2.362-3.116
				c-1.305,0-2.362,1.395-2.362,3.116v4.674h4.725V26.715z"/>
			<g>
				<rect x="45.081" y="66.7" fill-rule="evenodd" clip-rule="evenodd" fill="#FFFFFF" width="4.049" height="6.659"/>
				<rect x="45.601" y="67.374" fill-rule="evenodd" clip-rule="evenodd" fill="#58595B" width="3.009" height="5.311"/>
			</g>
			<g>
				<rect x="33.197" y="46.35" fill-rule="evenodd" clip-rule="evenodd" fill="#FFFFFF" width="4.049" height="6.659"/>
				<rect x="33.717" y="47.024" fill-rule="evenodd" clip-rule="evenodd" fill="#58595B" width="3.009" height="5.311"/>
			</g>
			<rect x="30.269" y="28.906" fill-rule="evenodd" clip-rule="evenodd" fill="#D1D3D4" width="19.544" height="3.088"/>
			<rect x="25.244" y="91.267" fill-rule="evenodd" clip-rule="evenodd" fill="#EC303C" width="30.373" height="5.409"/>
		</g>
		<g>
			<path fill-rule="evenodd" clip-rule="evenodd" fill="#C92933" d="M47.112,19.489h0.11v-2.941c0-0.711-0.156-1.385-0.43-1.995
				C46.903,16.198,47.01,17.843,47.112,19.489z"/>
			<path fill-rule="evenodd" clip-rule="evenodd" fill="#C3C4C5" d="M46.892,16.032h0.3c-0.055-0.519-0.194-1.012-0.399-1.469
				C46.826,15.053,46.86,15.543,46.892,16.032z"/>
			<path fill="#C3C4C5" d="M47.276,22.212v-1.581h-0.094C47.214,21.158,47.245,21.685,47.276,22.212z"/>
			<path fill-rule="evenodd" clip-rule="evenodd" fill="#C92933" d="M49.782,71.688c0.373,6.519,0.705,13.048,0.797,19.579h2.785
				l-2.708-56.569h-2.704C48.57,47.027,49.076,59.36,49.782,71.688z"/>
			<path fill-rule="evenodd" clip-rule="evenodd" fill="#C3C4C5" d="M48.17,39.137h2.698l-0.212-4.438h-2.704
				C48.027,36.178,48.099,37.657,48.17,39.137z"/>
			<path fill-rule="evenodd" clip-rule="evenodd" fill="#C3C4C5" d="M50.579,91.267h2.785L53.09,85.54h-2.649
				C50.505,87.448,50.552,89.358,50.579,91.267z"/>
			<path fill-rule="evenodd" clip-rule="evenodd" fill="#C3C4C5" d="M49.397,64.616h2.691l-0.323-6.75h-2.707
				C49.168,60.116,49.28,62.366,49.397,64.616z"/>
			<path fill-rule="evenodd" clip-rule="evenodd" fill="#A11926" d="M47.815,31.994c0.046,0.902,0.093,1.803,0.138,2.705h4.136
				v-2.705H47.815z"/>
			<path fill-rule="evenodd" clip-rule="evenodd" fill="#A11926" d="M47.182,20.631h1.573v-1.352h-1.656
				C47.127,19.729,47.155,20.18,47.182,20.631z"/>
			<path fill-rule="evenodd" clip-rule="evenodd" fill="#B2B3B4" d="M47.815,31.994h1.998v-3.088h-2.161
				C47.707,29.935,47.762,30.964,47.815,31.994z"/>
			<path fill-rule="evenodd" clip-rule="evenodd" fill="#C92933" d="M50.579,91.267c0.026,1.803,0.033,3.606,0.017,5.409h5.02
				v-5.409H50.579z"/>
		</g>
		<polygon fill-rule="evenodd" clip-rule="evenodd" fill="#808285" points="13.365,98.026 25.244,95.321 34.681,96.674 
			46.424,93.972 53.364,95.999 61.045,95.999 71.83,100.926 76.939,107.17 76.939,114.833 0.31,114.833 7.405,104.402 		"/>
		<path fill-rule="evenodd" clip-rule="evenodd" fill="#58595B" d="M71.83,100.926l-10.785-4.927h-7.681l-6.94-2.027l-4.533,1.043
			c-3.357,6.708-6.952,13.293-10.661,19.818h47.57l-1.862-7.663L71.83,100.926z"/>
	</g>
</g>
<g>
	<path fill="#FFE6A4" d="M431,123H37c0,0,88.2-48,197-48S431,123,431,123z"/>
	<path fill="#6B845D" d="M365,96H98c0,0,59.77-53.849,133.5-53.849S365,96,365,96z"/>
	<path fill="#7A956A" d="M393.094,108H160c0,0,52.18-53.849,116.547-53.849S393.094,108,393.094,108z"/>
</g>
<g>
</g>
<g>
</g>
<g>
</g>
<g>
</g>
<g>
</g>
<g>
</g>
</svg>
