<svg xmlns="http://www.w3.org/2000/svg" version="1.1" x="0" y="0" viewBox="0 0 138 250" enable-background="new 0 0 138 250" xml:space="preserve"><ellipse transform="matrix(1 0.0086 -0.0086 1 2.0973 -0.8275)" fill="#A96A65" cx="97.79" cy="244.77" rx="35.11" ry="4.53"/><path fill="#D82121" d="M72.13 40.15c0 0-5.85-1.68-13.96 0.68s-11.52 2.78-13.3 8.97c-1.78 6.19-6.4 42.36-4.79 53.6s4.16 18.95 9.39 20.08 24.26-5.99 24.26-5.99L72.13 40.15z"/><path fill="#B89A4B" d="M55.15 55.93c0 0-6.33 9.83-5.05 30.23 1.28 20.4-0.55 36.15 3.02 36.35s15.09-10.92 15.09-10.92L55.15 55.93z"/><path fill="#C21C48" d="M102.82 164.59c2.98-0.6 2.25-2.16 1.2-4.06 -5.09-9.23-10.1-18.5-15.14-27.76 -1.39-2.55-1.96-5.16-0.64-7.92 -1.69 2.08-4.37 1.22-6.44 2.19 -1.07 0.29-2.14 0.82-3.22 0.82 -7.67 0.05-15.32 0.35-22.97 0.96 -1.23 0.1-2.49-0.13-3.46-1.06 -2.76 8.15-0.04 15.24 4.57 21.76 1.62 2.29 2.11 4.28 1.32 6.85 -0.84 2.74-1.13 5.68-2.26 8.28 -1.62 3.71-1.26 6.56 2.22 8.82 1.56 1.18 3.12 2.37 4.68 3.55 2.95 1.22 5.9 2.29 9.18 2.51 2.63 0.17 4.94 1.43 6.33 3.89 2.73-1.42 1.59-4.63 3.31-6.67 1.18 0.29 1.04 2.84 3.01 2.27 1.25-0.36 1.52-1.54 1.99-2.54 0.98-1.61 1.81-3.32 3.33-4.54C92.7 166.91 97.57 165.43 102.82 164.59z"/><path fill="#3CC57D" d="M52.15 127.75c0.98 0.93 2.23 1.16 3.46 1.06 7.65-0.61 15.3-0.91 22.97-0.96 1.08-0.01 2.15-0.53 3.22-0.82 -0.44-1.15-0.8-2.33-1.32-3.43 -3.63-7.74-4.73-15.91-3.6-24.29 0.66-4.88 0.08-9.65-0.82-14.29 -1.33-6.81-1.48-13.43 0.43-20.09 -5.57-6.5-7.86-14.42-9.74-22.51 -2.19-0.28-3.88 0.6-5.21 2.29 0.44 2.57 1.05 5.13 1.29 7.72 0.87 9.62 0.66 19.16-2.55 28.41 -0.47 1.36-0.81 3.33-2.59 3.23 -1.64-0.1-2.13-1.98-2.53-3.39 -1.06-3.7-2.15-7.41-2.28-11.3 -0.11-0.75-0.23-1.49-0.34-2.24 -1.12-0.22-2.2-0.28-3.05 0.68 0.16 3.61 0.61 7.28 2.1 10.51 3.69 7.97 3.5 16.31 3.13 24.73 0.86 0.72 1.87 0.82 2.79 0.34 5.22-2.78 7.99 1.21 11.43 3.8 -1.56 1.42-3.25 0.85-4.81 0.99l-0.25 0.25c1.34 2.64 7.33 3.77 2.72 8.35 -1.16 1.78-2.31 3.81-4.9 2.41 -2.81-1.52-5.62-3.15-7.02-6.28 -0.29-0.07-0.58-0.14-0.87-0.21 0.4 2.8 0.71 5.49-0.89 8.18C51.67 122.92 52.13 125.43 52.15 127.75z"/><path fill="#62DF9F" d="M76.49 64.94c-1.9 6.66-1.75 13.27-0.42 20.09 0.9 4.63 1.49 9.4 0.82 14.29 -1.14 8.37-0.03 16.55 3.6 24.29 0.52 1.11 0.89 2.29 1.32 3.43 2.06-0.97 4.75-0.11 6.44-2.18 2.64-2.06 3.58-6.32 1.03-10.51 -2.84-4.67-2.17-8.88-0.43-13.44 2-5.21 3.89-10.46 5.83-15.69 0.59-3.39 3-6.21 3.11-9.76 -3.23-8.67-0.95-17.16 0.88-25.66 -0.88-2.13-2.48-3.33-4.73-3.71 -0.83 5.08-2.32 9.96-4.93 14.42 -1.65 2.82-3.57 5.46-7.2 5.96C79.71 67.05 78.1 66 76.49 64.94z"/><path fill="#E2B795" d="M66.56 116.78c4.61-4.58-1.37-5.71-2.72-8.35 -0.14-0.13-0.43-0.37-0.41-0.39 0.3-0.4 0.49-0.13 0.67 0.14 1.56-0.14 3.24 0.44 4.81-0.99 -3.43-2.59-6.21-6.58-11.43-3.8 -0.91 0.49-1.93 0.38-2.78-0.34 -2.51-0.46-2.82-3.2-4.59-4.43 -0.38-0.26-0.76-0.51-1.14-0.77l0.11-0.01c-1.75-1.36-3.72-2.52-5.2-4.12 -3.76-4.08-9.2-6.5-11.6-11.92 -1.15-2.6-1.96-4.83 1.68-6.14 0.97-0.35 1.6-1.55 2.48-2.23 3.88-2.99 4.96-8.08 8.36-11.32 4.87-4.62 6.37-10.45 7.09-16.71 -6.31 0.73-9.65 5.18-12.42 10.15 -1.18 2.11-2.57 3.79-4.46 5.33 -5.44 4.42-10.09 9.52-13.01 16.07 -1.96 4.39-1.48 8.02 2 11.47 3.38 3.34 6.94 6.38 10.98 8.89 5.92 3.68 11.28 8.12 16.68 12.51 0.98 0.8 1.93 1.55 2.14 2.88 0.29 0.07 0.58 0.14 0.87 0.21C58.62 114.2 62.59 115.49 66.56 116.78z"/><path fill="#E2B795" d="M98.65 49.79c-1.82 8.5-4.11 16.99-0.88 25.66 2.17-3.15 2.31-6.94 3.4-11.55 0.27 6.31 0.79 11.62-1.06 16.56 -0.94 2.5-0.37 4.14 1.13 5.61 2.69 2.63 4.08 5.87 5.16 9.34 1.08 3.48 3.1 6.5 4.81 9.67 1.28 2.37 2.38 1.89 3.96 0.38 3.99-3.83 6.85-8.5 9.93-13.02 1.35-1.98 1.69-4.77 4.36-5.76 1.29-4.19 1.88-8.52 2.42-12.86 -2.27-0.34-4.55-0.68-6.82-1.02 -3.61 6.81-10.12 12.15-10.49 20.77 -1.39-8.24-3.25-16.14-6.32-23.82 -1.28-3.21 0.19-7.12-0.9-10.66C105.95 54.54 103.48 51.1 98.65 49.79z"/><path fill="#D59769" d="M78.18 183.41c-1.39-2.46-3.7-3.72-6.33-3.89 -3.28-0.21-6.23-1.28-9.18-2.5 -2.03 3.2-1.74 7.35-4.06 10.65 -2.7-3.6-5.19-6.98-7.73-10.32 -3.35-4.39-8.48-6.31-12.88-9.27 -6.89-4.63-11.31-11.69-16.74-17.76 -0.49 1.15-0.97 2.3-1.46 3.45 4.32 5.49 8.22 11.29 11.59 17.38 7.68 13.85 20.1 22.19 33.59 29.27 3.71 1.95 5.17 1.22 7.25-2.51C74.77 193.31 76.29 188.28 78.18 183.41z"/><path fill="#E2B795" d="M102.82 164.59c-5.24 0.83-10.12 2.32-13 7.33 3.8 4.76 6.41 10.38 6.78 16.2 0.43 6.72 2.27 12.7 5.53 18.29 5.41 9.26 9.44 19.08 12.72 29.24 0.78-0.5 1.56-1.01 2.34-1.51 -3.15-16.43-6.3-32.87-9.45-49.3 -0.14-0.73-0.55-1.55-0.35-2.18 2.03-6.45-1.09-11.53-4.24-16.63C102.9 165.62 102.92 165.07 102.82 164.59z"/><path fill="#D59769" d="M51.87 45.4c-0.72 6.26-2.23 12.09-7.09 16.71 -3.4 3.23-4.48 8.33-8.36 11.32 -0.88 0.68-1.51 1.88-2.48 2.23 -3.64 1.31-2.83 3.54-1.68 6.14 2.41 5.42 7.84 7.84 11.6 11.92 1.48 1.61 3.45 2.76 5.2 4.12 -2.63-7.54-5.39-14.99-13.34-19.67 6.16-2.13 9.81-6.43 13.74-10.36 0.86-0.96 1.94-0.89 3.06-0.68 0.87-0.44 1.7-1.05 2.63-1.29 1.24-0.32 1.71 0.72 2.11 1.65 0.28 0.65 0.77 1.99 0.38 1.94 -2.81-0.33-1.34 2.73-2.76 3.48 -1.05-1.1-0.55-2.89-2.03-3.54 0.13 3.89 1.22 7.6 2.28 11.3 0.4 1.4 0.9 3.29 2.53 3.39 1.78 0.1 2.12-1.86 2.59-3.22 3.21-9.25 3.42-18.8 2.55-28.41 -0.23-2.59-0.85-5.15-1.28-7.72C58.36 45.57 54.99 43.75 51.87 45.4z"/><path fill="#D59769" d="M129.46 86.69c-2.67 0.99-3.01 3.78-4.36 5.76 -3.08 4.52-5.94 9.19-9.93 13.02 -1.58 1.51-2.68 2-3.96-0.38 -1.71-3.17-3.73-6.19-4.81-9.67 -1.08-3.47-2.47-6.71-5.16-9.34 -1.5-1.47-2.07-3.11-1.13-5.61 1.85-4.94 1.33-10.26 1.06-16.56 -1.09 4.62-1.23 8.41-3.4 11.55 -0.1 3.55-2.51 6.37-3.1 9.76 2.29 4.37 4.63 8.67 5.75 13.61 1.15 5.07 4.49 9.16 7.62 13.16 2.82 3.61 5.48 3.62 8.86 0.5 7.01-6.46 9.73-15.15 12.15-23.96C129.22 87.92 129.33 87.3 129.46 86.69z"/><path fill="#D59769" d="M114.85 235.65c-3.28-10.16-7.31-19.97-12.72-29.24 -3.26-5.59-5.1-11.57-5.53-18.29 -0.37-5.82-2.98-11.44-6.78-16.2 -1.51 1.22-2.35 2.94-3.33 4.54 5.36 2.87 6.67 6.45 4.17 11.35 -1.88 3.71-1.61 7.41 0.02 11.14 2.85 6.53 6.54 12.6 10.79 18.25 3.97 5.27 6.64 11.01 8.28 17.33 0.28 1.06 0.84 2.06 1.27 3.08C112 236.37 113.73 236.61 114.85 235.65z"/><path fill="#D59769" d="M76.49 64.94c1.61 1.06 3.23 2.11 5.31 1.53 0.45-3.64-0.44-7.18-0.95-10.72 -0.67-4.63-0.12-6.17 4.03-8.38 2.46-1.31 5.05-2.07 7.86-1.94 -2.26-2.22-5.84-3.4-5.92-7.37 -5.16 3.29-9.08 1.62-11.97-3.38 -0.88 0.94-0.23 2.05-1.13 2.58 -0.1 0.71-0.11 1.47-0.82 1.92l0.08 0.01c-1.3 2.58-4.53 1.45-6.24 3.24C68.62 50.52 70.91 58.44 76.49 64.94z"/><path fill="#C21C48" d="M83.39 9.96c-7.27-0.51-10.84 4.14-13.69 9.8 -0.11 0.37-0.22 0.74-0.33 1.11 -0.14 2.6 0.31 5.09 1.3 7.49 0.17 2.15-0.74 3.84-2.24 5.28 -2.56 1.74-5.19 2.05-7.46-0.27 -2.18-2.22-0.88-4.68 0.19-6.92 1.19-2.48 2.76-4.76 4.71-6.69 1.96-1.93 2.82-3.99 2.77-6.85C68.48 4.51 73.37 0.28 81.7 1.19c6.72 0.73 9.99 4.46 10.62 12.14C89.4 12.06 86.81 9.9 83.39 9.96zM82.1 3.79c-1.74-0.07-3.41 0.48-3.99 2.85 2.51-0.16 4.82-0.26 7.21 0.49C85.08 4.84 83.8 3.86 82.1 3.79z"/><path fill="#E2B795" d="M21.24 150.31c5.43 6.07 9.86 13.13 16.74 17.76 4.4 2.96 9.53 4.88 12.89 9.27 2.55 3.34 5.04 6.72 7.74 10.32 2.32-3.31 2.03-7.45 4.06-10.65 -1.56-1.18-3.12-2.37-4.67-3.55 0 1.32 0 2.64 0 4.09 -1.83-0.37-1.61-1.81-2.16-2.67 -2.38-3.74-5.12-7.35-9.52-8.45 -4.53-1.13-7.58-3.91-10.59-7.05 -4.02-4.2-8.1-8.34-12.15-12.5C22.42 147.77 21.61 148.89 21.24 150.31z"/><path fill="#E2B795" d="M92.74 45.42c-2.81-0.13-5.4 0.63-7.86 1.94 -4.15 2.21-4.7 3.75-4.03 8.38 0.51 3.54 1.4 7.08 0.95 10.72 3.63-0.5 5.55-3.14 7.2-5.96 2.61-4.46 4.09-9.34 4.93-14.42C93.53 45.86 93.13 45.64 92.74 45.42z"/><path fill="#62DF9F" d="M114.85 235.65c-1.12 0.96-2.85 0.72-3.83 1.96 0.05 2.08 0.09 4.15 0.14 6.22 7.41-0.07 14.82-0.15 22.23-0.22 -0.73-2.83-3.18-3.48-5.46-3.68 -1.68-0.15-3.23-0.61-4.84-0.93 -2.43-0.47-4.88-0.92-1.85-3.98 0.43-0.43 0.5-1.16 0.03-1.71 -0.47-0.55-1.09-0.49-1.7-0.23 -0.8 0.34-1.59 0.7-2.38 1.05C116.4 234.64 115.62 235.14 114.85 235.65z"/><path fill="#62DF9F" d="M21.24 150.31c0.37-1.42 1.18-2.53 2.34-3.42 -0.24-2.71-1.96-4.5-3.82-6.21 -5.86 4.2-11.73 8.41-17.59 12.61 1.88 2.79 4.16 1.26 6.24 0.45 2.65-1.02 5.2-2.3 7.18-3.18 2.51 0.41-1.08 6.6 4.2 3.21C20.27 152.6 20.75 151.46 21.24 150.31z"/><path fill="#D59769" d="M70.66 28.36c0.17 2.15-0.74 3.84-2.24 5.28 -0.04 0.93-0.07 1.86-0.11 2.8l0.13 0.13c1.21-0.68 2.42-1.21 2.22 1.02 -0.18 2.03 1.06 1.79 2.33 1.6 0 0-0.08-0.01-0.08-0.01 -0.14-0.82-0.04-1.53 0.82-1.92 0.9-0.53 0.25-1.65 1.13-2.58 2.89 5 6.8 6.67 11.97 3.38 0.62-0.38 1.24-0.76 1.86-1.14 0.82-2.56 0.03-5.55 2.02-7.81 -0.04-1.06-0.09-2.12-0.13-3.18 0 0-0.25-0.02-0.25-0.02l-0.25 0.07c-1.03 2.04-2.24 3.91-2.55 6.35 -0.31 2.44-2.2 3.79-4.88 3.48 -3.8 0.55-4.21-2.7-5.41-4.95C75.73 28.01 74.13 25.83 70.66 28.36z"/><path fill="#62DF9F" d="M84.88 25.23c-0.71-0.99-0.61-3.96-2.81-0.78 -1.74 2.52-4.46 1.92-6.96 0.85 1.42-0.3 2.97 0.25 4.29-0.7 2.14-0.69 1.36-2.49 0.95-3.57 -0.67-1.77-2.53-0.6-3.85-0.9 -3.76 0.85-1.93 3.18-1.37 5.18 -0.77 0.2-1.94 0.13-1.95-0.5 -0.04-2.63-2.44-2.76-3.81-3.94 0.11-0.37 0.22-0.74 0.33-1.11 1.6 0.46 3.29 1.58 4.57-0.56 3.11 0.03 6.33-0.63 9.09 1.51 2.08-2.21 4.82-2.09 7.52-2.12 0.46 0.06 0.91 0.12 1.37 0.17 2.39 3.78 1.92 5.79-1.65 7.15 0 0-0.25-0.02-0.25-0.02l-0.25 0.07C88.34 25.7 86.5 26.26 84.88 25.23zM86.6 20.92c0.42 2.03 2.61 2.83 4.3 3.42 1.14 0.4 1.12-1.23 1.16-2.18 0.09-2.47-1.62-2.29-3.45-2.17C88 20.23 86.27 19.37 86.6 20.92z"/><path fill="#E2B795" d="M136.9 61.33c0.09-0.6 0.24-1.2 0.25-1.8 0.07-7.59-1.12-8.52-8.21-6.42 -0.81 0.87-1.85 1.26-3 1.44 0.01 1.21 0.02 2.42 0.03 3.63 1.58 0.27 1.7 0.94 0.54 1.96l0-0.04C129.97 60.5 133.43 60.92 136.9 61.33z"/><path fill="#D59769" d="M126.5 60.13c1.17-1.02 1.04-1.69-0.54-1.96 -1.19 2.84-1.03 5.65 0.22 8.43 2.22 0.46 4.44 0.93 6.66 1.39 1.58-2.08 4.84-3.14 4.05-6.66 -3.46-0.41-6.93-0.82-10.39-1.24L126.5 60.13z"/><path fill="#E9E8EE" d="M2.17 153.28c5.86-4.2 11.73-8.41 17.59-12.61 -0.2-1.58-1.05-1.96-2.3-1.07 -5.37 3.8-10.74 7.6-16.03 11.52C0.04 152.14-0.05 153.23 2.17 153.28z"/><path fill="#E9E8EE" d="M133.39 243.61c-7.41 0.07-14.82 0.15-22.23 0.22 -1.39 2.22 0.51 2.22 1.7 2.24 6.14 0.09 12.28 0.01 18.42 0.06C133.12 246.14 133.71 245.31 133.39 243.61z"/><path fill="#C21C48" d="M132.85 67.99c-2.22-0.46-4.44-0.92-6.66-1.39 -0.68 2.02-1.78 3.96-1.13 6.21 2.28 0.34 4.55 0.68 6.82 1.02C132.72 71.97 133.01 70.02 132.85 67.99z"/><path fill="#E9E8EE" d="M90.86 18.59c0.46 0.06 0.91 0.12 1.37 0.17 0.03-1.81 0.06-3.62 0.09-5.44 -2.92-1.27-5.51-3.43-8.94-3.37 0 1.36 0 2.73 0 4.09l0 0.02C86.95 13.82 90.37 13.79 90.86 18.59z"/><path fill="#F8DF7E" d="M90.71 29.1c-1.99 2.26-1.2 5.25-2.02 7.81 0.36 0.75 0.71 1.51 1.15 2.45C93.27 36.01 91.43 32.51 90.71 29.1z"/><path fill="#D59769" d="M125.94 54.55c1.14-0.18 2.19-0.57 3-1.44 -0.99-1.32-1.86-3.77-3.63-2.82C123.86 51.05 125.6 53.08 125.94 54.55z"/><path fill="#F4B4B3" d="M68.31 36.43c-0.1 0.14-0.21 0.29-0.31 0.43 0.15-0.1 0.29-0.2 0.44-0.3L68.31 36.43z"/><path fill="#D59769" d="M66.56 116.78c-3.97-1.29-7.95-2.58-11.92-3.87 1.4 3.14 4.21 4.76 7.02 6.28C64.25 120.59 65.4 118.56 66.56 116.78z"/><path fill="#D59769" d="M52.86 69.39c1.47 0.65 0.98 2.44 2.03 3.54 1.41-0.74-0.05-3.81 2.76-3.48 0.39 0.05-0.1-1.29-0.38-1.94 -0.4-0.93-0.88-1.97-2.11-1.65 -0.92 0.24-1.75 0.85-2.63 1.29C52.63 67.89 52.75 68.64 52.86 69.39z"/><path fill="#D59769" d="M50.1 98.63c-0.27-0.42-0.49-0.92-1.14-0.77C49.34 98.11 49.72 98.37 50.1 98.63z"/><path fill="#3CC57D" d="M64.1 108.18c-0.18-0.27-0.37-0.54-0.67-0.14 -0.01 0.02 0.27 0.25 0.41 0.39L64.1 108.18z"/><path fill="#FEFEFE" d="M73.73 37.25c-0.86 0.39-0.96 1.1-0.82 1.92C73.61 38.71 73.62 37.96 73.73 37.25z"/><path fill="#D59769" d="M84.88 25.23c-0.71-0.99-0.61-3.96-2.81-0.78 -1.74 2.52-4.46 1.92-6.96 0.85l0.01 0c-0.77 0.2-1.94 0.13-1.95-0.5 -0.04-2.63-2.44-2.76-3.81-3.94 -0.13 2.6 0.31 5.09 1.3 7.49 3.47-2.53 5.07-0.35 6.58 2.48 1.2 2.25 1.61 5.5 5.41 4.95 -1.01-2.35 1.85-2.81 2.2-4.49 -1.51-0.58-3.05-1.05-5.03-1.03 1.6-1.8 3.31-1.91 5.03-2.01C84.86 27.25 84.87 26.24 84.88 25.23z"/><path fill="#F8DF7E" d="M83.39 14.05c0-1.36 0-2.73 0-4.09 -7.27-0.51-10.84 4.14-13.69 9.8 1.6 0.46 3.29 1.58 4.57-0.56C75.46 14.98 77.01 14.1 83.39 14.05z"/><path fill="#F4B4B3" d="M85.32 7.12c-0.24-2.29-1.52-3.27-3.22-3.34 -1.74-0.07-3.41 0.48-3.99 2.85C80.62 6.47 82.92 6.38 85.32 7.12z"/><path fill="#E2B795" d="M84.88 25.23c-0.01 1.01-0.02 2.02-0.02 3.03 2.32 1.01 2.32 2.03 0 3.04 -0.35 1.69-3.22 2.14-2.2 4.49 2.68 0.31 4.57-1.04 4.88-3.48 0.31-2.45 1.52-4.32 2.55-6.35C88.34 25.7 86.5 26.26 84.88 25.23z"/><path fill="#D59769" d="M83.39 14.05c-6.38 0.05-7.93 0.93-9.12 5.15 3.11 0.03 6.33-0.63 9.08 1.51 0.01-2.21 0.03-4.43 0.04-6.64L83.39 14.05z"/><path fill="#E2B795" d="M83.39 14.07c-0.01 2.22-0.03 4.43-0.04 6.65 2.08-2.21 4.82-2.09 7.52-2.12C90.37 13.79 86.95 13.82 83.39 14.07z"/><path fill="#252A63" d="M88.61 19.99c-0.61 0.25-2.33-0.62-2.01 0.93 0.42 2.03 2.61 2.83 4.3 3.42 1.14 0.4 1.12-1.23 1.16-2.18C92.15 19.69 90.43 19.86 88.61 19.99z"/><path fill="#5161AB" d="M76.49 20.13c-3.76 0.85-1.93 3.18-1.37 5.18l-0.01 0c1.42-0.3 2.97 0.25 4.29-0.7C79.2 22.62 76.25 22.41 76.49 20.13z"/><path fill="#252A63" d="M76.49 20.13c-0.25 2.28 2.7 2.49 2.9 4.48 2.14-0.69 1.35-2.49 0.94-3.57C79.67 19.26 77.81 20.43 76.49 20.13z"/><path fill="#FEFEFE" d="M126.5 60.13l0-0.04L126.5 60.13z"/><path fill="#E9E8EE" d="M84.85 31.3c2.32-1.01 2.32-2.02 0-3.04 -1.72 0.1-3.43 0.21-5.03 2.01C81.8 30.25 83.34 30.72 84.85 31.3z"/><path fill="#AB191B" d="M59.98 44.94c0 0 15.15 18.5-0.2 43.06 0 0-3.51 3.29-1.99 5.03s5.66 3.48 7.85 0.77c2.19-2.71 9.52-13.53 9.43-25.81s-2.31-26.31-7.06-26.37C64.53 41.58 59.98 44.94 59.98 44.94z"/><path fill="#4D3629" d="M55 100.57l3.97-6.66c0 0-0.1-0.73 0.98-0.59 1.09 0.14 1.91 1.09 1.91 1.09s-0.26 2.01-1.06 2.53S57 103.1 55 103.39V100.57z"/><path fill="#AB191B" d="M89.46 42.81c0 0 3.62 0.26 0.81 28.45 -0.34 3.43-1.92 19.81-0.96 22.83 0.97 3.02 3.02-4.06 3.02-4.06s1.27-7.83 2.35-14.5 2.32-15.41 2.1-21.18c-0.22-5.65-0.76-7.57-0.76-7.57L89.46 42.81z"/><path fill="#4D3629" d="M89.66 93.82c0 0 1.39-0.28 1.67-0.99 0.29-0.71-0.14 5.78-0.84 6.87 -0.69 1.09-1.88 1.79-1.88 1.79S90.57 98.5 89.66 93.82z"/></svg>