<svg xmlns="http://www.w3.org/2000/svg" version="1.1" x="0" y="0" viewBox="0 0 3500 78" enable-background="new 0 0 3500 78" xml:space="preserve"><path fill="#7A4E60" d="M1970.77 77.84c0 0-64.07-66.02-177 0"/><polygon fill="#7A4E60" points="173.82 77.77 165.64 56.07 162.99 61.79 160 56.05 153.34 73.94 148.52 63.73 146.92 68.09 139.12 46.29 135.21 56.84 134.41 56.84 131.89 62.47 127.64 51.74 124.89 58.48 121.91 52.16 119.15 58.58 113.53 45.72 108.83 58.57 106.54 53.41 102.52 64.76 96.9 52.03 92.08 64.88 89.9 59.26 88.87 60.63 85.66 53.06 76.6 77.84 "/><polygon fill="#7A4E60" points="644.82 77.77 636.64 56.07 633.99 61.79 631 56.05 624.34 73.94 619.52 63.73 617.92 68.09 610.12 46.29 606.21 56.84 605.41 56.84 602.89 62.47 598.64 51.74 595.89 58.48 592.91 52.16 590.15 58.58 584.53 45.72 579.83 58.57 577.54 53.41 573.52 64.76 567.9 52.03 563.08 64.88 560.9 59.26 559.87 60.63 556.66 53.06 547.6 77.84 "/><polygon fill="#7A4E60" points="2476.27 77.75 2466.3 51.27 2463.06 58.25 2459.41 51.24 2451.28 73.08 2445.4 60.62 2443.44 65.94 2433.91 39.14 2429.15 51.84 2428.17 51.84 2425.09 58.89 2419.91 45.89 2416.55 54.16 2412.91 46.47 2409.55 54.31 2402.69 38.63 2396.95 54.31 2394.14 48.01 2389.24 61.88 2382.38 46.33 2376.5 62.02 2373.84 55.15 2372.58 56.84 2368.66 47.59 2357.59 77.84 "/><polygon fill="#7A4E60" points="2444.27 77.84 2456.29 43.36 2460.19 51.82 2464.59 43.39 2474.39 69.72 2481.48 54.71 2483.84 61.12 2495.32 29.18 2501.06 44.84 2502.24 44.84 2505.95 52.98 2512.2 37.14 2516.25 47.02 2520.64 37.7 2524.69 47.13 2532.96 28.22 2539.88 47.12 2543.25 39.52 2549.16 56.23 2557.43 37.49 2564.52 56.4 2567.72 48.13 2569.24 50.15 2573.97 38.93 2587.3 77.84 "/><polygon fill="#7A4E60" points="3314.27 77.84 3323.36 51.77 3326.31 58.16 3329.64 51.79 3337.05 71.7 3342.41 60.34 3344.2 65.19 3352.88 41.02 3357.22 52.84 3358.11 52.84 3360.92 59.02 3365.64 47.05 3368.71 54.53 3372.02 47.48 3375.09 54.61 3381.34 40.31 3386.57 54.6 3389.13 48.86 3393.59 61.49 3399.85 47.33 3405.21 61.62 3407.64 55.37 3408.78 56.9 3412.36 48.42 3422.44 77.84 "/><polygon fill="#7A4E60" points="2038.82 77.92 2030.64 56.23 2027.99 61.95 2025 56.21 2018.34 74.1 2013.52 63.89 2011.92 68.25 2004.11 46.37 2000.21 56.84 1999.41 56.84 1996.89 62.54 1992.64 51.86 1989.89 58.62 1986.91 52.3 1984.15 58.73 1978.53 45.88 1973.83 58.72 1971.54 53.56 1967.52 64.92 1961.9 52.18 1957.08 65.03 1954.9 59.41 1953.87 60.79 1950.66 53.22 1941.59 78 "/><polygon fill="#7A4E60" points="1914.84 50.96 1911.04 40.86 1909.81 43.53 1908.41 40.85 1905.32 49.18 1903.07 44.43 1902.32 46.46 1898.69 36.12 1896.88 40.84 1896.51 40.84 1895.33 43.65 1893.35 38.75 1892.07 41.94 1890.69 39.02 1889.4 42.02 1886.79 36.04 1884.6 42.02 1883.53 39.62 1881.66 44.91 1879.05 38.98 1876.8 44.96 1875.79 42.35 1875.31 42.99 1873.81 39.46 1869.59 51 "/></svg>