<?xml version="1.0" encoding="utf-8"?>
<!-- Generator: Adobe Illustrator 18.1.1, SVG Export Plug-In . SVG Version: 6.00 Build 0)  -->
<svg version="1.1" id="Layer_1" xmlns="http://www.w3.org/2000/svg" xmlns:xlink="http://www.w3.org/1999/xlink" x="0px" y="0px"
	 viewBox="0 0 3500 78" enable-background="new 0 0 3500 78" xml:space="preserve">
<polygon fill="#A96A65" points="2501.494,36.341 2503.226,40.077 2505.177,36.323 2509.535,48.013 2512.685,41.346 2513.735,44.19 
	2518.827,29.962 2521.383,36.875 2521.907,36.875 2523.552,40.532 2526.326,33.514 2528.129,37.916 2530.08,33.777 2531.874,37.977 
	2535.549,29.577 2538.62,37.968 2540.125,34.591 2542.75,42.02 2546.425,33.698 2549.566,42.09 2550.992,38.414 2551.666,39.316 
	2553.766,34.372 2563.146,57 2492.849,57 "/>
<polygon fill="#A96A65" points="2447.489,78 2602.311,8 2757.125,78 "/>
<path fill="#A35453" d="M3186.619,78c0,0,101.64-78.146,218.006,0"/>
<path fill="#A96A65" d="M1957.585,78c0,0-64.19-73.491-137.681,0"/>
<polygon fill="#8E4948" points="338.424,78 329.805,53.298 327.005,59.371 323.855,53.325 316.829,72.207 311.754,61.444 
	310.056,66.038 301.831,43.148 297.719,54.375 296.87,54.375 294.21,60.211 289.73,48.845 286.825,55.932 283.684,49.256 
	280.779,56.011 274.846,42.457 269.894,56.002 267.47,50.559 263.235,62.529 257.311,49.107 252.227,62.652 249.926,56.728 
	248.841,58.181 245.455,50.122 235.9,78 "/>
<polygon fill="#A35453" points="3327.389,57.524 3332.324,43.384 3333.925,46.858 3335.728,43.402 3339.744,54.191 3342.649,48.039 
	3343.62,50.664 3348.319,37.513 3350.673,43.875 3351.162,43.875 3352.685,47.27 3355.24,40.803 3356.902,44.872 3358.705,41.057 
	3360.359,44.924 3363.754,37.181 3366.589,44.924 3367.971,41.809 3370.395,48.661 3373.781,40.978 3376.686,48.731 
	3378.008,45.336 3378.629,46.167 3380.563,41.573 3388.656,68.838 "/>
<polygon fill="#A35453" points="3193.015,73.869 3198.974,52.065 3200.575,55.538 3202.378,52.082 3206.394,62.871 3209.299,56.72 
	3210.27,59.345 3214.978,46.228 3217.331,52.625 3217.813,52.625 3219.335,55.985 3221.899,49.501 3223.552,53.561 3225.355,49.746 
	3227.018,53.613 3230.404,45.861 3233.239,53.604 3234.508,49.125 3237.045,57.341 3240.361,46.762 3243.345,57.411 
	3244.657,54.016 3245.279,54.847 3247.02,45.555 3254.213,72.653 "/>
<path fill="#AF7969" d="M1402.94,78c0,0,136.719-105.114,293.256,0"/>
<polygon fill="#A35453" points="2715.527,49.781 2717.899,54.891 2720.567,49.763 2726.509,65.732 2730.805,56.623 2732.24,60.508 
	2739.205,40.821 2742.688,50 2743.396,50 2745.654,55.258 2749.442,45.799 2751.893,51.872 2754.561,46.263 2757.02,52.003 
	2762.034,40.541 2766.225,52.012 2768.272,47.401 2771.86,57.542 2776.874,46.176 2781.179,57.638 2783.121,52.625 2784.04,53.85 
	2786.91,47.095 2799.711,78 2703.724,78 "/>
<polygon fill="#A35453" points="991.777,49.781 994.149,54.891 996.818,49.763 1002.759,65.732 1007.055,56.623 1008.49,60.508 
	1015.455,40.821 1018.929,50 1019.646,50 1021.904,55.258 1025.693,45.799 1028.151,51.872 1030.811,46.263 1033.261,52.003 
	1038.284,40.541 1042.475,52.012 1044.522,47.401 1048.11,57.542 1053.124,46.176 1057.429,57.638 1059.371,52.625 1060.29,53.85 
	1063.16,47.095 1075.961,78 979.974,78 "/>
<polygon fill="#A35453" points="909.528,49.781 911.899,54.891 914.568,49.763 920.509,65.732 924.805,56.623 926.24,60.508 
	933.205,40.821 936.688,50 937.396,50 939.654,55.258 943.443,45.799 945.901,51.872 948.561,46.263 951.011,52.003 956.034,40.541 
	960.225,52.012 962.272,47.401 965.86,57.542 970.874,46.176 975.179,57.638 977.121,52.625 978.04,53.85 980.91,47.095 993.711,78 
	897.724,78 "/>
<polygon fill="#A35453" points="827.278,49.781 829.649,54.891 832.318,49.763 838.259,65.732 842.555,56.623 843.99,60.508 
	850.955,40.821 854.438,50 855.146,50 857.404,55.258 861.193,45.799 863.651,51.872 866.311,46.263 868.761,52.003 873.784,40.541 
	877.975,52.012 880.022,47.401 883.61,57.542 888.624,46.176 892.929,57.638 894.871,52.625 895.79,53.85 898.66,47.095 911.461,78 
	815.474,78 "/>
<polygon fill="#A35453" points="767.778,49.781 770.149,54.891 772.818,49.763 778.759,65.732 783.055,56.623 784.49,60.508 
	791.455,40.821 794.938,50 795.646,50 797.904,55.258 801.693,45.799 804.151,51.872 806.811,46.263 809.261,52.003 814.284,40.541 
	818.475,52.012 820.522,47.401 824.11,57.542 829.124,46.176 833.429,57.638 835.371,52.625 836.29,53.85 839.16,47.095 851.961,78 
	755.974,78 "/>
<path fill="#AF7969" d="M682.938,78c0,0,64.19-73.491,137.681,0"/>
<polygon fill="#8E4948" points="1503.049,78 1494.43,53.298 1491.63,59.371 1488.48,53.325 1481.454,72.207 1476.379,61.444 
	1474.681,66.038 1466.456,43.148 1462.344,54.375 1461.495,54.375 1458.835,60.211 1454.355,48.845 1451.45,55.932 1448.309,49.256 
	1445.404,56.011 1439.471,42.457 1434.519,56.002 1432.095,50.559 1427.86,62.529 1421.936,49.107 1416.853,62.652 1414.551,56.728 
	1413.466,58.181 1410.08,50.122 1400.525,78 "/>
</svg>
