<?xml version="1.0" encoding="utf-8"?>
<!-- Generator: Adobe Illustrator 18.1.1, SVG Export Plug-In . SVG Version: 6.00 Build 0)  -->
<svg version="1.1" id="Layer_1" xmlns="http://www.w3.org/2000/svg" xmlns:xlink="http://www.w3.org/1999/xlink" x="0px" y="0px"
	 viewBox="0 0 3500 40" enable-background="new 0 0 3500 40" xml:space="preserve">
<polygon fill="#7A5B66" points="251.816,40.083 243.642,18.388 240.99,24.109 238,18.366 231.343,36.258 226.523,26.047 
	224.916,30.405 217.115,8.528 213.214,19 212.411,19 209.888,24.702 205.643,14.017 202.89,20.777 199.907,14.463 197.154,20.885 
	191.533,8.036 186.83,20.884 184.536,15.721 180.521,27.078 174.9,14.344 170.082,27.192 167.902,21.571 166.87,22.948 
	163.658,15.377 154.595,40.155 "/>
<polygon fill="#7A5B66" points="568.816,40.083 560.642,18.388 557.99,24.109 555,18.366 548.343,36.258 543.523,26.047 
	541.916,30.405 534.115,8.528 530.214,19 529.411,19 526.888,24.702 522.643,14.017 519.89,20.777 516.907,14.463 514.154,20.885 
	508.533,8.036 503.83,20.884 501.536,15.721 497.521,27.078 491.9,14.344 487.082,27.192 484.902,21.571 483.87,22.948 
	480.658,15.377 471.595,40.155 "/>
<polygon fill="#7A4E60" points="3287.266,40 3296.36,13.926 3299.312,20.322 3302.639,13.946 3310.046,33.862 3315.409,22.503 
	3317.197,27.354 3325.877,3.18 3330.217,15 3331.11,15 3333.918,21.178 3338.641,9.205 3341.705,16.685 3345.023,9.639 
	3348.086,16.774 3354.341,2.472 3359.574,16.764 3362.127,11.019 3366.594,23.654 3372.849,9.486 3378.209,23.782 3380.635,17.527 
	3381.783,19.059 3385.357,10.576 3395.441,40 "/>
<polygon fill="#7A5B66" points="2253.48,40.088 2245.839,19.807 2243.359,25.155 2240.564,19.786 2234.341,36.512 2229.835,26.966 
	2228.333,31.041 2221.041,10.4 2217.394,20 2216.643,20 2214.284,25.52 2210.316,15.626 2207.743,21.992 2204.954,16.114 
	2202.381,22.129 2197.126,10.123 2192.729,22.137 2190.584,17.312 2186.831,27.929 2181.576,16.026 2177.072,28.037 
	2175.035,22.782 2174.07,24.069 2171.067,16.992 2162.595,40.155 "/>
<polygon fill="#7A5B66" points="2338.505,40 2329.296,13.616 2326.307,20.101 2322.939,13.65 2315.438,33.818 2310.008,22.318 
	2308.198,27.231 2299.408,2.892 2295.013,15 2294.109,15 2291.265,21.116 2286.483,8.923 2283.381,16.462 2280.021,9.31 
	2276.919,16.526 2270.585,2.04 2265.286,16.51 2262.701,10.691 2258.178,23.486 2251.845,9.138 2246.416,23.614 2243.961,17.281 
	2242.797,18.831 2239.178,10.223 2228.968,40 "/>
<polygon fill="#7A5B66" points="2809.505,40 2800.296,13.616 2797.307,20.101 2793.939,13.65 2786.438,33.818 2781.008,22.318 
	2779.198,27.231 2770.408,2.892 2766.013,15 2765.109,15 2762.265,21.116 2757.483,8.923 2754.381,16.462 2751.021,9.31 
	2747.919,16.526 2741.585,2.04 2736.286,16.51 2733.701,10.691 2729.178,23.486 2722.845,9.138 2717.416,23.614 2714.961,17.281 
	2713.797,18.831 2710.178,10.223 2699.968,40 "/>
<polygon fill="#7A5B66" points="1532.816,40.083 1524.642,18.388 1521.99,24.109 1519,18.366 1512.343,36.258 1507.523,26.047 
	1505.916,30.405 1498.115,8.528 1494.214,19 1493.411,19 1490.888,24.702 1486.643,14.017 1483.89,20.777 1480.907,14.463 
	1478.154,20.885 1472.533,8.036 1467.83,20.884 1465.536,15.721 1461.521,27.078 1455.9,14.344 1451.082,27.192 1448.902,21.571 
	1447.87,22.948 1444.657,15.377 1435.595,40.155 "/>
<polygon fill="#7A5B66" points="1311.816,40.083 1303.642,18.388 1300.99,24.109 1298,18.366 1291.343,36.258 1286.523,26.047 
	1284.916,30.405 1277.115,8.528 1273.214,19 1272.411,19 1269.888,24.702 1265.643,14.017 1262.89,20.777 1259.907,14.463 
	1257.154,20.885 1251.533,8.036 1246.83,20.884 1244.536,15.721 1240.521,27.078 1234.9,14.344 1230.082,27.192 1227.902,21.571 
	1226.87,22.948 1223.657,15.377 1214.595,40.155 "/>

</svg>
