<svg xmlns:i="http://ns.adobe.com/AdobeIllustrator/10.0/" xmlns="http://www.w3.org/2000/svg" version="1.1" x="0" y="0" viewBox="0 0 1920 110" enable-background="new 0 0 1920 110" xml:space="preserve"><polygon fill="#85442E" points="1113.59 24.26 1188 21.78 1228.81 30.9 1186.39 60.13 "/><polygon fill="#85442E" points="1258.91 11.92 1311.29 10.33 1366.39 1 1300.32 51.83 "/><polygon fill="#BE6B4D" points="1113.59 24.26 1034.05 75.2 1033.71 79.39 1124.54 79.39 "/><path fill="#BE6B4D" d="M1179.8 53.05l-66.21-28.8 10.45 55.14h63.96C1184.52 67.36 1179.8 53.05 1179.8 53.05z"/><path fill="#945232" d="M1228.81 30.9c0 0-43.85 22.15-49.01 22.15l7.11 26.34h73.72L1228.81 30.9z"/><polygon fill="#BE6B4D" points="1298.46 37.55 1258.91 11.92 1228.81 30.9 1260.62 79.39 1300.32 79.39 "/><path fill="#945232" d="M1366.39 1c0 0-66.21 37.66-67.93 36.55l1.86 41.85h85.92L1366.39 1z"/><polygon fill="#BE6B4D" points="1422.71 25.64 1366.39 1 1386.24 79.39 1447.36 79.39 "/><polygon fill="#945232" points="1471.73 57.21 1422.93 25.92 1447.05 79.39 1474.96 79.39 "/><path fill="#8D9B00" d="M0 109.04c0-13.48 0-32.16 0-35.94 69.65-0.67 640.43-5.89 868.32-0.01 266.27 6.87 421.42 4.08 638.57 4.08 200.66 0 386.08-3.48 413.11-4.01 0.12 2.07 0.12 20.86 0.22 35.89C1920.29 108.71 0 113.06 0 109.04z"/><path fill="#A5A50C" d="M1506.89 77.16c-217.16 0-372.31 2.79-638.57-4.08C640.43 67.2-0.21 79.39 0 82.38c32.53 1.54 64.72 2.66 97.72 4.78 35.39 1 69.17-3 102.95-4 41.83-3 85.26 1 127.08 1 48.26 1 98.13 1 146.39 0 236.47-8 472.94 8 709.41 3 65.95-1 131.91-2 199.47 0 123.87 6 244.51-11 369.99-2 56.34 5 110.45-0.42 166.99-7.01 0.22-2.99 0.07-0.6 0-5.01C1892.98 73.68 1707.55 77.16 1506.89 77.16z"/><path fill="#A5A50C" d="M630.64 72.96c-0.79-0.79 5.03-9-12.97-17.73 21.7-8.73 30.7 13.23 30.97 12.44 0.26-0.79 9.98-45.52 50.02-45.52 -16.92 19.66-3.18 43.14-2.38 42.88 0.79-0.26 15.62-27.35 33.08-20.69 -13.15 9.68-9 28.63-9 28.63H630.64z"/><path fill="#A5A50C" d="M930.47 77.05c-0.62-0.62 3.94-7.05-10.16-13.89 17-6.84 24.06 10.37 24.26 9.75 0.21-0.62 17-31.52 39.19-35.67 -5.6 13.48-2.49 33.8-1.87 33.59 0.62-0.21 12.23-21.43 25.92-16.21 -6.22 7.71-7.05 22.43-7.05 22.43H930.47z"/><path fill="#A5A50C" d="M480.66 73.05c0 0 2.63-19.95 8.4-22.58 -13.39-8.66-28.88 11.29-28.88 11.29s-12.08-7.88-9.45-25.46c-20.21 0-28.88 28.88-28.88 28.88s-10.76-11.81 0-45.15c-37.54-1.84-40.43 42.01-40.43 42.01s-11.55-22.05-32.55-9.98c16.8 8.4 11.03 21 11.03 21H480.66z"/><path fill="#A5A50C" d="M962.03 75.9c0 0 2.05-15.6 6.57-17.65 -10.47-6.77-22.58 8.83-22.58 8.83s-9.44-6.16-7.39-19.91c-15.81 0-22.58 22.58-22.58 22.58s-8.42-9.24 0-35.31c-29.36-1.44-31.61 32.85-31.61 32.85s-9.03-17.25-25.46-7.8c13.14 6.57 8.62 16.42 8.62 16.42H962.03z"/><path fill="#A5A50C" d="M1564.59 76.64c0 0 2.34-17.75 7.47-20.08 -11.91-7.71-25.69 10.04-25.69 10.04s-10.74-7.01-8.41-22.65c-17.98 0-25.69 25.69-25.69 25.69s-9.57-10.51 0-40.17c-33.39-1.63-35.96 37.37-35.96 37.37s-10.27-19.62-28.96-8.87c14.95 7.47 9.81 18.68 9.81 18.68H1564.59z"/><path fill="#A5A50C" d="M0 109.04"/>
</svg>
