<svg xmlns="http://www.w3.org/2000/svg" version="1.1" x="0" y="0" viewBox="0 0 533 243" enable-background="new 0 0 533 243" xml:space="preserve"><ellipse transform="matrix(1 0.0086 -0.0086 1 2.0248 -0.6562)" fill="#A96A65" cx="77.73" cy="236.38" rx="23.92" ry="4.48"/><ellipse transform="matrix(1 0.0086 -0.0086 1 2.0463 -1.8287)" fill="#A96A65" cx="214.81" cy="238.3" rx="23.92" ry="3.13"/><ellipse transform="matrix(1 0.0086 -0.0086 1 2.035 -3.0377)" fill="#A96A65" cx="356.14" cy="236.38" rx="23.92" ry="4.48"/><ellipse transform="matrix(1 0.0086 -0.0086 1 2.0504 -2.448)" fill="#A96A65" cx="287.2" cy="238.47" rx="23.92" ry="3.13"/><path fill="#5D6674" d="M323.55 209.38l-15.07 6.89c0 0-16.43-3.22-20.87 4.42 -4.45 7.65-12.48 6.39-13.37 2.12l-0.91-23.12c0 0 4.97-5.69 6.75-6.58 1.78-0.89 5.33 1.24 5.33 1.78 0 0.53 2.49 4.8 4.62 5.16s10.14 0 11.56 1.07c0 0 5.43-11.7 2.54-21.44L320.44 172h17.61l1.05 6.22C339.09 178.22 327.91 204.31 323.55 209.38z"/><path fill="#505965" d="M280.96 199.15c0 0 6.79 6.84 11.38 7.83 4.98 1.07 7.11-1.6 9.25 0 2.13 1.6 2.13 1.6 2.13 1.6s9.6 0 18.67-4.71 16.7-27.27 16.7-27.27l-15.72-6.65 -19.25 8.1c0 0 2.98 11.87-2.54 23.07 0 0-6.02-1.81-9.24-0.91 -3.21 0.91-6.22-3.43-6.74-4.75 -0.52-1.32-1.23-1.32-1.85-0.39C283.13 195.99 279.93 197.55 280.96 199.15z"/><path fill="#E2CBA3" d="M279.35 215.24c0 0-0.04-0.16-0.11-0.44 -0.44-1.82-2.03-8.79-1.49-12.1 0.62-3.82 4.88-6.61 4.88-6.61s2.62-2.59-0.46-3.06c-3.08-0.47-7.51 5.16-7.51 5.16l-1.34 1.49 0.91 23.13c0 0 1.92 4.26 6.1 3.41 4.18-0.84 6.75-4.7 6.75-4.7S287.09 213.82 279.35 215.24z"/><path fill="#A1AFC4" d="M497.03 115.83c0 0 2.44 17.52-8.22 22.85 0 0-0.24 7.38-10.03 8.27 0 0-18.17 1.92-40.58-5.19C415.79 134.65 400.47 120 396.73 109c0 0-2.13-1-2.13 0 0 6-2.31 11.11-9.96 12.35 0 0-0.53 15.87-15.65 17.82 0 0 23.12 34.08 24.01 42.79s-3.56 20.24-3.56 20.24 -10.49 5.14-10.14 14.03 1.07 9.95 1.07 10.84c0 0.89 1.72 8.53-5.21 8.89L355 221.56v-13.87l7.97 0.36 9.05-11.56c0 0-5.79-13.52-14.5-15.12s-29.39-7.69-33.93-11.43c0 0-22.52 13.07-60.67 16.01s-78.62-9.47-109.16-32.81c0 0-29.77 22.14-60.45 30.14 0 0-11.48 4.67-10.68 21.34 0.8 16.67 15.47 18.67 15.47 18.67s1.46 5.87-0.27 10.54c0 0-13.47-0.67-38.15-4.53 0 0-3.07-2.27-2.13-8.4s6.54-7.2 6.54-7.2 -8.27-18.81-8.27-24.54c0 0 23.74-14.8 25.88-26.94 2.13-12.14 2.53-21.87 3.07-29.48 0.53-7.6 4.93-28.54 8.54-38.41 3.6-9.87 14.27-27.74 25.74-37.08s21.74-14.27 21.74-14.27 14.94-4.8 29.21-3.33c14.27 1.47 110.57 6 110.57 6s18.67-30.81 53.89-33.08 58.16 21.48 58.16 21.48l11.74 0.27c0 0 10-9.6 11.87-11.87 1.87-2.27 9.87-12 2.4-17.61l-3.2-2.27c0 0 8.54-2.53 10 3.6s-1.47 12.27-1.47 12.27 3.2 2.27 4.4-3.07c1.2-5.33 0.13-10.14 0.13-10.14s4.67 4.4 4.27 20.94 -8.8 17.61-8.8 17.61 -2 0.53 0.67 1.87 4.4 2.67 4.67 5.74c0.27 3.07 4.8 24.14 21.21 32.28 16.41 8.14 18.14 7.47 18.14 7.47l12.54 0.25 0.8 0.02C481.96 91.38 496.1 100.14 497.03 115.83z"/><path opacity="0.51" fill="#505965" d="M325.44 169.76c0 0 5.7-9.38 18.37-12.45 12.67-3.07 27.53 1.91 33.93 9.38 6.4 7.47 10.43 14.68 10.16 26.29 -0.27 11.61-7.19 15.09-8.26 17.62s-3.99 8.28-7.33 10.68c-3.33 2.4-6.8 3.6-6.8 3.6s-2.67-4.27-5.47-4.27 -5.6 0.98-5.6 0.98L353.92 210h6.54l10.67-12.63c0 0-6.54-13.88-13.3-15.39C351.06 180.47 320.57 172.12 325.44 169.76z"/><path fill="#6F7A89" d="M451.19 83.99c0 0 10.9-0.61 18.77-11.68 0 0 12.94 2.13 8.67 19.01C478.63 91.31 459.6 93.19 451.19 83.99z"/><path fill="#E2DDBF" d="M528.25 47.36c0 0 6.8 46.82-32.28 68.43l-19.74-24.32C476.23 91.47 515.31 92.44 528.25 47.36z"/><path fill="#FFFFFF" d="M528.25 47.36c0 0-9.44 36.04-45.2 43.47 0 0 8.27 8.82 10.8 13.68C493.84 104.51 526.11 90.58 528.25 47.36z"/><path opacity="0.51" fill="#505965" d="M297.36 144.73c0 0 8.53 18 26.01 25.21 0 0-25.16 13.67-57.06 15.71 -31.9 2.04-62.32-4.79-77.98-12.45s-27.55-14.19-34.62-20.06c0 0-1.2-1.73-1.2-6.94s-1.47-26.14-4.67-34.41c0 0 7.6 24.41 25.48 40.02s29.48 24.94 72.03 18.14C287.89 163.14 297.36 144.73 297.36 144.73z"/><path fill="#505965" d="M372.06 198.88c0 0 3.05 12.37 3.34 15.61 0.28 3.24-0.69 4.5-0.69 4.5s-5.45 5.5-9.18 5.91c0 0-3.29-7.25-11.07-3.11l-1.72-14.04 8.44 0.31 9.96-10.49L372.06 198.88z"/><path fill="#5D6674" d="M215.86 218.36c0 0 11.47-2.76 11.38 5.16 -0.09 7.91-6.14 9.34-6.14 9.34s-25.43 6.85-27.57 6.94c0 0-1.87-1.78-2.67-5.42 -0.8-3.65-0.71-8.36-0.8-9.34 -0.09-0.98-3.2-8.98-11.11-9.87 -7.91-0.89-11.47 0.53-14.14 1.6 0 0 1.25-19.39-3.2-29.25 -4.45-9.87-10.23-18.08-19.83-26.38l11.92-7.99c0 0 21.13 15.73 35.37 20.43l1.18 28.61C190.26 202.17 211.77 217.11 215.86 218.36z"/><path fill="#E2CBA3" d="M223.78 228.23c0 0-8.45-3.11-14.14 3.91 0 0-16.32-1.21-18.65 2.68 0 0 0.89 4.43 2.85 5.23l27.28-7.2c0 0 5.25-1.07 6.14-8.18C227.25 224.67 225.81 223.8 223.78 228.23z"/><path fill="#505965" d="M190.99 217.96c0 0-25.88-10.04-26.19-13.98 -0.31-3.94-0.54-12.58-4.86-20 -4.32-7.43-9.66-15.26-18.15-22.85l11.92-7.99c0 0 12.46 10.31 35.37 20.43l1.18 28.61 25.61 16.18C215.86 218.36 214.8 223.42 190.99 217.96z"/><path opacity="0.51" fill="#505965" d="M86.89 188.65c0 0-14.37 6.23-16.15 24.55s1.02 17.87 1.02 17.87l26.06 2.76c0 0 1.02-7.38 0.27-10.54 0 0-11.45-1.89-14.86-14.17C79.82 196.84 86.89 188.65 86.89 188.65z"/><path fill="#E2CBA3" d="M59.68 229.29c0 0 4.93-6.14 13.74-4.98 8.8 1.16 9.6 4.61 9.6 4.61s4.24-6.45 15.35-4.32c0 0 1.09 5.17-0.55 9.23C97.82 233.83 87.37 233.59 59.68 229.29z"/><path fill="#A1AFC4" d="M93.29 94.31c0 0-4.93 25.7-38.9 36.37 -33.97 10.67-51.04-5.33-51.04-5.33s4.27 7.69 16.18 9c0 0-15.38-3.05-17.96-5.89 0 0 0.18 5.34 17.96 7.56 17.78 2.22 16.01 2.67 10.94 2.67s-19.3-0.71-24.72-3.2c0 0 2.05 4.89 26.59 5.51s40.28-9.45 54.24-20.33C86.57 120.67 91.39 98.85 93.29 94.31z"/><path opacity="0.51" fill="#505965" d="M476.23 91.47l19.74 24.32c0 0-30.94-0.76-34.59-3.42s-3.02-2.22-3.02-2.22 2.31-0.36 2.4-3.38c0.09-3.02-0.44-11.47-0.44-11.47l-20.54-11.11c0 0-9.96-3.73-11.47-9.34 -1.51-5.6-2.96-21.16-2.01-28.27 0 0 2.32 1.18 2.68 3.21 0.37 2.03 1.97 14.65 10.61 24.97S461.56 92.28 476.23 91.47z"/><path fill="#96DAF8" d="M469.96 72.3c0 0-3.18 16.07-5.88 17.53 -2.7 1.46-11.79-3.81-12.89-5.84 -1.1-2.04 0 0 0 0S462.89 83.28 469.96 72.3"/><path fill="#110803" d="M415.58 49.58c0 0-5.82-17.17 2.6-29.75s6.98-5.03 6.98-5.03L415.58 49.58z"/><path opacity="0.51" fill="#6F7A89" d="M392.6 39.36c0 0 5.47 10.14 11.6 11.6 6.14 1.47 10 0.4 14.41 12.41s7.47 24.01 4.54 38.95c0 0 0.2 2.08 14.01 1.2 0 0 3.07 0.78 3.2-1.81s-0.8-4.32 1.07-4.46c1.87-0.13 7.74-0.67 10.4-0.8 2.67-0.13 8.51-0.27 8.51-0.27s2.96 14.01-1.97 13.96c-4.14-0.04-13.2 0-13.2 0s2.93 11.38-3.33 12.32c-6.27 0.93-32.43 2.06-32.43 2.06s-12.51-11.79-13.85-18.33C394.2 99.65 392.6 39.36 392.6 39.36z"/><path fill="#110803" d="M444.48 98h10.67c0 0 1.47 5.62-2.4 6.09s-4.04-2.62-4.04-2.62 -0.1-1.55-1.57-1.68S444.48 98 444.48 98z"/><path fill="#FFFFFF" d="M490.5 135.28c0 0-13.21 5.55-26.43-7.67 0 0 1.63 16.51 23.71 14.36 0 0 0.86-1.41 1.03-3.29 0 0 3.38-1.5 5.03-4.54"/></svg>