<svg xmlns="http://www.w3.org/2000/svg" version="1.1" x="0" y="0" viewBox="0 0 4000 500" enable-background="new 0 0 4000 500" xml:space="preserve">
  <path fill="#A96A65" d="M732.83 499c0 0 5.24-41.78 33.73-77.06 0.61-0.75 2.2-2.51 2.2-2.51l56.71 39.53 -9.3-12.84 -4.66-1.8 -0.98-5.98 -25.34-35.03c0 0 2.07-1.73 2.94-2.4 8.89-6.86 19.18-12.84 31.07-17.38 2.05-0.78 6.29-2.22 6.29-2.22l20.16 38.79 -8.51-41.99c0 0 3.22-0.7 4.86-1.02 9.32-1.78 19.43-2.76 30.39-2.76 8.85 0 17.09 0.64 24.75 1.82 4.19 0.65 12.06 2.42 12.06 2.42l-12.99 60.79 26.89-56.44c0 0 7.62 2.99 11.13 4.79C997.37 420.07 999.23 499 999.23 499H732.83z"/>
  <path fill="#8E4948" d="M899.73 499c0 0 2.12-16.85 12.05-35.55 1.38-2.59 4.59-7.76 4.59-7.76l34.31 21.88 -22.77-36.39c0 0 2.7-2.68 4.15-3.98 13.89-12.48 33.59-21.86 61.41-21.86 9.95 0 18.73 1.2 26.49 3.31 1.59 0.43 4.65 1.41 4.65 1.41l-10.67 44.93 25.57-38.04c0 0 2.71 1.71 4 2.61 15.01 10.54 23.62 25.31 28.56 38.55 0.62 1.66 1.69 4.88 1.69 4.88l-33.2 13.66 34.87-7.87c0 0 0.79 3.06 1.11 4.56 2 9.34 2.15 15.64 2.15 15.64H899.73z"/>
  <path fill="#A96A65" d="M1681.5 306c0 0 2.97-23.78 19.14-43.8 0.34-0.43 1.25-1.47 1.25-1.47l32.17 22.4 -5.28-7.29 -2.64-1.03 -0.56-3.39 -14.38-19.87c0 0 1.17-0.98 1.67-1.36 5.04-3.89 10.88-7.28 17.62-9.86 1.16-0.44 3.57-1.26 3.57-1.26l11.43 22 -4.82-23.82c0 0 1.82-0.4 2.76-0.58 5.29-1.01 11.02-1.56 17.24-1.56 5.02 0 9.69 0.36 14.04 1.03 2.38 0.37 6.84 1.37 6.84 1.37l-7.37 34.48 15.25-32.01c0 0 4.32 1.78 6.32 2.81 35.82 18.34 36.87 63.21 36.87 63.21H1681.5z"/>
  <path fill="#AA5C66" d="M1776.17 306c0 0 1.21-9.64 6.83-20.25 0.78-1.47 2.61-4.44 2.61-4.44l19.46 12.39 -12.92-20.65c0 0 1.53-1.52 2.35-2.26 7.88-7.08 19.05-12.4 34.83-12.4 5.64 0 10.63 0.68 15.03 1.88 0.9 0.25 2.64 0.8 2.64 0.8l-6.05 25.48 14.51-21.58c0 0 1.54 0.97 2.27 1.48 8.51 5.98 13.4 14.36 16.2 21.87 0.35 0.94 0.96 2.77 0.96 2.77l-18.83 7.75 19.78-4.46c0 0 0.45 1.82 0.63 2.67 1.13 5.3 1.22 8.96 1.22 8.96H1776.17z"/>
  <path fill="#C4C3C0" d="M1748.49 343c0 0 5.92-47.34 52.87-47.34 46.95 0 48.06 47.34 48.06 47.34H1748.49z"/>
  <path fill="#C4C3C0" d="M3355.55 434c0 0 3.59-28.72 32.07-28.72 28.48 0 29.15 28.72 29.15 28.72H3355.55z"/>
  <path fill="#C4C3C0" d="M2103.5 291c0 0 3.58-28.68 32.02-28.68 28.44 0 29.11 28.68 29.11 28.68H2103.5z"/>
  <path fill="#C4C3C0" d="M3058.55 468c0 0 4.75-38.04 42.47-38.04S3139.64 468 3139.64 468H3058.55z"/>
  <path fill="#A96A65" d="M2549.41 395c0 0 1.29-10.3 7.3-21.64 0.83-1.57 2.78-4.75 2.78-4.75l20.8 13.24 -13.8-22.07c0 0 1.64-1.63 2.51-2.42 8.42-7.57 20.36-13.25 37.22-13.25 6.03 0 11.35 0.73 16.06 2.01 0.97 0.26 2.82 0.86 2.82 0.86l-6.46 27.23 15.5-23.06c0 0 1.64 1.03 2.42 1.58 9.1 6.39 14.32 15.34 17.31 23.36 0.37 1 1.02 2.96 1.02 2.96l-20.12 8.28 21.14-4.77c0 0 0.48 1.95 0.68 2.86 1.21 5.66 1.3 9.57 1.3 9.57H2549.41z"/>
  <path fill="#A96A65" d="M3613.5 337c0 0 2.63-21.05 16.94-38.77 0.31-0.38 1.1-1.3 1.1-1.3l28.48 19.83 -4.67-6.46 -2.34-0.91 -0.49-3 -12.73-17.59c0 0 1.04-0.87 1.48-1.2 4.47-3.44 9.63-6.45 15.6-8.73 1.03-0.39 3.16-1.11 3.16-1.11l10.12 19.48 -4.27-21.08c0 0 1.62-0.35 2.44-0.51 4.68-0.89 9.76-1.38 15.26-1.38 4.45 0 8.58 0.32 12.43 0.92 2.1 0.33 6.06 1.22 6.06 1.22l-6.52 30.52 13.5-28.34c0 0 3.82 1.58 5.59 2.48 31.71 16.24 32.64 55.95 32.64 55.95H3613.5z"/>
  <path fill="#AA5C66" d="M3542.41 337c0 0 1-7.97 5.65-16.75 0.65-1.22 2.15-3.68 2.15-3.68l16.1 10.25 -10.68-17.08c0 0 1.27-1.26 1.95-1.87 6.52-5.86 15.76-10.25 28.81-10.25 4.67 0 8.79 0.56 12.43 1.55 0.75 0.2 2.18 0.66 2.18 0.66l-5 21.08 12-17.85c0 0 1.27 0.8 1.88 1.23 7.04 4.94 11.08 11.87 13.4 18.08 0.29 0.78 0.79 2.29 0.79 2.29l-15.57 6.41 16.36-3.69c0 0 0.37 1.51 0.52 2.21 0.94 4.38 1.01 7.41 1.01 7.41H3542.41z"/>
  <path fill="#AA5C66" d="M2785.5 477c0 0 4.83-38.67 31.11-71.21 0.56-0.69 2.03-2.38 2.03-2.38l52.3 36.42 -8.58-11.86 -4.3-1.67 -0.9-5.52 -23.37-32.3c0 0 1.91-1.59 2.71-2.21 8.2-6.32 17.69-11.84 28.65-16.03 1.89-0.72 5.8-2.04 5.8-2.04l18.59 35.77 -7.84-38.72c0 0 2.97-0.65 4.48-0.94 8.6-1.64 17.92-2.54 28.02-2.54 8.16 0 15.76 0.59 22.83 1.68 3.86 0.6 11.12 2.23 11.12 2.23l-11.98 56.06 24.8-52.05c0 0 7.02 2.9 10.27 4.56 58.24 29.83 59.95 102.76 59.95 102.76H2785.5z"/>
</svg>
