<svg xmlns="http://www.w3.org/2000/svg" version="1.1" x="0" y="0" viewBox="0 0 3500 90" enable-background="new 0 0 3500 90" xml:space="preserve"><polygon fill="#8E4948" points="302.98 11.73 278.83 69 322.37 69 "/><polygon fill="#8E4948" points="311.98 11.73 287.83 69 331.37 69 "/><polygon fill="#A35453" points="391.98 11.73 367.83 69 411.37 69 "/><polygon fill="#A35453" points="426.21 16.4 404.83 64 443.37 64 "/><polygon fill="#8E4948" points="275 30.17 253.83 77 292 77 "/><line fill="none" stroke="#443131" stroke-miterlimit="10" x1="272.5" y1="88" x2="272.5" y2="44"/><polygon fill="#A35453" points="333.23 17.73 304.83 75 356.04 75 "/><line fill="none" stroke="#443131" stroke-miterlimit="10" x1="330.5" y1="81" x2="330.5" y2="35"/><polygon fill="#A35453" points="362.23 13.73 333.83 71 385.04 71 "/><line fill="none" stroke="#443131" stroke-miterlimit="10" x1="359.5" y1="77" x2="359.5" y2="31"/><polygon fill="#8E4948" points="399.23 13.73 370.83 71 422.04 71 "/><line fill="none" stroke="#443131" stroke-miterlimit="10" x1="396.5" y1="77" x2="396.5" y2="31"/><ellipse fill="#7A4E60" cx="596.54" cy="31.88" rx="20.54" ry="24.19"/><rect x="596.39" y="55.98" fill="#353727" width="1.46" height="10.03"/><ellipse fill="#8E4948" cx="675.54" cy="43.49" rx="13.89" ry="16.36"/><rect x="675.44" y="59.78" fill="#353727" width="0.99" height="6.79"/><path fill="#7A5B66" d="M1275.5 71c0 0 2.8-22.43 25.05-22.43 22.25 0 22.77 22.43 22.77 22.43H1275.5z"/><path fill="#A36E5B" d="M1305.46 74c0 0 1.88-15.07 16.83-15.07S1337.58 74 1337.58 74H1305.46z"/><ellipse fill="#7A4E60" cx="2249.77" cy="51.87" rx="17.27" ry="20.34"/><rect x="2249.64" y="72.13" fill="#353727" width="1.23" height="8.44"/><path fill="#7A4E60" d="M783.5 71c0 0 0.98-7.83 6.3-14.41 0.11-0.14 0.41-0.48 0.41-0.48l10.59 7.37 -1.74-2.4 -0.87-0.34 -0.18-1.12 -4.73-6.54c0 0 0.39-0.32 0.55-0.45 1.66-1.28 3.58-2.4 5.8-3.24 0.38-0.15 1.17-0.41 1.17-0.41l3.76 7.24 -1.59-7.84c0 0 0.6-0.13 0.91-0.19 1.74-0.33 3.63-0.51 5.67-0.51 1.65 0 3.19 0.12 4.62 0.34 0.78 0.12 2.25 0.45 2.25 0.45l-2.42 11.35 5.02-10.53c0 0 1.42 0.59 2.08 0.92C832.87 56.24 833.22 71 833.22 71H783.5z"/><path fill="#A96A65" d="M814.65 71c0 0 0.4-3.17 2.25-6.66 0.26-0.48 0.86-1.46 0.86-1.46l6.4 4.08 -4.25-6.79c0 0 0.5-0.5 0.77-0.74 2.59-2.33 6.27-4.08 11.46-4.08 1.86 0 3.5 0.22 4.94 0.62 0.3 0.08 0.87 0.26 0.87 0.26l-1.99 8.39 4.77-7.1c0 0 0.51 0.32 0.75 0.49 2.8 1.97 4.41 4.72 5.33 7.19 0.12 0.31 0.32 0.91 0.32 0.91l-6.2 2.55 6.51-1.47c0 0 0.15 0.6 0.21 0.88 0.37 1.74 0.4 2.95 0.4 2.95H814.65z"/><polygon fill="#7A4E60" points="1806.26 0.44 1831.38 60 1786.09 60 "/><polygon fill="#7A4E60" points="1796.9 0.44 1822.01 60 1776.73 60 "/><polygon fill="#7A4E60" points="1718.97 11.44 1739.44 60 1702.52 60 "/><polygon fill="#7A4E60" points="1614.92 21.93 1630.21 56 1602.63 56 "/><polygon fill="#7A4E60" points="1640.36 18.74 1662.38 67.45 1622.68 64.45 "/><line fill="none" stroke="#3C3727" stroke-miterlimit="10" x1="1642.5" y1="76" x2="1642.5" y2="30"/><polygon fill="#7A4E60" points="1774.8 5.44 1804.33 65 1751.08 65 "/><line fill="none" stroke="#3C3727" stroke-miterlimit="10" x1="1776.5" y1="72" x2="1776.5" y2="24"/><polygon fill="#7A4E60" points="1731.36 26.68 1754.33 73 1712.91 73 "/><line fill="none" stroke="#3C3727" stroke-miterlimit="10" x1="1733.5" y1="78" x2="1733.5" y2="41"/><polygon fill="#7A4E60" points="1701.25 14.74 1724.69 62 1682.43 62 "/><line fill="none" stroke="#3C3727" stroke-miterlimit="10" x1="1702.5" y1="67" x2="1702.5" y2="30"/><ellipse fill="#7A4E60" cx="1488.54" cy="43.43" rx="25.54" ry="30.08"/><rect x="1488.35" y="73.4" fill="#353727" width="1.82" height="12.48"/><polygon fill="#5F3B4A" points="3104.98 6.73 3080.83 64 3124.37 64 "/><polygon fill="#7A4E60" points="3113.98 6.73 3089.83 64 3133.37 64 "/><polygon fill="#5F3B4A" points="3193.98 6.73 3169.83 64 3213.37 64 "/><polygon fill="#7A4E60" points="3228.21 11.4 3206.83 59 3245.37 59 "/><polygon fill="#7A4E60" points="3077 25.17 3055.83 72 3094 72 "/><line fill="none" stroke="#3C3727" stroke-miterlimit="10" x1="3075.5" y1="83" x2="3075.5" y2="39"/><polygon fill="#5F3B4A" points="3135.23 12.73 3106.83 70 3158.04 70 "/><line fill="none" stroke="#3C3727" stroke-miterlimit="10" x1="3133.5" y1="76" x2="3133.5" y2="30"/><polygon fill="#7A4E60" points="3164.23 8.73 3135.83 66 3187.04 66 "/><line fill="none" stroke="#3C3727" stroke-miterlimit="10" x1="3162.5" y1="72" x2="3162.5" y2="26"/><polygon fill="#7A4E60" points="3201.23 8.73 3172.83 66 3224.04 66 "/><line fill="none" stroke="#3C3727" stroke-miterlimit="10" x1="3199.5" y1="72" x2="3199.5" y2="26"/><ellipse fill="#8E4948" cx="1202.54" cy="49.49" rx="13.89" ry="16.36"/><rect x="1202.44" y="65.78" fill="#353727" width="0.99" height="6.79"/><ellipse fill="#8E4948" cx="2602.92" cy="49.9" rx="23.27" ry="27.41"/><rect x="2602.75" y="77.2" fill="#353727" width="1.66" height="11.37"/></svg>