<svg xmlns="http://www.w3.org/2000/svg" version="1.1" x="0" y="0" viewBox="0 0 1926 275" enable-background="new 0 0 1926 275" xml:space="preserve">
  <g id="Layer_2">
    <rect fill-rule="evenodd" clip-rule="evenodd" fill="#fdb560" width="1926" height="275"/>
  </g>
  <g id="Layer_1">
    <path fill="#ffc784" d="M1110.71 226.82c0 0-25.05-5.69-47.42-7.28s-83.91-2.36-124.81 1.91c-40.91 4.27-47.79 9.37-47.79 9.37L1110.71 226.82z"/>
    <path fill="#ffc784" d="M1913.71 128.82c0 0-25.05-5.69-47.42-7.28 -22.37-1.6-83.91-2.36-124.81 1.91 -40.91 4.27-47.79 9.37-47.79 9.37L1913.71 128.82z"/>
    <path fill="#ffc784" d="M679.09 125.64c0 0 97.96-14.44 130.24-8.81 32.28 5.63 52.31 5.09 72.66 8.8 20.35 3.71-73.29-6.13-98.64-5.04S687.18 127.28 679.09 125.64z"/>
    <path fill="#ffc784" d="M1417.94 57.87c0 0-32.27-10.65-78.72-7.51s-112.25 7.57-112.25 7.57 111.6-2.28 130.39-0.73C1376.15 58.75 1413.11 57.85 1417.94 57.87z"/>
    <path fill="#ffc784" d="M1051.85 150.03c0 0 201.33-17.96 259.4-8.66 58.08 9.3 170.04 13.72 183.59 14.48C1508.39 156.6 1373 155.33 1352 154s-177.95-3.06-203.81-3.86S1056.37 150.4 1051.85 150.03z"/>
    <path fill="#ffc784" d="M446.41 89.57c0 0-310.07-7.57-364.4-4.24 -54.33 3.33-79.2 41.14-79.2 41.14"/>
  </g>
</svg>
