<svg xmlns:i="http://ns.adobe.com/AdobeIllustrator/10.0/" xmlns="http://www.w3.org/2000/svg" version="1.1" x="0" y="0" viewBox="0 0 38.5 75" enable-background="new 0 0 38.5 75" xml:space="preserve"><path fill="#F7B942" d="M12.07 36.25c0 0 0.86 0.67 1.82 1.86 -2.13-0.79-3.96-2.04-5.49-3.42 0.03-0.19 0.05-0.38 0.05-0.57 0-1.83-1.48-3.31-3.31-3.31 -0.06 0-0.12 0.01-0.17 0.01 -0.54-0.75-0.98-1.44-1.34-2.04 0.46-0.57 0.74-1.29 0.74-2.08 0-1.82-1.47-3.29-3.28-3.31 -0.25-0.7-0.45-1.39-0.61-2.06 1.02-0.56 1.72-1.65 1.72-2.9 0-1.43-0.91-2.64-2.18-3.11 0.09-0.86 0.24-1.67 0.43-2.43 0.31 0.09 0.63 0.14 0.96 0.14 1.83 0 3.31-1.48 3.31-3.31 0-1.11-0.55-2.1-1.4-2.7 1.02-1.33 1.87-2.02 1.87-2.02 0.03-0.02 0.06-0.04 0.08-0.06 0.59 0.89 1.6 1.47 2.75 1.47 1.83 0 3.31-1.48 3.31-3.31 0-0.53-0.13-1.03-0.35-1.48 0.59-0.24 1.18-0.45 1.77-0.62 0.38 1.41 1.66 2.45 3.19 2.45 1.82 0 3.3-1.47 3.31-3.29 0.78 0.03 1.54 0.1 2.28 0.2 -0.09 0.3-0.14 0.61-0.14 0.93 0 1.83 1.48 3.31 3.31 3.31 1.5 0 2.76-1 3.17-2.37 0.46 0.21 0.89 0.42 1.27 0.62 -0.31 0.51-0.5 1.1-0.5 1.74 0 1.33 0.79 2.47 1.92 3l-1.01 2.18c-1.76-2.09-4.69-3.86-9.57-3.81C8.17 6.11 2.34 13.37 3.51 20.5 4.67 27.64 12.07 36.25 12.07 36.25z"/><path fill="#F7B942" d="M36.99 24.2c0.38 0.68 0.44 1.36 0.1 1.61 -0.4 0.29-1.19-0.11-1.77-0.9 -0.58-0.79-0.33-1.96-0.33-1.96s0.95-0.73 1.91-0.55c0.97 0.18 1.67 0.72 1.58 1.21C38.4 24.01 37.77 24.25 36.99 24.2z"/><path fill="#FA6A53" d="M37.11 22.52l-4.12-2.55c0 0-1.01-0.2-0.82-3.61 0 0-0.39-10.51-12.19-10.38C8.17 6.11 2.34 13.37 3.51 20.5c1.17 7.13 8.56 15.75 8.56 15.75s7.37 6.82 2.85 14.47c0 0-9.04 13.34-6.1 18.34 0 0 4.34 9.77 14.27 3.89 0 0 5.44-4.15 0.8-9.91 -1.91-2.37-9.41-2.4-7.19 3.31 0 0 4.57-3.58 4.58 0.73 0 0-0.35 7.76-7.98 2.25 0 0-3.74-3.4 2.54-9.05 0 0 13.79-10.2 16.12-16.33 1.9-4.97 3.2-12.81-8.86-15.85 0 0-11.28-3.96-4.8-10.83 0 0 0.34 6.49 9.38 4.93 0 0 1.55-0.15 2.94 0.53l4.71 2.17L37.11 22.52z"/><path fill="none" stroke="#F4DC84" stroke-linecap="round" stroke-miterlimit="10" d="M30.01 15.29c0 0.82-0.66 1.48-1.48 1.48 -0.82 0-1.48-0.66-1.48-1.48"/><path fill="#F7B942" d="M25.15 52.45c-1.44-2.59-2.32-6-2.32-9.74 0-5.61 1.97-10.48 4.86-12.93 7.05 3.67 5.87 9.95 4.26 14.17C31 46.43 28.18 49.58 25.15 52.45z"/><g opacity="0.21">  <path fill="#2C3F86" d="M12.07 36.25c0 0 0.86 0.67 1.82 1.86 -2.13-0.79-3.96-2.04-5.49-3.42 0.03-0.19 0.05-0.38 0.05-0.57 0-1.83-1.48-3.31-3.31-3.31 -0.06 0-0.12 0.01-0.17 0.01 -0.54-0.75-0.98-1.44-1.34-2.04 0.46-0.57 0.74-1.29 0.74-2.08 0-1.82-1.47-3.29-3.28-3.31 -0.25-0.7-0.45-1.39-0.61-2.06 1.02-0.56 1.72-1.65 1.72-2.9 0-1.43-0.91-2.64-2.18-3.11 0.09-0.86 0.24-1.67 0.43-2.43 0.31 0.09 0.63 0.14 0.96 0.14 1.83 0 3.31-1.48 3.31-3.31 0-1.11-0.55-2.1-1.4-2.7 1.02-1.33 1.87-2.02 1.87-2.02 0.03-0.02 0.06-0.04 0.08-0.06 0.59 0.89 1.6 1.47 2.75 1.47 1.83 0 3.31-1.48 3.31-3.31 0-0.53-0.13-1.03-0.35-1.48 0.59-0.24 1.18-0.45 1.77-0.62 0.38 1.41 1.66 2.45 3.19 2.45 1.82 0 3.3-1.47 3.31-3.29 0.78 0.03 1.54 0.1 2.28 0.2 -0.09 0.3-0.14 0.61-0.14 0.93 0 1.83 1.48 3.31 3.31 3.31 1.5 0 2.76-1 3.17-2.37 0.46 0.21 0.89 0.42 1.27 0.62 -0.31 0.51-0.5 1.1-0.5 1.74 0 1.33 0.79 2.47 1.92 3l-1.01 2.18c-1.76-2.09-4.69-3.86-9.57-3.81C8.17 6.11 2.34 13.37 3.51 20.5 4.67 27.64 12.07 36.25 12.07 36.25z"/>  <path fill="#2C3F86" d="M36.99 24.2c0.38 0.68 0.44 1.36 0.1 1.61 -0.4 0.29-1.19-0.11-1.77-0.9 -0.58-0.79-0.33-1.96-0.33-1.96s0.95-0.73 1.91-0.55c0.97 0.18 1.67 0.72 1.58 1.21C38.4 24.01 37.77 24.25 36.99 24.2z"/>  <path fill="#2C3F86" d="M37.11 22.52l-4.12-2.55c0 0-1.01-0.2-0.82-3.61 0 0-0.39-10.51-12.19-10.38C8.17 6.11 2.34 13.37 3.51 20.5c1.17 7.13 8.56 15.75 8.56 15.75s7.37 6.82 2.85 14.47c0 0-9.04 13.34-6.1 18.34 0 0 4.34 9.77 14.27 3.89 0 0 5.44-4.15 0.8-9.91 -1.91-2.37-9.41-2.4-7.19 3.31 0 0 4.57-3.58 4.58 0.73 0 0-0.35 7.76-7.98 2.25 0 0-3.74-3.4 2.54-9.05 0 0 13.79-10.2 16.12-16.33 1.9-4.97 3.2-12.81-8.86-15.85 0 0-11.28-3.96-4.8-10.83 0 0 0.34 6.49 9.38 4.93 0 0 1.55-0.15 2.94 0.53l4.71 2.17L37.11 22.52z"/>  <path fill="#2C3F86" stroke="#F4DC84" stroke-linecap="round" stroke-miterlimit="10" d="M30.01 15.29c0 0.82-0.66 1.48-1.48 1.48 -0.82 0-1.48-0.66-1.48-1.48"/>  <path fill="#2C3F86" d="M25.15 52.45c-1.44-2.59-2.32-6-2.32-9.74 0-5.61 1.97-10.48 4.86-12.93 7.05 3.67 5.87 9.95 4.26 14.17C31 46.43 28.18 49.58 25.15 52.45z"/></g>
</svg>
