<svg xmlns="http://www.w3.org/2000/svg" version="1.1" x="0" y="0" viewBox="0 0 1920 469" enable-background="new 0 0 1920 469" xml:space="preserve"><path opacity="0.5" fill="#2B4086" d="M123.5 359.3c0 0 30.8-44.5 132.1-49.4 115.8-5.6 272.6 88.2 391.1 19.8S741.2 179.5 797.8 167.7c56.6-11.8 88 104.6 108.2 131.6C944 350.3 995.6 362.7 1024 341.1c34.8-26.5 131-97.4 233 9 64 66.8 170.5 58.2 233.1 32.8C1552.6 357.5 1617.7 469 1617.7 469H98.3C98.3 469 102.4 390.9 123.5 359.3z"/><path opacity="0.5" fill="#2B4086" d="M1920 4.5c0 0-63.2-8.3-93.2 49.2 0 0-96.1 176.3-206.9 173.3s-136.4-161-208.6-12 -116.3 253.8-116.3 253.8L1920 469.8V4.5z"/><path opacity="0.5" fill="#2B4086" d="M0 87c13.6 5 28.3 10.9 44 17.9 144.7 64.1 185.4-3.6 231.1-37.9 94.2-70.8 151.4 32.6 182.2 90s64.1 206.2 229.1 204.2 263.1 99.4 302 92.3C1027.2 446.2 1301.1 472 1301.1 472L0 469C0 469 0 63 0 87z"/>
</svg>
