<svg xmlns:i="http://ns.adobe.com/AdobeIllustrator/10.0/" xmlns="http://www.w3.org/2000/svg" version="1.1" id="Layer_1" x="0" y="0" viewBox="0 0 1920 430" enable-background="new 0 0 1920 430" xml:space="preserve"><path fill="#2a366f" d="M1455.17 313.93c13.33-65.16 109.09-158.88 205.87-143.74C1796.38 191.35 1813.79 75.2 1919 56.27c0.9 20.22 0 314.31 0 314.31L1455.17 313.93z"/><radialGradient id="SVGID_1_" cx="575.09" cy="40.81" r="167.89" gradientUnits="userSpaceOnUse">  <stop offset="0" stop-color="#51C1B6"/>  <stop offset="0.14" stop-color="#50BAB5"/>  <stop offset="0.39" stop-color="#4AA9B4"/>  <stop offset="0.7" stop-color="#4390B0"/>  <stop offset="1" stop-color="#3D76AA"/></radialGradient><path fill="url(#SVGID_1_)" d="M1919 247.19c-67-12.35-136.57-22.14-206-22.14 -206 0-307 74.83-524.63 70.65C1009.51 292.27 796.5 226 629.42 226.06 406.69 226.13 269.88 296 269.88 296L270 409.36l1649 20.77C1919 430.12 1919 363 1919 247.19z"/><path fill="#283F83" d="M-1-0.87c8.02 15.2 28.5 70.63 119.92 95.94C440.39 144 565.38 366.77 559.97 383c-42.95 0-150.51 0-193.46 0L-1 382.88V-0.87z"/>
</svg>
