<svg xmlns:i="http://ns.adobe.com/AdobeIllustrator/10.0/" xmlns="http://www.w3.org/2000/svg" version="1.1" x="0" y="0" viewBox="0 0 1920 239" enable-background="new 0 0 1920 239" xml:space="preserve"><path fill="#1E2853" d="M1920 183.12c-83.44-21.59-170.44-45.87-265.04-44.97C1442.3 140.17 1316 241 991.63 241 741.57 241 677 140.68 481.97 137c-109.38-2.06-344.42 67.13-467.36 106 79.05 0.12 1789.15 0.27 1905.52 0C1920.03 230.92 1919.95 211.49 1920 183.12z"/><path fill="#2A366F" d="M540.08 243C506.03 186.64 435.53 106.67 305 51.28 193.1 3.79 98.48-4 0 11.51 0 78.36 0 172.69 0 243 63.87 243.27 400.12 242.98 540.08 243z"/>
</svg>
