<svg xmlns="http://www.w3.org/2000/svg" version="1.1" x="0" y="0" viewBox="0 0 1920 469" enable-background="new 0 0 1920 469" xml:space="preserve"><path fill="#263876" d="M0 142.1c46-4.3 89.9-17 125.7-47.4 73.7-62.6 184.9-130.7 274-4.7C497.6 228.2 524.6 264.3 566.6 224.3c43.5-41.4 82.6-99.3 138.1 2.7 21.3 39.1 48.8 96.7 139.8 96.7 71.5 0-566.9-4.1-844.6-5.9C0 207.6 0 188.3 0 142.1zM1383.5 357.2c0 0-25.3-10.5-51.9-59.6s-73.2-64.5-102.8-28.4c-14.4 17.5-48.8 59.2-118.2 59.2 -45.7 0-69.7-44.1-96.7-75.2 -23.5-27-43.1-20.8-57.5 5.5C942.1 284.9 885 346.7 885 346.7L1383.5 357.2zM1473.6 429.9c-111.9 29.3-136.5 54.3-130.9 31.3 10.7-44.2 85.9-180.8 310.6-276.1C1748.6 144.6 1920 129.2 1920 129.2v300.6L1473.6 429.9z"/>
</svg>
