<svg xmlns:i="http://ns.adobe.com/AdobeIllustrator/10.0/" xmlns="http://www.w3.org/2000/svg" version="1.1" id="Layer_1" x="0" y="0" viewBox="0 0 200 67" enable-background="new 0 0 200 67" xml:space="preserve">
  <polygon fill="#96CCC1" points="105.98 35.57 77.98 11.1 73.44 14.77 57.97 0.53 42.22 14.35 38.1 10.75 18.48 29.11 7.88 20.58 0.23 27.24 0.23 57.05 10.67 65.72 25.77 48.6 37.66 60.14 53.41 46.32 57.53 49.92 60.75 46.95 77.53 60.49 "/>
  <linearGradient id="SVGID_1_" gradientUnits="userSpaceOnUse" x1="526.72" y1="-60.04" x2="526.72" y2="-448.59" gradientTransform="matrix(0.0699 0 0 -0.0699 28.8699 15.587)">
    <stop offset="0" stop-color="#65A796"/>
    <stop offset="0.18" stop-color="#6EAD9E"/>
    <stop offset="1" stop-color="#90CFC6"/>
  </linearGradient>
  <polygon fill="url(#SVGID_1_)" points="0.23 27.12 8.39 31.21 17.59 24.37 30.49 33.22 44.96 22.07 56.67 30.52 59.22 28.5 66.12 32.34 73.38 26.35 86.52 33.99 101.36 27.44 113 32.29 119.96 26.01 131.17 33.22 131.17 65.38 0.23 65.38 "/>
  <polygon fill="#679B8D" points="26.34 29.25 26.92 26.75 27.5 29.25 "/>
  <polygon fill="#679B8D" points="27.34 28 27.92 25.5 28.5 28 "/>
  <polygon fill="#679B8D" points="20.22 33.82 20.8 31.32 21.38 33.82 "/>
  <polygon fill="#679B8D" points="10.93 38.05 11.51 35.55 12.09 38.05 "/>
  <polygon fill="#679B8D" points="7.88 40.33 8.46 37.83 9.04 40.33 "/>
  <polygon fill="#679B8D" points="6.72 40.33 7.3 37.83 7.88 40.33 "/>
  <polygon fill="#679B8D" points="5.56 40.33 6.14 37.83 6.72 40.33 "/>
  <polygon fill="#679B8D" points="24.29 31.32 24.87 28.82 25.45 31.32 "/>
  <polygon fill="#679B8D" points="17.9 36.86 18.48 34.36 19.06 36.86 "/>
  <polygon fill="#679B8D" points="19.06 35.61 19.64 33.11 20.22 35.61 "/>
  <polygon fill="#679B8D" points="38.88 36.86 39.46 34.36 40.04 36.86 "/>
  <polygon fill="#679B8D" points="33.69 31.56 34.27 29.06 34.85 31.56 "/>
  <polygon fill="#679B8D" points="30.75 28 31.33 25.5 31.91 28 "/>
  <polygon fill="#679B8D" points="31.91 28.52 32.49 26.02 33.07 28.52 "/>
  <polygon fill="#679B8D" points="53.83 31.75 54.41 29.25 54.99 31.75 "/>
  <polygon fill="#679B8D" points="50.62 34.24 51.2 31.75 51.78 34.24 "/>
  <polygon fill="#679B8D" points="49.47 35.16 50.05 32.66 50.63 35.16 "/>
  <polygon fill="#679B8D" points="68.45 34.24 69.03 31.75 69.61 34.24 "/>
  <polygon fill="#679B8D" points="76.03 35.97 76.61 33.47 77.19 35.97 "/>
  <polygon fill="#679B8D" points="76.61 35.07 77.19 32.57 77.77 35.07 "/>
  <polygon fill="#679B8D" points="74.45 36.74 75.03 34.24 75.61 36.74 "/>
  <polygon fill="#679B8D" points="79.71 32.99 80.29 30.5 80.87 32.99 "/>
  <polygon fill="#679B8D" points="86.31 34.55 86.89 32.05 87.47 34.55 "/>
  <polygon fill="#679B8D" points="84.98 33.82 85.56 31.32 86.14 33.82 "/>
  <polygon fill="#679B8D" points="80.87 33.3 81.45 30.8 82.03 33.3 "/>
  <polygon fill="#679B8D" points="62.75 31.75 63.33 29.25 63.91 31.75 "/>
  <polygon fill="#679B8D" points="66.46 33.82 67.04 31.32 67.62 33.82 "/>
  <polygon fill="#679B8D" points="69.61 35.49 70.19 32.99 70.77 35.49 "/>
  <polygon fill="#679B8D" points="70.94 36.41 71.52 33.91 72.1 36.41 "/>
  <polygon fill="#679B8D" points="45.32 37.41 45.9 34.91 46.48 37.41 "/>
  <polygon fill="#679B8D" points="40.04 37.66 40.62 35.16 41.2 37.66 "/>
  <polygon fill="#679B8D" points="37.09 34.72 37.67 32.22 38.25 34.72 "/>
  <polygon fill="#679B8D" points="61.17 30.98 61.75 28.48 62.33 30.98 "/>
  <polygon fill="#679B8D" points="61.75 31.75 62.33 29.25 62.91 31.75 "/>
  <polygon fill="#679B8D" points="52.67 33.82 53.25 31.32 53.83 33.82 "/>
  <polygon fill="#679B8D" points="0.23 43.47 13.89 35.26 16.42 36.92 30.17 25.26 42.25 38.5 59.55 28.44 73.82 36.04 83.01 30.63 99.09 42.43 99.09 68 0.23 68 "/>
  <linearGradient id="SVGID_2_" gradientUnits="userSpaceOnUse" x1="300.84" y1="-376" x2="295.77" y2="-687.18" gradientTransform="matrix(0.0699 0 0 -0.0699 28.8699 15.587)">
    <stop offset="0" style="stop-color:#57B2A2;stop-opacity:0"/>
    <stop offset="0.31" style="stop-color:#69B3A4;stop-opacity:0.31"/>
    <stop offset="1" stop-color="#84BCAE"/>
  </linearGradient>
  <polygon fill="url(#SVGID_2_)" points="0.23 43.53 13.92 35.3 16.45 36.96 30.2 25.3 42.29 38.53 59.59 28.48 73.86 36.08 83.05 30.67 99.13 42.47 99.13 68.04 0.23 68.04 "/>
  <linearGradient id="SVGID_3_" gradientUnits="userSpaceOnUse" x1="0.28" y1="58.82" x2="0.08" y2="46.48">
    <stop offset="0" style="stop-color:#57B2A2;stop-opacity:0"/>
    <stop offset="0.31" style="stop-color:#69B3A4;stop-opacity:0.31"/>
    <stop offset="1" stop-color="#84BCAE"/>
  </linearGradient>
  <line fill="url(#SVGID_3_)" x1="0.23" y1="43.53" x2="0.23" y2="68.04"/>
  <polygon fill="#679B8D" points="198.9 47.02 179.29 35.25 176.76 36.91 163.01 25.24 150.93 38.48 133.63 28.42 119.36 36.02 110.17 30.61 94.09 42.41 94.09 67.98 199 67.98 "/>
  <linearGradient id="SVGID_4_" gradientUnits="userSpaceOnUse" x1="-926.14" y1="-376.88" x2="-931.23" y2="-689.55" gradientTransform="matrix(-0.059 0 0 -0.0699 91.6229 15.587)">
    <stop offset="0" style="stop-color:#57B2A2;stop-opacity:0"/>
    <stop offset="0.31" style="stop-color:#69B3A4;stop-opacity:0.31"/>
    <stop offset="1" stop-color="#84BCAE"/>
  </linearGradient>
  <polygon fill="url(#SVGID_4_)" points="198.86 47.06 179.26 35.28 176.73 36.94 162.98 25.28 150.9 38.52 133.59 28.46 119.32 36.06 110.13 30.65 94.05 42.45 94.05 68.02 198.96 68.02 "/>
</svg>
