<svg xmlns="http://www.w3.org/2000/svg" version="1.1" id="Layer_1" x="0" y="0" viewBox="0 0 3000 200" enable-background="new 0 0 3000 200" xml:space="preserve"><path fill="#FFFFFF" d="M1456.13 197.92c0 0-8.54-12.58-20.46-12.25 -9.6 0.27-21 4-21 4S1398 149 1349.83 147.5c-56.83-1.77-74.25 32.5-74.25 32.5s-14.92-26.33-46.75-7.83c-5.38 3.13-15.67 13.58-15.67 13.58s-10.5-12.25-34-12.25c-42.83 0-58.92 24.5-58.92 24.5L1456.13 197.92z"/><path fill="#FFFFFF" d="M2627.25 41.93c0 0 6.78-9.99 16.24-9.72 7.62 0.21 16.67 3.17 16.67 3.17s13.23-32.27 51.45-33.46c45.1-1.4 58.92 25.79 58.92 25.79s11.84-20.9 37.1-6.22c4.27 2.48 12.43 10.78 12.43 10.78s8.33-9.72 26.98-9.72C2881.03 22.56 2893.79 42 2893.79 42L2627.25 41.93z"/><path fill="#FFFFFF" d="M360 187h68.75c0 0-9.82-12.53-23.6-12.72 -18.5-0.25-25.4 4.92-25.4 4.92s-26.68-20.66-51.75-20.53c-34.44 0.17-50.46 16.79-50.46 16.79s-19.16-28.34-69.41-28.34C147.67 147.12 106.24 187 106.24 187H336"/><path opacity="0.81" fill="#FFFFFF" d="M683 146c0 0 87.03 0 92.13 0s26.54-0.08 26.54-0.08 -7.63-23.79-47.79-23.67c-25.54 0.08-40.75 19.25-40.75 19.25s-15.79-11.83-34.72-11.65C664.63 129.98 649.67 146 649.67 146H683z"/><path opacity="0.81" fill="#FFFFFF" d="M2138.67 198c0 0 130.55 0 138.19 0 7.64 0 39.81-0.12 39.81-0.12s-11.44-35.68-71.69-35.5c-38.31 0.12-61.12 28.87-61.12 28.87s-23.69-17.75-52.09-17.48c-20.66 0.2-43.1 24.23-43.1 24.23H2138.67z"/></svg>