<?xml version="1.0" encoding="utf-8"?>
<!-- Generator: Adobe Illustrator 18.1.1, SVG Export Plug-In . SVG Version: 6.00 Build 0)  -->
<svg version="1.1" id="Layer_1" xmlns="http://www.w3.org/2000/svg" xmlns:xlink="http://www.w3.org/1999/xlink" x="0px" y="0px"
	 viewBox="0 0 95.533 54.447" enable-background="new 0 0 95.533 54.447" xml:space="preserve">
<rect x="45.515" y="13.532" transform="matrix(-0.8872 0.4613 -0.4613 -0.8872 107.8016 2.9095)" fill="#5E372F" width="16.061" height="2.197"/>
<polygon fill="#EEF3F4" points="45.942,14.763 46.981,16.77 48.54,15.991 48.752,16.392 50.075,15.708 50.146,15.164 51.634,14.385 
	52.602,14.857 54.35,13.96 54.421,13.086 56.665,11.905 56.949,11.621 60.161,9.944 59.122,7.984 "/>
<rect x="27.143" y="15.562" transform="matrix(-0.8872 0.4613 -0.4613 -0.8872 75.2263 14.9323)" fill="#5E372F" width="17.289" height="2.197"/>
<rect x="10.44" y="7.441" transform="matrix(-0.8872 0.4613 -0.4613 -0.8872 33.2598 40.5986)" fill="#5E372F" width="2.456" height="33.847"/>
<polygon fill="#5E372F" points="35.478,31.061 33.305,32.194 20.621,7.866 22.794,6.755 "/>
<rect x="8.1" y="16.386" transform="matrix(-0.8872 0.4613 -0.4613 -0.8872 39.6678 25.2724)" fill="#5E372F" width="17.289" height="2.197"/>
<polygon fill="#5E372F" points="50.382,23.313 48.209,24.447 38.69,6.141 40.863,5.008 "/>
<polygon fill="#5E372F" points="65.287,15.542 63.113,16.676 55.579,4.582 57.752,3.449 "/>
<polygon fill="#EEF3F4" points="27.919,16.511 29.147,18.873 29.88,19.298 30.99,18.707 31.864,17.455 34.179,16.251 35.596,16.322 
	36.446,15.92 37.249,15.377 37.249,15.377 38.926,14.408 39.777,14.574 40.58,14.149 41.477,13.676 41.95,12.212 40.981,10.346 "/>
<polygon fill="#EEF3F4" points="9.425,17.385 10.511,19.487 12.401,19.085 13.369,17.999 17.928,15.637 19.038,15.613 
	19.794,15.235 20.691,14.196 23.904,12.519 21.683,11.031 "/>
<polygon fill="#EEF3F4" points="17.172,32.265 20.573,38.808 28.533,34.675 26.313,33.163 24.353,33.848 23.408,32.549 
	21.754,31.935 18.613,32.242 17.904,31.887 "/>
<polygon fill="#EEF3F4" points="32.383,25.108 35.478,31.061 42.422,27.447 36.8,25.108 35.312,25.345 34.344,24.612 "/>
<path fill="#EEF3F4" d="M48.351,19.392l2.031,3.921c0,0,4.724-2.457,4.393-2.268c-0.354,0.189-5.031-1.535-5.031-1.535
	L48.351,19.392z M63.326,11.598l2.031,3.921c0,0,4.724-2.457,4.393-2.268s-5.031-1.535-5.031-1.535L63.326,11.598z"/>
<g opacity="0.2">
	<polygon fill="#4D9880" points="62.925,18.377 48.422,25.793 48.044,26.644 62.57,19.203 	"/>
	<polygon fill="#4D9880" points="48.776,26.951 49.154,26.077 50.736,25.25 50.807,25.085 52.154,24.4 52.366,24.423 53.878,23.668 
		54.61,23.03 56.382,22.109 56.665,22.179 58.98,20.998 59.287,20.88 62.57,19.203 62.192,20.054 	"/>
	<polygon fill="#4D9880" points="47.335,28.25 31.722,36.234 31.344,37.084 46.957,29.077 	"/>
	<polygon fill="#4D9880" points="20.006,38.808 17.786,39.942 12.519,52.036 14.739,50.902 	"/>
	<polygon fill="#4D9880" points="35.194,31.037 32.974,32.171 29.124,40.981 31.344,39.847 	"/>
	<polygon fill="#4D9880" points="30.376,39.304 14.763,47.311 14.385,48.138 30.021,40.155 	"/>
	<polygon fill="#4D9880" points="50.382,23.266 48.162,24.4 45.611,30.281 47.808,29.147 	"/>
	<polygon fill="#4D9880" points="65.57,15.495 63.35,16.629 61.885,20.006 64.106,18.873 	"/>
	<polygon fill="#4D9880" points="32.454,37.296 32.903,36.281 33.446,35.785 34.58,35.218 35.69,34.864 38.052,33.659 
		39.281,32.809 40.107,32.36 40.958,31.958 40.958,31.958 42.706,31.108 43.414,30.588 44.241,30.163 45.162,29.691 45.965,29.596 
		45.611,30.399 	"/>
	<polygon fill="#4D9880" points="15.991,48.02 16.392,47.123 18.14,46.06 19.274,45.634 23.927,43.249 24.919,42.587 25.675,42.209 
		26.738,41.808 30.021,40.155 28.486,41.619 	"/>
	<path fill="#4D9880" d="M96.04-0.118c-2.764,1.441-2.834,1.37-7.417,3.826c-21.4,12.283-39.847,23.951-52.413,32.218
		C19.628,46.815,9.377,54.256,9.283,54.327l1.039,0.071c0.094-0.071,10.18-7.393,26.573-18.14
		C51.988,26.313,75.75,11.243,102.89-3.638L96.04-0.118z"/>
	<polygon fill="#4D9880" points="18.778,41.619 20.006,38.808 28.132,34.651 26.573,36.139 24.66,37.202 24.187,37.934 
		22.912,38.974 20.054,40.769 19.534,41.241 	"/>
	<polygon fill="#4D9880" points="34.084,33.588 35.194,31.037 42.28,27.423 37.958,31.013 36.588,31.864 35.95,32.502 	"/>
	<path fill="#4D9880" d="M49.65,24.967l0.732-1.677c0,0,4.819-2.457,4.464-2.291c-0.354,0.165-4.015,3.142-4.015,3.142L49.65,24.967
		z M64.909,17.148l0.732-1.677c0,0,4.819-2.457,4.464-2.291c-0.354,0.165-4.015,3.142-4.015,3.142L64.909,17.148z"/>
	<path fill="#4D9880" d="M101.024-2.716c-4.039,2.22-9.023,5.078-13.062,7.393C66.845,16.841,49.768,27.801,37.226,36.045
		c-16.581,10.889-26.833,18.329-26.927,18.4l1.039,0.071c0.094-0.071,10.18-7.393,26.573-18.14C53.004,26.431,79.86,9.212,107-5.669
		L101.024-2.716z"/>
</g>
<polygon fill="#5E372F" points="0,14.834 91.009,2.409 94.434,0.709 0,10.015 "/>
<polygon fill="#EEF2F2" points="0,10.346 93.064,1.228 95.898,0 0,8.291 "/>
<g>
</g>
<g>
</g>
<g>
</g>
<g>
</g>
<g>
</g>
<g>
</g>
</svg>
