<svg xmlns:i="http://ns.adobe.com/AdobeIllustrator/10.0/" xmlns="http://www.w3.org/2000/svg" version="1.1" x="0" y="0" viewBox="0 0 2220 664" xml:space="preserve">
  <polygon points="620.67 573.98 1283.88 444.87 1543.55 502.48 1729.07 455.4 1896.75 467.15 1459.73 542.83 1217.53 512.09 794.67 625.93 " fill="#C1E5DE"/>
  <polygon points="0.67 58.9 225.66 17.43 393.31 38.7 511.55 25.97 566.02 51.13 504.62 41.27 307.2 57.81 202.6 63.05 58.63 69.15 " fill="#C1E5DE"/>
  <polygon points="1471.67 652.81 1729.24 571.57 1846.14 590.25 1953.2 585.41 2037.01 645.04 1975.61 635.18 1787.97 664.12 1707.3 647.03 1529.63 663.06 " fill="#C1E5DE"/>
  <polygon points="378.2 279.5 635.78 198.26 752.67 216.94 859.74 212.1 943.55 271.73 882.15 261.88 694.51 290.81 613.84 273.72 436.16 289.75 " fill="#C1E5DE"/>
  <polygon points="1655.06 365.12 1912.64 283.88 2029.53 302.56 2136.59 297.72 2220.4 357.35 2159.01 347.5 1971.37 376.43 1890.69 359.34 1713.02 375.37 " fill="#C1E5DE"/>
  <polygon points="1364.2 414.66 1438.59 390.32 1466.6 404.73 " fill="#C1E5DE"/>
  <polygon points="1432.72 87.63 1507.11 63.29 1535.12 77.69 " fill="#C1E5DE"/>
  <polygon points="1742.76 63.67 1817.56 40.64 1845.31 55.54 " fill="#C1E5DE"/>
  <polygon points="1625.32 217.43 1700.12 194.4 1727.88 209.29 " fill="#C1E5DE"/>
  <polygon points="1228.82 162.17 1269.44 137.94 1331.22 152.23 " fill="#C1E5DE"/>
  <polygon points="656.12 24.82 696.74 0.6 758.52 14.89 " fill="#C1E5DE"/>
  <polygon points="843.53 157.37 884.16 133.15 945.93 147.44 " fill="#C1E5DE"/>
  <polygon points="1075.6 205.42 1212.98 200.65 1146.05 174.07 1109.69 185.24 " fill="#C1E5DE"/>
  <polygon points="1145.41 418.93 1282.8 414.16 1215.87 387.58 1179.5 398.75 " fill="#C1E5DE"/>
  <polygon points="939.11 329.9 1076.49 325.13 1009.56 298.55 973.2 309.72 " fill="#C1E5DE"/>
</svg>
