<svg xmlns="http://www.w3.org/2000/svg" version="1.1" x="0" y="0" viewBox="0 0 1636.9 841.5" enable-background="new 0 0 1636.948 841.481" xml:space="preserve"><polygon fill="#7E7B2E" points="1114.2 732.6 1163.7 730 1187.1 684.8 1149.1 665.2 "/><polygon fill="#6B6B25" points="1134.4 693.6 1176.6 705.2 1187.1 684.8 1149.1 665.2 "/><polygon fill="#143E3F" points="1038.2 614.8 1400.1 189.8 1448.7 132.6 1292.3 746.2 "/><polygon fill="#143E3F" points="1388.7 198.3 1391.6 202.7 1400.8 190.2 "/><polygon fill="#143E3F" points="1280.7 321.9 1286.6 329.4 1301.5 310.1 "/><polygon fill="#143E3F" points="1242.7 368.5 1248.6 376 1263.5 356.7 "/><polygon fill="#143E3F" points="1195.2 425.1 1201.1 432.6 1216.1 413.3 "/><polygon fill="#143E3F" points="1109.8 523.7 1115.7 531.3 1130.7 512 "/><polygon fill="#143E3F" points="1094.5 540.8 1100.4 548.4 1115.3 529.1 "/><polygon fill="#143E3F" points="1297.7 305 1303.6 312.6 1318.5 293.3 "/><polyline fill="#143E3F" points="1410.6 277.6 1412.1 298.9 1403.8 298.7 "/><polyline fill="#143E3F" points="1414.9 257.1 1416.4 278.4 1408.2 278.2 "/><polygon fill="#143E3F" points="1375.5 436.4 1367.3 436.2 1374 415 "/><polygon fill="#143E3F" points="1349.4 536.6 1341.1 536.4 1347.9 515.2 "/><polygon fill="#143E3F" points="1322.7 642.6 1314.4 642.5 1321.2 621.3 "/><polygon fill="#143E3F" points="1378.9 414.7 1370.7 414.6 1377.4 393.4 "/><polygon fill="#7E7B2E" points="261.4 685.8 309 683.3 331.5 639.7 295 620.8 "/><polygon fill="#6B6B25" points="280.8 648.2 321.4 659.3 331.5 639.7 295 620.8 "/><polygon fill="#143E3F" points="188.2 572.3 536.5 163.3 583.3 108.3 432.8 698.9 "/><polygon fill="#143E3F" points="517.1 175 522.8 182.3 537.1 163.7 "/><polygon fill="#143E3F" points="419.5 289.4 425.2 296.6 439.6 278.1 "/><polygon fill="#143E3F" points="382.3 333.9 387.9 341.1 402.3 322.6 "/><polygon fill="#143E3F" points="338 389.1 343.6 396.3 358 377.8 "/><polygon fill="#143E3F" points="256.5 484.3 262.1 491.6 276.5 473 "/><polygon fill="#143E3F" points="241 500.5 246.7 507.7 261.1 489.2 "/><polygon fill="#143E3F" points="436.6 273.5 442.2 280.8 456.6 262.2 "/><polyline fill="#143E3F" points="545.9 249.5 548.3 272.4 539.1 272 "/><polyline fill="#143E3F" points="550.1 227.7 552.5 250.6 543.2 250.2 "/><polygon fill="#143E3F" points="511.9 418.5 502.7 418.1 509.6 395.6 "/><polygon fill="#143E3F" points="481.2 522.5 472 522 478.8 499.6 "/><polygon fill="#143E3F" points="456.5 636.1 447.2 635.6 454.1 613.2 "/><polygon fill="#143E3F" points="515 395.4 505.8 395 512.7 372.5 "/></svg>