<?xml version="1.0" encoding="utf-8"?>
<!-- Generator: Adobe Illustrator 18.1.1, SVG Export Plug-In . SVG Version: 6.00 Build 0)  -->
<svg version="1.1" id="Layer_1" xmlns="http://www.w3.org/2000/svg" xmlns:xlink="http://www.w3.org/1999/xlink" x="0px" y="0px"
	 viewBox="0 0 1178 39" enable-background="new 0 0 1178 39" xml:space="preserve">
<g>
	<path fill="#FFFFFF" d="M150.916,9.39h-12.773c-0.539,0-0.976,0.437-0.976,0.976v0c0,0.539,0.437,0.976,0.976,0.976h12.773
		c0.539,0,0.976-0.437,0.976-0.976v0C151.892,9.827,151.455,9.39,150.916,9.39z"/>
	<path fill="#FFFFFF" d="M67.185,9.39H55.643c-0.539,0-0.976,0.437-0.976,0.976v0c0,0.539,0.437,0.976,0.976,0.976h11.542
		c0.539,0,0.976-0.437,0.976-0.976v0C68.161,9.827,67.724,9.39,67.185,9.39z"/>
	<path fill="#FFFFFF" d="M27.185,9.39h-9.271c-0.539,0-0.976,0.437-0.976,0.976v0c0,0.539,0.437,0.976,0.976,0.976h9.271
		c0.539,0,0.976-0.437,0.976-0.976v0C28.161,9.827,27.724,9.39,27.185,9.39z"/>
	<path fill="#FFFFFF" d="M110.293,9.39H90.476c-0.539,0-0.976,0.437-0.976,0.976v0c0,0.539,0.437,0.976,0.976,0.976h19.817
		c0.539,0,0.976-0.437,0.976-0.976v0C111.27,9.827,110.832,9.39,110.293,9.39z"/>
	<path fill="#FFFFFF" d="M191.688,9.487h-6.975c-0.485,0-0.879,0.393-0.879,0.879v0c0,0.485,0.393,0.879,0.879,0.879h6.975
		c0.485,0,0.879-0.393,0.879-0.879v0C192.566,9.881,192.173,9.487,191.688,9.487z"/>
	<path fill="#FFFFFF" d="M209.987,9.487h-6.691c-0.485,0-0.879,0.393-0.879,0.879v0c0,0.485,0.393,0.879,0.879,0.879h6.691
		c0.485,0,0.879-0.393,0.879-0.879v0C210.865,9.881,210.472,9.487,209.987,9.487z"/>
	<path fill="#FFFFFF" d="M330.742,9.39h-16.699c-0.539,0-0.976,0.437-0.976,0.976v0c0,0.539,0.437,0.976,0.976,0.976h16.699
		c0.539,0,0.976-0.437,0.976-0.976v0C331.718,9.827,331.281,9.39,330.742,9.39z"/>
	<path fill="#FFFFFF" d="M242.188,9.39H225.49c-0.539,0-0.976,0.437-0.976,0.976v0c0,0.539,0.437,0.976,0.976,0.976h16.699
		c0.539,0,0.976-0.437,0.976-0.976v0C243.165,9.827,242.728,9.39,242.188,9.39z"/>
	<path fill="#FFFFFF" d="M279.865,9.39h-9.689c-0.539,0-0.976,0.437-0.976,0.976v0c0,0.539,0.437,0.976,0.976,0.976h9.689
		c0.539,0,0.976-0.437,0.976-0.976v0C280.841,9.827,280.404,9.39,279.865,9.39z"/>
	<path fill="#FFFFFF" d="M376.684,9.487h-9.788c-0.485,0-0.879,0.393-0.879,0.879v0c0,0.485,0.393,0.879,0.879,0.879h9.788
		c0.485,0,0.879-0.393,0.879-0.879v0C377.563,9.881,377.169,9.487,376.684,9.487z"/>
	<path fill="#FFFFFF" d="M482.536,9.39h16.699c0.539,0,0.976,0.437,0.976,0.976v0c0,0.539-0.437,0.976-0.976,0.976h-16.699
		c-0.539,0-0.976-0.437-0.976-0.976v0C481.559,9.827,481.996,9.39,482.536,9.39z"/>
	<path fill="#FFFFFF" d="M575.089,9.39h16.699c0.539,0,0.976,0.437,0.976,0.976v0c0,0.539-0.437,0.976-0.976,0.976h-16.699
		c-0.539,0-0.976-0.437-0.976-0.976v0C574.113,9.827,574.55,9.39,575.089,9.39z"/>
	<path fill="#FFFFFF" d="M533.413,9.39h9.689c0.539,0,0.976,0.437,0.976,0.976v0c0,0.539-0.437,0.976-0.976,0.976h-9.689
		c-0.539,0-0.976-0.437-0.976-0.976v0C532.437,9.827,532.874,9.39,533.413,9.39z"/>
	<path fill="#FFFFFF" d="M408.156,9.487h7.498c0.485,0,0.879,0.393,0.879,0.879v0c0,0.485-0.393,0.879-0.879,0.879h-7.498
		c-0.485,0-0.879-0.393-0.879-0.879v0C407.278,9.881,407.671,9.487,408.156,9.487z"/>
	<path fill="#FFFFFF" d="M437.825,9.487h22.465c0.485,0,0.879,0.393,0.879,0.879v0c0,0.485-0.393,0.879-0.879,0.879h-22.465
		c-0.485,0-0.879-0.393-0.879-0.879v0C436.946,9.881,437.339,9.487,437.825,9.487z"/>
	<path fill="#FFFFFF" d="M657.729,9.39h12.551c0.539,0,0.976,0.437,0.976,0.976v0c0,0.539-0.437,0.976-0.976,0.976h-12.551
		c-0.539,0-0.976-0.437-0.976-0.976v0C656.753,9.827,657.19,9.39,657.729,9.39z"/>
	<path fill="#FFFFFF" d="M703.462,9.39h11.839c0.539,0,0.976,0.437,0.976,0.976v0c0,0.539-0.437,0.976-0.976,0.976h-11.839
		c-0.539,0-0.976-0.437-0.976-0.976v0C702.486,9.827,702.923,9.39,703.462,9.39z"/>
	<path fill="#FFFFFF" d="M745.664,9.39h14.573c0.539,0,0.976,0.437,0.976,0.976v0c0,0.539-0.437,0.976-0.976,0.976h-14.573
		c-0.539,0-0.976-0.437-0.976-0.976v0C744.688,9.827,745.125,9.39,745.664,9.39z"/>
	<path fill="#FFFFFF" d="M1015.533,9.39h17.449c0.539,0,0.976,0.437,0.976,0.976v0c0,0.539-0.437,0.976-0.976,0.976h-17.449
		c-0.539,0-0.976-0.437-0.976-0.976v0C1014.557,9.827,1014.994,9.39,1015.533,9.39z"/>
	<path fill="#FFFFFF" d="M1062.975,9.39h16.537c0.539,0,0.976,0.437,0.976,0.976v0c0,0.539-0.437,0.976-0.976,0.976h-16.537
		c-0.539,0-0.976-0.437-0.976-0.976v0C1061.999,9.827,1062.436,9.39,1062.975,9.39z"/>
	<path fill="#FFFFFF" d="M623.041,9.487h6.691c0.485,0,0.879,0.393,0.879,0.879v0c0,0.485-0.393,0.879-0.879,0.879h-6.691
		c-0.485,0-0.879-0.393-0.879-0.879v0C622.162,9.881,622.556,9.487,623.041,9.487z"/>
	<path fill="#FFFFFF" d="M778.475,9.487h21.215c0.485,0,0.879,0.393,0.879,0.879v0c0,0.485-0.393,0.879-0.879,0.879h-21.215
		c-0.485,0-0.879-0.393-0.879-0.879v0C777.597,9.881,777.99,9.487,778.475,9.487z"/>
	<path fill="#FFFFFF" d="M876.183,9.39h-15.073c-0.539,0-0.976,0.437-0.976,0.976v0c0,0.539,0.437,0.976,0.976,0.976h15.073
		c0.539,0,0.976-0.437,0.976-0.976v0C877.159,9.827,876.722,9.39,876.183,9.39z"/>
	<path fill="#FFFFFF" d="M834.807,9.39h-11.839c-0.539,0-0.976,0.437-0.976,0.976v0c0,0.539,0.437,0.976,0.976,0.976h11.839
		c0.539,0,0.976-0.437,0.976-0.976v0C835.784,9.827,835.347,9.39,834.807,9.39z"/>
	<path fill="#FFFFFF" d="M914.211,9.487h-10.314c-0.485,0-0.879,0.393-0.879,0.879v0c0,0.485,0.393,0.879,0.879,0.879h10.314
		c0.485,0,0.879-0.393,0.879-0.879v0C915.09,9.881,914.697,9.487,914.211,9.487z"/>
	<path fill="#FFFFFF" d="M983.434,9.487h9.935c0.485,0,0.879,0.393,0.879,0.879v0c0,0.485-0.393,0.879-0.879,0.879h-9.935
		c-0.485,0-0.879-0.393-0.879-0.879v0C982.555,9.881,982.948,9.487,983.434,9.487z"/>
	<path fill="#FFFFFF" d="M965.409,9.487h-21.664c-0.485,0-0.879,0.393-0.879,0.879v0c0,0.485,0.393,0.879,0.879,0.879h21.664
		c0.485,0,0.879-0.393,0.879-0.879v0C966.288,9.881,965.895,9.487,965.409,9.487z"/>
	<path fill="#FFFFFF" d="M1105.511,9.39h23.084c0.539,0,0.976,0.437,0.976,0.976v0c0,0.539-0.437,0.976-0.976,0.976h-23.084
		c-0.539,0-0.976-0.437-0.976-0.976v0C1104.535,9.827,1104.972,9.39,1105.511,9.39z"/>
	<path fill="#FFFFFF" d="M1151.244,9.39h11.839c0.539,0,0.976,0.437,0.976,0.976v0c0,0.539-0.437,0.976-0.976,0.976h-11.839
		c-0.539,0-0.976-0.437-0.976-0.976v0C1150.268,9.827,1150.705,9.39,1151.244,9.39z"/>
</g>
<g>
	<path fill="#FFFFFF" d="M343.896,0.473l-15.073,0c-0.539,0-0.976,0.437-0.976,0.976v0c0,0.539,0.437,0.976,0.976,0.976h15.073
		c0.539,0,0.976-0.437,0.976-0.976v0C344.872,0.91,344.435,0.473,343.896,0.473z"/>
	<path fill="#FFFFFF" d="M314.871,0.473h-22.289c-0.539,0-0.976,0.437-0.976,0.976v0c0,0.539,0.437,0.976,0.976,0.976h22.289
		c0.539,0,0.976-0.437,0.976-0.976v0C315.847,0.91,315.41,0.473,314.871,0.473z"/>
	<path fill="#FFFFFF" d="M388.729,0.473h-15.073c-0.539,0-0.976,0.437-0.976,0.976v0c0,0.539,0.437,0.976,0.976,0.976h15.073
		c0.539,0,0.976-0.437,0.976-0.976v0C389.705,0.91,389.268,0.473,388.729,0.473z"/>
	<path fill="#FFFFFF" d="M434.119,0.339l-17.415,0c-0.539,0-0.976,0.437-0.976,0.976v0.269c0,0.539,0.437,0.976,0.976,0.976h17.415
		c0.539,0,0.976-0.437,0.976-0.976V1.315C435.095,0.776,434.658,0.339,434.119,0.339z"/>
	<path fill="#FFFFFF" d="M364.258,0.571h-8.782c-0.485,0-0.879,0.393-0.879,0.879v0c0,0.485,0.393,0.879,0.879,0.879h8.782
		c0.485,0,0.879-0.393,0.879-0.879v0C365.136,0.964,364.743,0.571,364.258,0.571z"/>
	<path fill="#FFFFFF" d="M285.225,0.571h-10.124c-0.485,0-0.879,0.393-0.879,0.879v0c0,0.485,0.393,0.879,0.879,0.879h10.124
		c0.485,0,0.879-0.393,0.879-0.879v0C286.104,0.964,285.71,0.571,285.225,0.571z"/>
	<path fill="#FFFFFF" d="M265.133,0.571l-17.789,0c-0.485,0-0.879,0.393-0.879,0.879v0c0,0.485,0.393,0.879,0.879,0.879h17.789
		c0.485,0,0.879-0.393,0.879-0.879v0C266.011,0.964,265.618,0.571,265.133,0.571z"/>
	<path fill="#FFFFFF" d="M404.508,0.571h-8.782c-0.485,0-0.879,0.393-0.879,0.879v0c0,0.485,0.393,0.879,0.879,0.879h8.782
		c0.485,0,0.879-0.393,0.879-0.879v0C405.386,0.964,404.993,0.571,404.508,0.571z"/>
	<path fill="#FFFFFF" d="M144.049,0.473l-15.073,0C128.437,0.473,128,0.91,128,1.45v0c0,0.539,0.437,0.976,0.976,0.976h15.073
		c0.539,0,0.976-0.437,0.976-0.976v0C145.025,0.91,144.588,0.473,144.049,0.473z"/>
	<path fill="#FFFFFF" d="M115.024,0.473H92.734c-0.539,0-0.976,0.437-0.976,0.976v0c0,0.539,0.437,0.976,0.976,0.976h22.289
		c0.539,0,0.976-0.437,0.976-0.976v0C116,0.91,115.563,0.473,115.024,0.473z"/>
	<path fill="#FFFFFF" d="M188.882,0.473H173.81c-0.539,0-0.976,0.437-0.976,0.976v0c0,0.539,0.437,0.976,0.976,0.976h15.073
		c0.539,0,0.976-0.437,0.976-0.976v0C189.858,0.91,189.421,0.473,188.882,0.473z"/>
	<path fill="#FFFFFF" d="M234.272,0.339l-17.415,0c-0.539,0-0.976,0.437-0.976,0.976v0.269c0,0.539,0.437,0.976,0.976,0.976h17.415
		c0.539,0,0.976-0.437,0.976-0.976V1.315C235.248,0.776,234.811,0.339,234.272,0.339z"/>
	<path fill="#FFFFFF" d="M164.411,0.571h-8.782c-0.485,0-0.879,0.393-0.879,0.879v0c0,0.485,0.393,0.879,0.879,0.879h8.782
		c0.485,0,0.879-0.393,0.879-0.879v0C165.289,0.964,164.896,0.571,164.411,0.571z"/>
	<path fill="#FFFFFF" d="M81.378,0.571H71.254c-0.485,0-0.879,0.393-0.879,0.879v0c0,0.485,0.393,0.879,0.879,0.879h10.124
		c0.485,0,0.879-0.393,0.879-0.879v0C82.257,0.964,81.863,0.571,81.378,0.571z"/>
	<path fill="#FFFFFF" d="M25.378,0.571l-23.746,0c-0.485,0-0.879,0.393-0.879,0.879v0c0,0.485,0.393,0.879,0.879,0.879h23.746
		c0.485,0,0.879-0.393,0.879-0.879v0C26.257,0.964,25.863,0.571,25.378,0.571z"/>
	<path fill="#FFFFFF" d="M61.941,0.571H37.497c-0.485,0-0.879,0.393-0.879,0.879v0c0,0.485,0.393,0.879,0.879,0.879h24.445
		c0.485,0,0.879-0.393,0.879-0.879v0C62.82,0.964,62.427,0.571,61.941,0.571z"/>
	<path fill="#FFFFFF" d="M204.661,0.571h-8.782c-0.485,0-0.879,0.393-0.879,0.879v0c0,0.485,0.393,0.879,0.879,0.879h8.782
		c0.485,0,0.879-0.393,0.879-0.879v0C205.539,0.964,205.146,0.571,204.661,0.571z"/>
	<g>
		<path fill="#FFFFFF" d="M540.382,0.473l15.073,0c0.539,0,0.976,0.437,0.976,0.976v0c0,0.539-0.437,0.976-0.976,0.976h-15.073
			c-0.539,0-0.976-0.437-0.976-0.976v0C539.406,0.91,539.843,0.473,540.382,0.473z"/>
		<path fill="#FFFFFF" d="M569.407,0.473h22.289c0.539,0,0.976,0.437,0.976,0.976v0c0,0.539-0.437,0.976-0.976,0.976h-22.289
			c-0.539,0-0.976-0.437-0.976-0.976v0C568.431,0.91,568.868,0.473,569.407,0.473z"/>
		<path fill="#FFFFFF" d="M495.549,0.473l15.073,0c0.539,0,0.976,0.437,0.976,0.976v0c0,0.539-0.437,0.976-0.976,0.976h-15.073
			c-0.539,0-0.976-0.437-0.976-0.976v0C494.572,0.91,495.009,0.473,495.549,0.473z"/>
		<path fill="#FFFFFF" d="M520.02,0.571h8.782c0.485,0,0.879,0.393,0.879,0.879v0c0,0.485-0.393,0.879-0.879,0.879h-8.782
			c-0.485,0-0.879-0.393-0.879-0.879v0C519.141,0.964,519.535,0.571,520.02,0.571z"/>
		<path fill="#FFFFFF" d="M599.053,0.571l10.124,0c0.485,0,0.879,0.393,0.879,0.879v0c0,0.485-0.393,0.879-0.879,0.879h-10.124
			c-0.485,0-0.879-0.393-0.879-0.879v0C598.174,0.964,598.567,0.571,599.053,0.571z"/>
		<path fill="#FFFFFF" d="M619.145,0.571l17.789,0c0.485,0,0.879,0.393,0.879,0.879v0c0,0.485-0.393,0.879-0.879,0.879h-17.789
			c-0.485,0-0.879-0.393-0.879-0.879v0C618.266,0.964,618.66,0.571,619.145,0.571z"/>
		<path fill="#FFFFFF" d="M479.77,0.571h8.782c0.485,0,0.879,0.393,0.879,0.879v0c0,0.485-0.393,0.879-0.879,0.879h-8.782
			c-0.485,0-0.879-0.393-0.879-0.879v0C478.891,0.964,479.285,0.571,479.77,0.571z"/>
		<path fill="#FFFFFF" d="M446.272,0.571h25.155c0.485,0,0.879,0.393,0.879,0.879v0c0,0.485-0.393,0.879-0.879,0.879h-25.155
			c-0.485,0-0.879-0.393-0.879-0.879v0C445.393,0.964,445.787,0.571,446.272,0.571z"/>
	</g>
	<g>
		<path fill="#FFFFFF" d="M740.229,0.473l15.073,0c0.539,0,0.976,0.437,0.976,0.976v0c0,0.539-0.437,0.976-0.976,0.976h-15.073
			c-0.539,0-0.976-0.437-0.976-0.976v0C739.253,0.91,739.69,0.473,740.229,0.473z"/>
		<path fill="#FFFFFF" d="M769.254,0.473l22.289,0c0.539,0,0.976,0.437,0.976,0.976v0c0,0.539-0.437,0.976-0.976,0.976h-22.289
			c-0.539,0-0.976-0.437-0.976-0.976v0C768.278,0.91,768.715,0.473,769.254,0.473z"/>
		<path fill="#FFFFFF" d="M695.396,0.473h15.073c0.539,0,0.976,0.437,0.976,0.976v0c0,0.539-0.437,0.976-0.976,0.976h-15.073
			c-0.539,0-0.976-0.437-0.976-0.976v0C694.419,0.91,694.856,0.473,695.396,0.473z"/>
		<path fill="#FFFFFF" d="M650.006,0.339l17.415,0c0.539,0,0.976,0.437,0.976,0.976v0.269c0,0.539-0.437,0.976-0.976,0.976h-17.415
			c-0.539,0-0.976-0.437-0.976-0.976V1.315C649.03,0.776,649.467,0.339,650.006,0.339z"/>
		<path fill="#FFFFFF" d="M719.867,0.571h8.782c0.485,0,0.879,0.393,0.879,0.879v0c0,0.485-0.393,0.879-0.879,0.879h-8.782
			c-0.485,0-0.879-0.393-0.879-0.879v0C718.988,0.964,719.382,0.571,719.867,0.571z"/>
		<path fill="#FFFFFF" d="M798.9,0.571l10.124,0c0.485,0,0.879,0.393,0.879,0.879v0c0,0.485-0.393,0.879-0.879,0.879H798.9
			c-0.485,0-0.879-0.393-0.879-0.879v0C798.021,0.964,798.414,0.571,798.9,0.571z"/>
		<path fill="#FFFFFF" d="M818.992,0.571l17.789,0c0.485,0,0.879,0.393,0.879,0.879v0c0,0.485-0.393,0.879-0.879,0.879h-17.789
			c-0.485,0-0.879-0.393-0.879-0.879v0C818.113,0.964,818.507,0.571,818.992,0.571z"/>
		<path fill="#FFFFFF" d="M679.617,0.571h8.782c0.485,0,0.879,0.393,0.879,0.879v0c0,0.485-0.393,0.879-0.879,0.879h-8.782
			c-0.485,0-0.879-0.393-0.879-0.879v0C678.738,0.964,679.132,0.571,679.617,0.571z"/>
		<path fill="#FFFFFF" d="M1033.2,0.473h15.073c0.539,0,0.976,0.437,0.976,0.976v0c0,0.539-0.437,0.976-0.976,0.976H1033.2
			c-0.539,0-0.976-0.437-0.976-0.976v0C1032.224,0.91,1032.661,0.473,1033.2,0.473z"/>
		<path fill="#FFFFFF" d="M1057.671,0.571h8.782c0.485,0,0.879,0.393,0.879,0.879v0c0,0.485-0.393,0.879-0.879,0.879h-8.782
			c-0.485,0-0.879-0.393-0.879-0.879v0C1056.792,0.964,1057.186,0.571,1057.671,0.571z"/>
		<path fill="#FFFFFF" d="M1017.421,0.571h8.782c0.485,0,0.879,0.393,0.879,0.879v0c0,0.485-0.393,0.879-0.879,0.879h-8.782
			c-0.485,0-0.879-0.393-0.879-0.879v0C1016.543,0.964,1016.936,0.571,1017.421,0.571z"/>
		<path fill="#FFFFFF" d="M910.492,0.473h-22.289c-0.539,0-0.976,0.437-0.976,0.976v0c0,0.539,0.437,0.976,0.976,0.976h22.289
			c0.539,0,0.976-0.437,0.976-0.976v0C911.468,0.91,911.031,0.473,910.492,0.473z"/>
		<path fill="#FFFFFF" d="M880.846,0.571l-10.124,0c-0.485,0-0.879,0.393-0.879,0.879v0c0,0.485,0.393,0.879,0.879,0.879h10.124
			c0.485,0,0.879-0.393,0.879-0.879v0C881.725,0.964,881.331,0.571,880.846,0.571z"/>
		<path fill="#FFFFFF" d="M860.753,0.571l-17.789,0c-0.485,0-0.879,0.393-0.879,0.879v0c0,0.485,0.393,0.879,0.879,0.879h17.789
			c0.485,0,0.879-0.393,0.879-0.879v0C861.632,0.964,861.239,0.571,860.753,0.571z"/>
		<path fill="#FFFFFF" d="M917.492,0.571l17.789,0c0.485,0,0.879,0.393,0.879,0.879v0c0,0.485-0.393,0.879-0.879,0.879h-17.789
			c-0.485,0-0.879-0.393-0.879-0.879v0C916.613,0.964,917.007,0.571,917.492,0.571z"/>
		<path fill="#FFFFFF" d="M1008.992,0.473h-22.289c-0.539,0-0.976,0.437-0.976,0.976v0c0,0.539,0.437,0.976,0.976,0.976h22.289
			c0.539,0,0.976-0.437,0.976-0.976v0C1009.968,0.91,1009.531,0.473,1008.992,0.473z"/>
		<path fill="#FFFFFF" d="M979.346,0.571l-10.124,0c-0.485,0-0.879,0.393-0.879,0.879v0c0,0.485,0.393,0.879,0.879,0.879h10.124
			c0.485,0,0.879-0.393,0.879-0.879v0C980.225,0.964,979.831,0.571,979.346,0.571z"/>
		<path fill="#FFFFFF" d="M959.253,0.571l-17.789,0c-0.485,0-0.879,0.393-0.879,0.879v0c0,0.485,0.393,0.879,0.879,0.879h17.789
			c0.485,0,0.879-0.393,0.879-0.879v0C960.132,0.964,959.739,0.571,959.253,0.571z"/>
		<path fill="#FFFFFF" d="M1143.177,0.473h15.073c0.539,0,0.976,0.437,0.976,0.976v0c0,0.539-0.437,0.976-0.976,0.976h-15.073
			c-0.539,0-0.976-0.437-0.976-0.976v0C1142.201,0.91,1142.638,0.473,1143.177,0.473z"/>
		<path fill="#FFFFFF" d="M1083.933,0.339l17.415,0c0.539,0,0.976,0.437,0.976,0.976v0.269c0,0.539-0.437,0.976-0.976,0.976h-17.415
			c-0.539,0-0.976-0.437-0.976-0.976V1.315C1082.956,0.776,1083.394,0.339,1083.933,0.339z"/>
		<path fill="#FFFFFF" d="M1167.649,0.571h8.782c0.485,0,0.879,0.393,0.879,0.879v0c0,0.485-0.393,0.879-0.879,0.879h-8.782
			c-0.485,0-0.879-0.393-0.879-0.879v0C1166.77,0.964,1167.164,0.571,1167.649,0.571z"/>
		<path fill="#FFFFFF" d="M1127.399,0.571h8.782c0.485,0,0.879,0.393,0.879,0.879v0c0,0.485-0.393,0.879-0.879,0.879h-8.782
			c-0.485,0-0.879-0.393-0.879-0.879v0C1126.52,0.964,1126.914,0.571,1127.399,0.571z"/>
	</g>
</g>
<g>
	<path fill="#FFFFFF" d="M42.787,17.145h-5.004c-0.539,0-0.976,0.437-0.976,0.976v0c0,0.539,0.437,0.976,0.976,0.976h5.004
		c0.539,0,0.976-0.437,0.976-0.976v0C43.763,17.582,43.326,17.145,42.787,17.145z"/>
	<path fill="#FFFFFF" d="M100.682,27.145h-9.9c-0.539,0-0.976,0.437-0.976,0.976v0c0,0.539,0.437,0.976,0.976,0.976h9.9
		c0.539,0,0.976-0.437,0.976-0.976v0C101.658,27.582,101.221,27.145,100.682,27.145z"/>
	<path fill="#FFFFFF" d="M40.682,27.145h-7.539c-0.539,0-0.976,0.437-0.976,0.976v0c0,0.539,0.437,0.976,0.976,0.976h7.539
		c0.539,0,0.976-0.437,0.976-0.976v0C41.658,27.582,41.221,27.145,40.682,27.145z"/>
	<path fill="#FFFFFF" d="M159.043,27.145h-18.261c-0.539,0-0.976,0.437-0.976,0.976v0c0,0.539,0.437,0.976,0.976,0.976h18.261
		c0.539,0,0.976-0.437,0.976-0.976v0C160.02,27.582,159.583,27.145,159.043,27.145z"/>
	<path fill="#FFFFFF" d="M233.588,27.145h-13.806c-0.539,0-0.976,0.437-0.976,0.976v0c0,0.539,0.437,0.976,0.976,0.976h13.806
		c0.539,0,0.976-0.437,0.976-0.976v0C234.564,27.582,234.127,27.145,233.588,27.145z"/>
	<path fill="#FFFFFF" d="M335.588,27.145h-13.806c-0.539,0-0.976,0.437-0.976,0.976v0c0,0.539,0.437,0.976,0.976,0.976h13.806
		c0.539,0,0.976-0.437,0.976-0.976v0C336.564,27.582,336.127,27.145,335.588,27.145z"/>
	<path fill="#FFFFFF" d="M258.72,37.145h-6.938c-0.539,0-0.976,0.437-0.976,0.976l0,0c0,0.539,0.437,0.976,0.976,0.976h6.938
		c0.539,0,0.976-0.437,0.976-0.976l0,0C259.697,37.582,259.26,37.145,258.72,37.145z"/>
	<path fill="#FFFFFF" d="M164.612,37.145h-6.948c-0.539,0-0.976,0.437-0.976,0.976l0,0c0,0.539,0.437,0.976,0.976,0.976h6.948
		c0.539,0,0.976-0.437,0.976-0.976l0,0C165.588,37.582,165.151,37.145,164.612,37.145z"/>
	<path fill="#FFFFFF" d="M407.94,37.145h-6.158c-0.539,0-0.976,0.437-0.976,0.976v0c0,0.539,0.437,0.976,0.976,0.976h6.158
		c0.539,0,0.976-0.437,0.976-0.976v0C408.917,37.582,408.48,37.145,407.94,37.145z"/>
	<path fill="#FFFFFF" d="M577.414,37.145h-5.632c-0.539,0-0.976,0.437-0.976,0.976v0c0,0.539,0.437,0.976,0.976,0.976h5.632
		c0.539,0,0.976-0.437,0.976-0.976v0C578.39,37.582,577.953,37.145,577.414,37.145z"/>
	<path fill="#FFFFFF" d="M739.905,37.145h-8.123c-0.539,0-0.976,0.437-0.976,0.976v0c0,0.539,0.437,0.976,0.976,0.976h8.123
		c0.539,0,0.976-0.437,0.976-0.976v0C740.881,37.582,740.444,37.145,739.905,37.145z"/>
	<path fill="#FFFFFF" d="M978.042,37.145h-6.26c-0.539,0-0.976,0.437-0.976,0.976v0c0,0.539,0.437,0.976,0.976,0.976h6.26
		c0.539,0,0.976-0.437,0.976-0.976v0C979.019,37.582,978.582,37.145,978.042,37.145z"/>
	<path fill="#FFFFFF" d="M497.872,37.145h-6.09c-0.539,0-0.976,0.437-0.976,0.976v0c0,0.539,0.437,0.976,0.976,0.976h6.09
		c0.539,0,0.976-0.437,0.976-0.976v0C498.849,37.582,498.412,37.145,497.872,37.145z"/>
	<path fill="#FFFFFF" d="M395.588,27.145h-13.806c-0.539,0-0.976,0.437-0.976,0.976v0c0,0.539,0.437,0.976,0.976,0.976h13.806
		c0.539,0,0.976-0.437,0.976-0.976v0C396.564,27.582,396.127,27.145,395.588,27.145z"/>
	<path fill="#FFFFFF" d="M487.366,27.145h-25.583c-0.539,0-0.976,0.437-0.976,0.976v0c0,0.539,0.437,0.976,0.976,0.976h25.583
		c0.539,0,0.976-0.437,0.976-0.976v0C488.342,27.582,487.905,27.145,487.366,27.145z"/>
	<path fill="#FFFFFF" d="M551.994,27.145h-10.94c-0.539,0-0.976,0.437-0.976,0.976v0c0,0.539,0.437,0.976,0.976,0.976h10.94
		c0.539,0,0.976-0.437,0.976-0.976v0C552.971,27.582,552.534,27.145,551.994,27.145z"/>
	<path fill="#FFFFFF" d="M619.897,27.145h-8.842c-0.539,0-0.976,0.437-0.976,0.976v0c0,0.539,0.437,0.976,0.976,0.976h8.842
		c0.539,0,0.976-0.437,0.976-0.976v0C620.873,27.582,620.436,27.145,619.897,27.145z"/>
	<path fill="#FFFFFF" d="M679.897,27.145h-8.842c-0.539,0-0.976,0.437-0.976,0.976v0c0,0.539,0.437,0.976,0.976,0.976h8.842
		c0.539,0,0.976-0.437,0.976-0.976v0C680.873,27.582,680.436,27.145,679.897,27.145z"/>
	<path fill="#FFFFFF" d="M919.512,27.145h-8.842c-0.539,0-0.976,0.437-0.976,0.976v0c0,0.539,0.437,0.976,0.976,0.976h8.842
		c0.539,0,0.976-0.437,0.976-0.976v0C920.488,27.582,920.051,27.145,919.512,27.145z"/>
	<path fill="#FFFFFF" d="M1008.535,27.145h-7.866c-0.539,0-0.976,0.437-0.976,0.976v0c0,0.539,0.437,0.976,0.976,0.976h7.866
		c0.539,0,0.976-0.437,0.976-0.976v0C1009.512,27.582,1009.074,27.145,1008.535,27.145z"/>
	<path fill="#FFFFFF" d="M1108.535,27.145h-7.866c-0.539,0-0.976,0.437-0.976,0.976v0c0,0.539,0.437,0.976,0.976,0.976h7.866
		c0.539,0,0.976-0.437,0.976-0.976v0C1109.512,27.582,1109.074,27.145,1108.535,27.145z"/>
	<path fill="#FFFFFF" d="M758.151,27.145h-7.096c-0.539,0-0.976,0.437-0.976,0.976v0c0,0.539,0.437,0.976,0.976,0.976h7.096
		c0.539,0,0.976-0.437,0.976-0.976v0C759.127,27.582,758.69,27.145,758.151,27.145z"/>
	<path fill="#FFFFFF" d="M858.151,27.145h-7.096c-0.539,0-0.976,0.437-0.976,0.976v0c0,0.539,0.437,0.976,0.976,0.976h7.096
		c0.539,0,0.976-0.437,0.976-0.976v0C859.127,27.582,858.69,27.145,858.151,27.145z"/>
	<path fill="#FFFFFF" d="M105.448,17.037h-9.848c-0.539,0-0.976,0.437-0.976,0.976v0.216c0,0.539,0.437,0.976,0.976,0.976h9.848
		c0.539,0,0.976-0.437,0.976-0.976v-0.216C106.424,17.474,105.987,17.037,105.448,17.037z"/>
	<path fill="#FFFFFF" d="M214.191,17.242l-5.421,0c-0.485,0-0.879,0.393-0.879,0.879v0c0,0.485,0.393,0.879,0.879,0.879h5.421
		c0.485,0,0.879-0.393,0.879-0.879v0C215.069,17.636,214.676,17.242,214.191,17.242z"/>
	<path fill="#FFFFFF" d="M164.861,17.242h-8.782c-0.485,0-0.879,0.393-0.879,0.879v0c0,0.485,0.393,0.879,0.879,0.879h8.782
		c0.485,0,0.879-0.393,0.879-0.879v0C165.74,17.636,165.346,17.242,164.861,17.242z"/>
	<path fill="#FFFFFF" d="M360.137,17.145h-9.9c-0.539,0-0.976,0.437-0.976,0.976v0c0,0.539,0.437,0.976,0.976,0.976h9.9
		c0.539,0,0.976-0.437,0.976-0.976v0C361.113,17.582,360.676,17.145,360.137,17.145z"/>
	<path fill="#FFFFFF" d="M247.931,17.242h-8.782c-0.485,0-0.879,0.393-0.879,0.879v0c0,0.485,0.393,0.879,0.879,0.879h8.782
		c0.485,0,0.879-0.393,0.879-0.879v0C248.81,17.636,248.417,17.242,247.931,17.242z"/>
	<path fill="#FFFFFF" d="M297.744,17.242h-8.782c-0.485,0-0.879,0.393-0.879,0.879v0c0,0.485,0.393,0.879,0.879,0.879h8.782
		c0.485,0,0.879-0.393,0.879-0.879v0C298.623,17.636,298.229,17.242,297.744,17.242z"/>
	<path fill="#FFFFFF" d="M426.435,17.145h-8.047c-0.539,0-0.976,0.437-0.976,0.976v0c0,0.539,0.437,0.976,0.976,0.976h8.047
		c0.539,0,0.976-0.437,0.976-0.976v0C427.411,17.582,426.974,17.145,426.435,17.145z"/>
	<path fill="#FFFFFF" d="M492.427,17.145h-9.9c-0.539,0-0.976,0.437-0.976,0.976v0c0,0.539,0.437,0.976,0.976,0.976h9.9
		c0.539,0,0.976-0.437,0.976-0.976v0C493.403,17.582,492.966,17.145,492.427,17.145z"/>
	<path fill="#FFFFFF" d="M854.674,17.145H840.09c-0.539,0-0.976,0.437-0.976,0.976v0c0,0.539,0.437,0.976,0.976,0.976h14.584
		c0.539,0,0.976-0.437,0.976-0.976v0C855.65,17.582,855.213,17.145,854.674,17.145z"/>
	<path fill="#FFFFFF" d="M806.439,17.145h-6.481c-0.539,0-0.976,0.437-0.976,0.976v0c0,0.539,0.437,0.976,0.976,0.976h6.481
		c0.539,0,0.976-0.437,0.976-0.976v0C807.415,17.582,806.978,17.145,806.439,17.145z"/>
	<path fill="#FFFFFF" d="M894.388,17.242h-5.215c-0.485,0-0.879,0.393-0.879,0.879v0c0,0.485,0.393,0.879,0.879,0.879h5.215
		c0.485,0,0.879-0.393,0.879-0.879v0C895.267,17.636,894.873,17.242,894.388,17.242z"/>
	<path fill="#FFFFFF" d="M1005.126,17.242h-5.215c-0.485,0-0.879,0.393-0.879,0.879v0c0,0.485,0.393,0.879,0.879,0.879h5.215
		c0.485,0,0.879-0.393,0.879-0.879v0C1006.005,17.636,1005.611,17.242,1005.126,17.242z"/>
	<path fill="#FFFFFF" d="M1065.244,17.145h-9.56c-0.539,0-0.976,0.437-0.976,0.976v0c0,0.539,0.437,0.976,0.976,0.976h9.56
		c0.539,0,0.976-0.437,0.976-0.976v0C1066.22,17.582,1065.783,17.145,1065.244,17.145z"/>
	<path fill="#FFFFFF" d="M1126.13,17.242h-8.479c-0.485,0-0.879,0.393-0.879,0.879v0c0,0.485,0.394,0.879,0.879,0.879h8.479
		c0.485,0,0.879-0.393,0.879-0.879v0C1127.008,17.636,1126.615,17.242,1126.13,17.242z"/>
	<path fill="#FFFFFF" d="M1102.683,17.242h-8.479c-0.485,0-0.879,0.393-0.879,0.879v0c0,0.485,0.393,0.879,0.879,0.879h8.479
		c0.485,0,0.879-0.393,0.879-0.879v0C1103.562,17.636,1103.169,17.242,1102.683,17.242z"/>
	<path fill="#FFFFFF" d="M970.528,17.242h-8.479c-0.485,0-0.879,0.393-0.879,0.879v0c0,0.485,0.393,0.879,0.879,0.879h8.479
		c0.485,0,0.879-0.393,0.879-0.879v0C971.407,17.636,971.013,17.242,970.528,17.242z"/>
	<path fill="#FFFFFF" d="M1158.776,17.145h-6.481c-0.539,0-0.976,0.437-0.976,0.976v0c0,0.539,0.437,0.976,0.976,0.976h6.481
		c0.539,0,0.976-0.437,0.976-0.976v0C1159.752,17.582,1159.315,17.145,1158.776,17.145z"/>
	<path fill="#FFFFFF" d="M552.877,17.242l-5.421,0c-0.485,0-0.879,0.393-0.879,0.879v0c0,0.485,0.393,0.879,0.879,0.879h5.421
		c0.485,0,0.879-0.393,0.879-0.879v0C553.756,17.636,553.363,17.242,552.877,17.242z"/>
	<path fill="#FFFFFF" d="M621.157,17.242l-5.421,0c-0.485,0-0.879,0.393-0.879,0.879v0c0,0.485,0.393,0.879,0.879,0.879h5.421
		c0.485,0,0.879-0.393,0.879-0.879v0C622.036,17.636,621.642,17.242,621.157,17.242z"/>
	<path fill="#FFFFFF" d="M674.421,17.242l-5.421,0c-0.485,0-0.879,0.393-0.879,0.879v0c0,0.485,0.393,0.879,0.879,0.879h5.421
		c0.485,0,0.879-0.393,0.879-0.879v0C675.3,17.636,674.906,17.242,674.421,17.242z"/>
	<path fill="#FFFFFF" d="M742.448,17.145h-15.073c-0.539,0-0.976,0.437-0.976,0.976v0c0,0.539,0.437,0.976,0.976,0.976h15.073
		c0.539,0,0.976-0.437,0.976-0.976v0C743.424,17.582,742.987,17.145,742.448,17.145z"/>
</g>
<g>
</g>
<g>
</g>
<g>
</g>
<g>
</g>
<g>
</g>
<g>
</g>
</svg>
