<svg xmlns="http://www.w3.org/2000/svg" version="1.1" x="0" y="0" viewBox="0 0 1930 65" enable-background="new 0 0 1930 65" xml:space="preserve"><path fill="#2b9cab"  d="M1927 53.8c-6.1 1.1-14 1.6-24 1.2 -49.4-1.6-128.7-22.1-190.4-26 -59.1 4-246.6 29-364.6 29 -86.7 0-242.9-29-318.1-27.9C921.1 30.1 807 57.9 707 57.9 661.3 57.9 554 29 477 30c-66.3 0.9-173.1 28-236 28 -53 0-136-29.7-167-30.7 -18.6-0.6-42.5 3-67 8.1 -23.2 4.8-22.8-18.9-15.3-32.3C-5.4-2 7-5.7 7-5.7l1930 6C1937 0.3 1972.3 45.7 1927 53.8z"/>
</svg>
